<?xml version="1.0" encoding="UTF-8"?>
<!DOCTYPE svg PUBLIC "-//W3C//DTD SVG 1.1//EN" "http://www.w3.org/Graphics/SVG/1.1/DTD/svg11.dtd">
<svg xmlns="http://www.w3.org/2000/svg" version="1.1" width="387px" height="424px" style="shape-rendering:geometricPrecision; text-rendering:geometricPrecision; image-rendering:optimizeQuality; fill-rule:evenodd; clip-rule:evenodd" xmlns:xlink="http://www.w3.org/1999/xlink">
<g><path style="opacity:1" fill="#fcfdfd" d="M -0.5,-0.5 C 128.5,-0.5 257.5,-0.5 386.5,-0.5C 386.5,140.833 386.5,282.167 386.5,423.5C 257.5,423.5 128.5,423.5 -0.5,423.5C -0.5,282.167 -0.5,140.833 -0.5,-0.5 Z"/></g>
<g><path style="opacity:1" fill="#edeff1" d="M 56.5,8.5 C 144.501,8.33334 232.501,8.5 320.5,9C 349.581,11.6157 367.415,27.1157 374,55.5C 374.667,158.833 374.667,262.167 374,365.5C 367.881,393.824 350.381,409.657 321.5,413C 234.833,413.667 148.167,413.667 61.5,413C 35.0795,408.897 18.2462,394.063 11,368.5C 10.3333,264.5 10.3333,160.5 11,56.5C 16.1312,30.8714 31.2979,14.8714 56.5,8.5 Z"/></g>
<g><path style="opacity:1" fill="#fcfcfc" d="M 58.5,16.5 C 147.834,16.3333 237.167,16.5 326.5,17C 337.392,19.1938 346.559,24.3605 354,32.5C 360.907,42.892 365.24,54.2254 367,66.5C 367.667,160.833 367.667,255.167 367,349.5C 367.422,366.921 361.588,381.754 349.5,394C 341.206,400.211 331.872,403.878 321.5,405C 234.167,405.667 146.833,405.667 59.5,405C 37.143,400.906 23.643,387.74 19,365.5C 18.3333,264.167 18.3333,162.833 19,61.5C 21.7455,37.2596 34.9122,22.2596 58.5,16.5 Z"/></g>
<g><path style="opacity:1" fill="#264971" d="M 189.5,22.5 C 194.013,22.588 198.013,24.088 201.5,27C 217.381,39.8825 233.548,52.3825 250,64.5C 250.5,56.1733 250.666,47.84 250.5,39.5C 258.5,39.5 266.5,39.5 274.5,39.5C 274.333,54.5037 274.5,69.5037 275,84.5C 292.616,97.1153 309.95,110.115 327,123.5C 327.257,126.017 326.59,128.35 325,130.5C 321.563,135.051 317.896,139.384 314,143.5C 310.279,142.057 306.779,140.223 303.5,138C 267.178,108.851 230.178,80.684 192.5,53.5C 162.099,75.7248 132.099,98.5582 102.5,122C 92.6145,129.395 82.6145,136.561 72.5,143.5C 67.8845,140.719 64.0511,137.053 61,132.5C 59.6966,130.06 58.53,127.56 57.5,125C 57.8333,124.5 58.1667,124 58.5,123.5C 102.055,89.5712 145.722,55.9046 189.5,22.5 Z"/></g>
<g><path style="opacity:1" fill="#6a963a" d="M 188.5,100.5 C 191.5,100.5 194.5,100.5 197.5,100.5C 197.575,103.206 197.908,105.873 198.5,108.5C 205.182,109.253 211.515,111.086 217.5,114C 216.718,116.74 216.218,119.574 216,122.5C 215.477,124.223 214.477,125.556 213,126.5C 208.411,124.746 203.745,123.413 199,122.5C 198.333,128.5 198.333,134.5 199,140.5C 207.881,142.387 214.881,147.054 220,154.5C 223.263,172.722 215.763,182.722 197.5,184.5C 197.5,187.833 197.5,191.167 197.5,194.5C 194.5,194.5 191.5,194.5 188.5,194.5C 188.5,190.833 188.5,187.167 188.5,183.5C 179.736,184.9 171.903,182.9 165,177.5C 164.198,172.572 164.865,167.906 167,163.5C 173.642,166.904 180.476,169.904 187.5,172.5C 188.497,165.866 188.83,159.2 188.5,152.5C 169.557,149.726 162.39,139.06 167,120.5C 172.178,112.994 179.344,109.328 188.5,109.5C 188.5,106.5 188.5,103.5 188.5,100.5 Z"/></g>
<g><path style="opacity:1" fill="#ecf1e6" d="M 183.5,122.5 C 185.167,122.5 186.833,122.5 188.5,122.5C 188.666,127.511 188.499,132.511 188,137.5C 179.964,134.369 178.464,129.369 183.5,122.5 Z"/></g>
<g><path style="opacity:1" fill="#669435" d="M 109.5,130.5 C 110.5,130.5 111.5,130.5 112.5,130.5C 112.5,159.5 112.5,188.5 112.5,217.5C 165.833,217.5 219.167,217.5 272.5,217.5C 272.333,188.498 272.5,159.498 273,130.5C 280.667,135.5 288.333,140.5 296,145.5C 296.667,176.833 296.667,208.167 296,239.5C 295.5,240 295,240.5 294.5,241C 226.085,241.993 157.751,241.66 89.5,240C 87.7536,209.913 86.9202,179.746 87,149.5C 90.947,143.23 96.447,138.73 103.5,136C 105.763,134.383 107.763,132.55 109.5,130.5 Z"/></g>
<g><path style="opacity:1" fill="#e7edde" d="M 197.5,155.5 C 204.695,156.534 207.195,160.534 205,167.5C 203.019,169.657 200.686,171.324 198,172.5C 197.501,166.843 197.334,161.176 197.5,155.5 Z"/></g>
<g><path style="opacity:1" fill="#699737" d="M 216.5,319.5 C 215.527,321.948 215.194,324.615 215.5,327.5C 210.167,327.5 204.833,327.5 199.5,327.5C 199.5,329.833 199.5,332.167 199.5,334.5C 196.911,304.514 208.577,281.681 234.5,266C 268.221,250.342 297.721,256.176 323,283.5C 331.932,293.462 336.432,305.129 336.5,318.5C 340.514,318.334 344.514,318.501 348.5,319C 343.147,328.849 336.48,337.683 328.5,345.5C 321.481,337.143 314.815,328.476 308.5,319.5C 312.107,318.511 315.774,318.177 319.5,318.5C 315.908,297.406 303.908,283.573 283.5,277C 266.306,271.533 250.639,274.2 236.5,285C 225.283,293.944 218.616,305.444 216.5,319.5 Z"/></g>
<g><path style="opacity:1" fill="#58c1cc" d="M 184.5,327.5 C 179.167,327.5 173.833,327.5 168.5,327.5C 168.802,330.059 168.468,332.393 167.5,334.5C 166.366,291.535 144.366,272.035 101.5,276C 91.0191,279.743 82.0191,285.743 74.5,294C 68.5092,294.499 62.5092,294.666 56.5,294.5C 56.7492,290.386 58.2492,286.72 61,283.5C 84.981,257.05 113.481,250.883 146.5,265C 171.275,278.371 183.942,299.204 184.5,327.5 Z"/></g>
<g><path style="opacity:1" fill="#c4a237" d="M 147.5,311.5 C 138.369,315.842 129.035,316.509 119.5,313.5C 116.78,309.39 117.78,306.224 122.5,304C 128.833,303.333 135.167,303.333 141.5,304C 143.333,305.167 145.167,306.333 147,307.5C 147.49,308.793 147.657,310.127 147.5,311.5 Z"/></g>
<g><path style="opacity:1" fill="#264a6f" d="M 167.5,334.5 C 168.468,332.393 168.802,330.059 168.5,327.5C 173.833,327.5 179.167,327.5 184.5,327.5C 182.156,363.677 163.49,386.51 128.5,396C 96.5381,399.931 72.0381,388.431 55,361.5C 50.8005,353.663 48.3005,345.33 47.5,336.5C 43.4862,336.666 39.4862,336.499 35.5,336C 40.813,326.345 47.313,317.512 55,309.5C 56.9552,310.453 58.6218,311.787 60,313.5C 65.6983,320.924 70.865,328.591 75.5,336.5C 71.4862,336.334 67.4862,336.501 63.5,337C 75.1389,372.49 99.1389,385.49 135.5,376C 152.781,367.225 163.447,353.391 167.5,334.5 Z"/></g>
<g><path style="opacity:1" fill="#75a543" d="M 281.5,295.5 C 286.167,295.5 290.833,295.5 295.5,295.5C 295.5,300.167 295.5,304.833 295.5,309.5C 294.167,309.5 292.833,309.5 291.5,309.5C 291.657,308.127 291.49,306.793 291,305.5C 284.029,310.748 277.529,316.581 271.5,323C 269.833,323.667 268.167,323.667 266.5,323C 263.597,320.428 260.431,318.261 257,316.5C 252.545,319.952 248.378,323.786 244.5,328C 238.329,329.15 237.162,327.317 241,322.5C 245.199,317.966 249.699,313.799 254.5,310C 256.167,309.333 257.833,309.333 259.5,310C 262.333,312.167 265.167,314.333 268,316.5C 273.781,312.02 279.281,307.186 284.5,302C 281.855,300.713 280.855,298.547 281.5,295.5 Z"/></g>
<g><path style="opacity:1" fill="#f1ebd6" d="M 147.5,311.5 C 146.766,312.708 146.433,314.041 146.5,315.5C 146.047,316.458 145.381,317.292 144.5,318C 135.149,320.499 126.149,319.666 117.5,315.5C 118.167,314.833 118.833,314.167 119.5,313.5C 129.035,316.509 138.369,315.842 147.5,311.5 Z"/></g>
<g><path style="opacity:1" fill="#c3a237" d="M 114.5,321.5 C 114.102,326.4 111.435,329.233 106.5,330C 101.167,330.667 95.8333,330.667 90.5,330C 88.3083,329.074 86.3083,327.907 84.5,326.5C 84.2673,321.552 86.6006,318.385 91.5,317C 99.8953,315.303 107.562,316.803 114.5,321.5 Z"/></g>
<g><path style="opacity:1" fill="#cdb053" d="M 117.5,315.5 C 126.149,319.666 135.149,320.499 144.5,318C 145.381,317.292 146.047,316.458 146.5,315.5C 147.742,317.389 147.742,319.389 146.5,321.5C 136.971,325.812 127.638,325.479 118.5,320.5C 117.549,319.081 117.216,317.415 117.5,315.5 Z"/></g>
<g><path style="opacity:1" fill="#669737" d="M 282.5,316.5 C 286.833,316.5 291.167,316.5 295.5,316.5C 295.5,328.833 295.5,341.167 295.5,353.5C 291.167,353.5 286.833,353.5 282.5,353.5C 282.5,341.167 282.5,328.833 282.5,316.5 Z"/></g>
<g><path style="opacity:1" fill="#f4edd6" d="M 118.5,320.5 C 127.638,325.479 136.971,325.812 146.5,321.5C 146.557,322.609 146.89,323.609 147.5,324.5C 143.459,327.021 138.959,328.021 134,327.5C 128.226,328.269 123.059,326.936 118.5,323.5C 116.514,327.668 117.848,330.168 122.5,331C 126.5,331.5 130.5,332 134.5,332.5C 138.624,331.901 142.624,330.901 146.5,329.5C 146.833,330.833 147.167,332.167 147.5,333.5C 140.41,336.188 133.077,337.021 125.5,336C 123.083,334.374 120.583,332.874 118,331.5C 117.506,333.134 117.34,334.801 117.5,336.5C 115.632,335.326 114.632,335.993 114.5,338.5C 111.484,338.841 108.818,340.007 106.5,342C 101.5,342.667 96.5,342.667 91.5,342C 89.0904,341.4 87.0904,340.234 85.5,338.5C 86.1157,337.798 86.1157,336.798 85.5,335.5C 94.9386,338.41 104.272,338.077 113.5,334.5C 114.904,332.453 114.571,330.786 112.5,329.5C 107.813,331.931 102.813,332.931 97.5,332.5C 93.1418,332.698 88.9751,332.032 85,330.5C 84.5357,331.094 84.369,331.761 84.5,332.5C 83.4271,330.653 83.4271,328.653 84.5,326.5C 86.3083,327.907 88.3083,329.074 90.5,330C 95.8333,330.667 101.167,330.667 106.5,330C 111.435,329.233 114.102,326.4 114.5,321.5C 116.456,323.175 117.789,322.842 118.5,320.5 Z"/></g>
<g><path style="opacity:1" fill="#ccae4f" d="M 147.5,324.5 C 147.634,326.292 147.301,327.958 146.5,329.5C 142.624,330.901 138.624,331.901 134.5,332.5C 130.5,332 126.5,331.5 122.5,331C 117.848,330.168 116.514,327.668 118.5,323.5C 123.059,326.936 128.226,328.269 134,327.5C 138.959,328.021 143.459,327.021 147.5,324.5 Z"/></g>
<g><path style="opacity:1" fill="#5ac1ca" d="M 216.5,319.5 C 214.907,339.132 221.241,355.632 235.5,369C 255.658,382.303 276.325,382.97 297.5,371C 301.518,367.979 305.184,364.646 308.5,361C 314.777,359.216 321.111,359.049 327.5,360.5C 318.254,380.493 302.587,392.327 280.5,396C 243.619,400.07 217.785,385.236 203,351.5C 200.872,346.025 199.705,340.358 199.5,334.5C 199.5,332.167 199.5,329.833 199.5,327.5C 204.833,327.5 210.167,327.5 215.5,327.5C 215.194,324.615 215.527,321.948 216.5,319.5 Z"/></g>
<g><path style="opacity:1" fill="#6e9d42" d="M 260.5,328.5 C 265.167,328.5 269.833,328.5 274.5,328.5C 274.5,336.833 274.5,345.167 274.5,353.5C 269.833,353.5 265.167,353.5 260.5,353.5C 260.5,345.167 260.5,336.833 260.5,328.5 Z"/></g>
<g><path style="opacity:1" fill="#cbad4d" d="M 147.5,333.5 C 147.5,334.833 147.5,336.167 147.5,337.5C 138.64,340.032 129.64,340.699 120.5,339.5C 119.833,338.167 118.833,337.167 117.5,336.5C 117.34,334.801 117.506,333.134 118,331.5C 120.583,332.874 123.083,334.374 125.5,336C 133.077,337.021 140.41,336.188 147.5,333.5 Z"/></g>
<g><path style="opacity:1" fill="#c7a746" d="M 85.5,335.5 C 85.4431,334.391 85.1098,333.391 84.5,332.5C 84.369,331.761 84.5357,331.094 85,330.5C 88.9751,332.032 93.1418,332.698 97.5,332.5C 102.813,332.931 107.813,331.931 112.5,329.5C 114.571,330.786 114.904,332.453 113.5,334.5C 104.272,338.077 94.9386,338.41 85.5,335.5 Z"/></g>
<g><path style="opacity:1" fill="#68973c" d="M 239.5,333.5 C 243.833,333.5 248.167,333.5 252.5,333.5C 252.5,340.167 252.5,346.833 252.5,353.5C 248.167,353.5 243.833,353.5 239.5,353.5C 239.5,346.833 239.5,340.167 239.5,333.5 Z"/></g>
<g><path style="opacity:1" fill="#c4a543" d="M 84.5,338.5 C 84.8333,338.5 85.1667,338.5 85.5,338.5C 87.0904,340.234 89.0904,341.4 91.5,342C 96.5,342.667 101.5,342.667 106.5,342C 108.818,340.007 111.484,338.841 114.5,338.5C 114.5,339.5 114.5,340.5 114.5,341.5C 112.825,343.002 110.992,344.335 109,345.5C 107.23,344.724 105.397,344.89 103.5,346C 97.1971,347.143 91.1971,346.31 85.5,343.5C 84.5481,341.955 84.2148,340.288 84.5,338.5 Z"/></g>
<g><path style="opacity:1" fill="#f5f2dd" d="M 147.5,337.5 C 147.5,339.167 147.5,340.833 147.5,342.5C 144.598,343.578 141.598,344.244 138.5,344.5C 133.496,344.111 128.496,343.611 123.5,343C 121.934,342.392 120.6,341.558 119.5,340.5C 120.167,340.5 120.5,340.167 120.5,339.5C 129.64,340.699 138.64,340.032 147.5,337.5 Z"/></g>
<g><path style="opacity:1" fill="#c4a53e" d="M 147.5,342.5 C 145.766,347.55 142.099,349.883 136.5,349.5C 133.002,350.045 130.002,349.212 127.5,347C 131.28,346.082 134.946,345.249 138.5,344.5C 141.598,344.244 144.598,343.578 147.5,342.5 Z"/></g>
<g><path style="opacity:1" fill="#f3ebd0" d="M 84.5,338.5 C 84.2148,340.288 84.5481,341.955 85.5,343.5C 91.1971,346.31 97.1971,347.143 103.5,346C 105.397,344.89 107.23,344.724 109,345.5C 110.992,344.335 112.825,343.002 114.5,341.5C 114.81,344.713 114.477,347.713 113.5,350.5C 113.291,349.078 112.791,347.745 112,346.5C 108.521,349.863 104.354,351.197 99.5,350.5C 94.1759,350.891 89.3426,349.558 85,346.5C 84.5172,347.448 84.3505,348.448 84.5,349.5C 83.1667,345.833 83.1667,342.167 84.5,338.5 Z"/></g>
<g><path style="opacity:1" fill="#d2b966" d="M 119.5,340.5 C 120.6,341.558 121.934,342.392 123.5,343C 128.496,343.611 133.496,344.111 138.5,344.5C 134.946,345.249 131.28,346.082 127.5,347C 130.002,349.212 133.002,350.045 136.5,349.5C 131.118,351.026 125.784,350.526 120.5,348C 117.174,345.627 116.841,343.127 119.5,340.5 Z"/></g>
<g><path style="opacity:1" fill="#c9ab48" d="M 113.5,350.5 C 111.88,352.984 109.547,354.484 106.5,355C 100.833,355.667 95.1667,355.667 89.5,355C 86.293,354.428 84.6263,352.595 84.5,349.5C 84.3505,348.448 84.5172,347.448 85,346.5C 89.3426,349.558 94.1759,350.891 99.5,350.5C 104.354,351.197 108.521,349.863 112,346.5C 112.791,347.745 113.291,349.078 113.5,350.5 Z"/></g>
</svg>
