<?xml version="1.0" encoding="UTF-8"?>
<svg version="1.1" xmlns="http://www.w3.org/2000/svg" width="1024" height="1024">
<path d="M0 0 C337.92 0 675.84 0 1024 0 C1024 337.92 1024 675.84 1024 1024 C686.08 1024 348.16 1024 0 1024 C0 686.08 0 348.16 0 0 Z " fill="#FDFEFE" transform="translate(0,0)"/>
<path d="M0 0 C0.91669684 -0.00384115 1.83339369 -0.00768229 2.77786922 -0.01163983 C4.28309312 -0.01034011 4.28309312 -0.01034011 5.81872559 -0.00901413 C6.88765077 -0.01198525 7.95657595 -0.01495637 9.0578928 -0.01801753 C12.65200638 -0.02671277 16.24608668 -0.0282135 19.84020996 -0.02970505 C22.41243054 -0.03433274 24.98465042 -0.03935733 27.55686951 -0.04475021 C34.55514733 -0.05832911 41.55341942 -0.06435808 48.55170822 -0.06876087 C52.9244982 -0.07152507 57.29728597 -0.07576285 61.67007446 -0.08026505 C73.78456992 -0.09245907 85.89906361 -0.10275686 98.01356506 -0.10614014 C98.78888759 -0.1063597 99.56421012 -0.10657927 100.36302727 -0.10680549 C101.52875739 -0.10713291 101.52875739 -0.10713291 102.71803761 -0.10746694 C104.29277865 -0.1079104 105.8675197 -0.10835696 107.44226074 -0.10880661 C108.2233827 -0.10902804 109.00450465 -0.10924947 109.80929697 -0.10947761 C122.45272159 -0.11342156 135.09608843 -0.13086266 147.73949075 -0.15416613 C160.73030018 -0.17791587 173.72108067 -0.1903437 186.71191216 -0.19150805 C194.00161764 -0.19242299 201.29124792 -0.19812904 208.58093262 -0.21632767 C215.44275214 -0.23339794 222.30442709 -0.2349542 229.16626167 -0.22618866 C231.68004297 -0.22541927 234.19383199 -0.22974803 236.70759392 -0.23964691 C240.14967256 -0.25240247 243.59124942 -0.24646952 247.0333252 -0.23606491 C248.51178043 -0.24814952 248.51178043 -0.24814952 250.02010345 -0.26047826 C264.77370221 -0.15677925 277.43147489 4.48837778 288.11364746 14.70174026 C303.40335037 30.71216991 303.18212248 49.27598422 303.07292426 70.20137286 C303.05941316 73.85109311 303.07503597 77.50071442 303.08674622 81.15042496 C303.10502592 88.27915616 303.09667571 95.40761137 303.07865799 102.53633368 C303.06457306 108.33531922 303.06075178 114.13423035 303.06410027 119.93323135 C303.06457771 120.76182768 303.06505515 121.59042401 303.06554706 122.44412932 C303.0665735 124.12795009 303.06762886 125.81177084 303.06871282 127.49559158 C303.07726033 142.35065824 303.06066849 157.20559255 303.03088379 172.06062698 C303.00205117 186.44121738 302.99496539 200.82161717 303.01037598 215.20222855 C303.02717611 230.90078756 303.03113358 246.59925628 303.01366562 262.29781771 C303.01182143 263.97508652 303.0099867 265.65235534 303.00816154 267.32962418 C303.00724946 268.15465017 303.00633737 268.97967616 303.00539764 269.82970294 C302.9998159 275.614757 303.00307725 281.39976665 303.0097065 287.18481827 C303.01747639 294.24486162 303.0105566 301.30471809 302.98553146 308.36472404 C302.97312048 311.9597335 302.96678622 315.55445328 302.97807312 319.14947319 C303.08990177 358.7526433 303.08990177 358.7526433 288.37145996 374.81892776 C272.34646481 389.9849617 253.11054896 389.57769553 232.42077637 389.5354805 C229.89150187 389.54118966 227.36222994 389.54815603 224.83296204 389.55627823 C218.70083734 389.57231102 212.56885151 389.57432254 206.43671228 389.56906532 C201.44762895 389.56500777 196.45857578 389.56648589 191.46949387 389.57181358 C190.40040434 389.57293622 190.40040434 389.57293622 189.30971705 389.57408153 C187.86135996 389.57561316 186.41300287 389.57715151 184.96464579 389.5786965 C171.4122456 389.59239338 157.8599033 389.5870037 144.30750446 389.57551128 C131.93824194 389.56558195 119.56912907 389.57851937 107.19988962 389.60244548 C94.46528036 389.62689066 81.73074064 389.63643107 68.99610841 389.62979275 C61.86013013 389.62631252 54.72426683 389.628453 47.58830643 389.64604378 C40.87567538 389.66238736 34.16337422 389.65750028 27.45073509 389.63873863 C24.99626277 389.63506697 22.5417691 389.63811937 20.08731651 389.64862442 C-0.85860189 389.73138484 -17.61039529 388.07922455 -33.59729004 373.19002151 C-41.44972308 364.97924332 -45.68592654 353.12175048 -45.69467449 341.83326244 C-45.69789894 340.77872212 -45.70112338 339.7241818 -45.70444554 338.63768572 C-45.70289694 337.48536897 -45.70134834 336.33305223 -45.69975281 335.1458168 C-45.70201836 333.91677866 -45.70428392 332.68774051 -45.70661813 331.42145878 C-45.71185467 328.01263014 -45.71260277 324.60385424 -45.71142375 321.19502532 C-45.71121969 317.5172722 -45.71673921 313.83952695 -45.72148132 310.1617775 C-45.72978816 302.95610508 -45.73253621 295.75044084 -45.7330937 288.54476403 C-45.73356901 282.68495409 -45.7356245 276.82514684 -45.73879433 270.96533775 C-45.74760232 254.3437315 -45.75221368 237.72213171 -45.75146385 221.10052311 C-45.7514239 220.20443014 -45.75138394 219.30833717 -45.75134277 218.38508987 C-45.75130189 217.48789945 -45.75126101 216.59070902 -45.75121889 215.666331 C-45.75081276 201.13799303 -45.76037358 186.60968102 -45.77448114 172.08135056 C-45.78885959 157.15592869 -45.79575046 142.23051946 -45.79488736 127.30509049 C-45.79455582 118.92889279 -45.79728405 110.55272228 -45.80806541 102.17653084 C-45.81718992 95.04187562 -45.81932982 87.9072599 -45.81255599 80.77260136 C-45.80930012 77.13569878 -45.80920009 73.49887191 -45.81790924 69.86197662 C-45.82727523 65.9099245 -45.82097355 61.95798179 -45.8132782 58.00592422 C-45.81842176 56.86922254 -45.82356532 55.73252085 -45.82886475 54.56137365 C-45.75925826 38.32376159 -42.45189223 25.3054592 -30.98400879 13.31892776 C-22.89875058 6.00431613 -11.08595983 0.01747185 0 0 Z " fill="#FDFDFD" transform="translate(383.5660400390625,249.86857223510742)"/>
<path d="M0 0 C0.91771344 -0.00445784 1.83542689 -0.00891569 2.78094983 -0.01350862 C3.7855949 -0.01332426 4.79023997 -0.01313989 5.82532883 -0.01294994 C7.43060853 -0.01846498 7.43060853 -0.01846498 9.06831813 -0.02409142 C12.66691229 -0.03513495 16.26547758 -0.03897333 19.86408615 -0.04278088 C22.43966895 -0.04904524 25.01525085 -0.05569202 27.59083176 -0.0626936 C35.33124286 -0.08244768 43.07165526 -0.09252536 50.81208527 -0.10142139 C54.46207713 -0.10580823 58.11206754 -0.11117421 61.76205826 -0.11641026 C73.90571033 -0.13342563 86.04936152 -0.14791617 98.19302368 -0.155159 C101.34379452 -0.15706875 104.49456534 -0.15898909 107.64533615 -0.16094494 C108.81993114 -0.16167055 108.81993114 -0.16167055 110.01825532 -0.16241082 C122.68162925 -0.17069744 135.34490829 -0.19600976 148.00824085 -0.22852562 C161.02618948 -0.26167767 174.04409006 -0.27961531 187.0620811 -0.28280324 C194.364238 -0.28496141 201.66625676 -0.29360724 208.96837234 -0.31926441 C215.84664924 -0.34337696 222.72467486 -0.34674618 229.60298538 -0.33650303 C232.11831615 -0.33600942 234.63365942 -0.34227764 237.14895248 -0.35605907 C258.79408531 -0.46795097 277.67193303 1.09207945 294.26545334 16.72015858 C302.06905337 25.42525753 306.71118051 34.77546273 309.42951584 46.13422108 C309.6053403 46.74383501 309.78116476 47.35344895 309.96231723 47.98153603 C310.50487228 50.48143675 310.55744361 52.76046891 310.5609436 55.31936932 C310.56478475 56.37416859 310.56862589 57.42896785 310.57258344 58.51573074 C310.57171695 59.67348703 310.57085047 60.83124332 310.56995773 62.02408314 C310.57441442 63.87036735 310.57441442 63.87036735 310.57896113 65.75395024 C310.58614244 69.17257653 310.58882054 72.59115256 310.5895586 76.00978279 C310.59140981 79.69645532 310.59895773 83.38311697 310.60569382 87.06978321 C310.61927776 95.13427725 310.62530259 103.19876632 310.62970448 111.2632699 C310.63246807 116.30209394 310.63670577 121.34091606 310.64120865 126.37973881 C310.65340381 140.33857763 310.66370107 154.29741493 310.66708374 168.25625896 C310.66730331 169.14978282 310.66752287 170.04330668 310.66774909 170.96390701 C310.66796737 171.85954742 310.66818565 172.75518783 310.66841054 173.67796886 C310.668854 175.49281335 310.66930057 177.30765784 310.66975021 179.12250233 C310.66997164 180.02272425 310.67019307 180.92294617 310.67042121 181.85044755 C310.67436461 196.4195424 310.69180349 210.98858709 310.71510974 225.55766259 C310.73886064 240.52600308 310.75128737 255.49431845 310.75245166 270.46267807 C310.75336658 278.86244539 310.75907219 287.26214743 310.77727127 295.66189671 C310.79272312 302.81885554 310.79776306 309.97572896 310.78953317 317.13270132 C310.78564392 320.78000782 310.78647089 324.42714258 310.80059052 328.0744276 C310.81580537 332.04119863 310.80741145 336.00773202 310.79700851 339.97452259 C310.80909312 341.6776962 310.80909312 341.6776962 310.82142186 343.41527736 C310.71769988 360.42792176 306.12147941 376.37706226 294.07014084 388.81781483 C280.82795419 400.43411169 266.38666965 405.28996958 248.8556633 405.27466297 C247.25795428 405.27911965 247.25795428 405.27911965 245.62796831 405.28366637 C242.05855431 405.29233839 238.48917391 405.29386037 234.91975021 405.29535389 C232.36033176 405.29998319 229.800914 405.30500801 227.24149704 405.31039906 C220.28658841 405.32351597 213.33169082 405.33000393 206.37677193 405.33440971 C202.02908202 405.33717666 197.68139432 405.3414149 193.3337059 405.34591389 C181.28261327 405.35810495 169.2315224 405.36840371 157.18042374 405.37178898 C156.40964218 405.37200854 155.63886063 405.37222811 154.84472206 405.37245433 C154.07215072 405.37267261 153.29957938 405.37289089 152.50359678 405.37311578 C150.93821303 405.37355924 149.37282928 405.3740058 147.80744553 405.37445545 C147.03096981 405.37467688 146.2544941 405.37489831 145.45448881 405.37512645 C132.88690737 405.37907024 120.31938405 405.39651217 107.75182503 405.41981497 C94.83100339 405.44357817 81.91021084 405.45599313 68.98936701 405.4571569 C61.74210474 405.45807101 54.49491817 405.46375638 47.24767685 405.48197651 C40.4252216 405.49906882 33.60291174 405.5005931 26.78044128 405.4918375 C24.28362392 405.49106923 21.78679872 405.49538201 19.29000092 405.50529575 C-4.13622444 405.59281659 -21.70721804 403.39698852 -39.32048416 386.69672108 C-48.12153275 377.51037312 -53.67561347 364.46558718 -53.70749855 351.71949673 C-53.71257309 350.63893934 -53.71764764 349.55838195 -53.72287595 348.4450804 C-53.72337371 347.26368243 -53.72387147 346.08228446 -53.72438431 344.86508656 C-53.72876656 343.60549669 -53.73314882 342.34590682 -53.73766387 341.04814756 C-53.74960236 337.55391652 -53.7552715 334.05969928 -53.75984502 330.56545186 C-53.76581162 326.79561065 -53.77741895 323.02578583 -53.78813553 319.2559557 C-53.8126376 310.1514793 -53.82728463 301.04699748 -53.8401956 291.94249827 C-53.84390951 289.36920595 -53.84788259 286.79591417 -53.85194826 284.22262239 C-53.87718971 268.2296884 -53.89923452 252.2367535 -53.91167641 236.24380398 C-53.91460593 232.54077241 -53.91756761 228.83774086 -53.92058182 225.13470936 C-53.92170089 223.75421674 -53.92170089 223.75421674 -53.92284258 222.34583537 C-53.93548497 207.45088473 -53.96869412 192.55605375 -54.01038365 177.66115899 C-54.05287181 162.35490952 -54.07637948 147.04872119 -54.08159697 131.74241292 C-54.08500358 123.1542208 -54.09666966 114.5662156 -54.12969971 105.9780817 C-54.1577963 98.66084278 -54.1686577 91.34382913 -54.15750425 84.02654047 C-54.15234176 80.29797673 -54.15504527 76.56988398 -54.17996979 72.84138966 C-54.32200331 50.36428801 -52.96188289 32.88915046 -36.75798416 15.82172108 C-28.3366461 7.81891337 -19.72734702 4.08217265 -8.57048416 1.13422108 C-7.94529239 0.95627894 -7.32010062 0.7783368 -6.67596364 0.59500247 C-4.38908617 0.09452237 -2.34042258 0.00528685 0 0 Z M-34.57048416 25.13422108 C-44.25866302 37.84526194 -45.72016276 49.928966 -45.71765518 65.47386646 C-45.72133187 66.70476232 -45.72500856 67.93565817 -45.72879666 69.20385391 C-45.7378782 72.60396991 -45.74252315 76.00403783 -45.74518597 79.40416133 C-45.74910772 83.07779452 -45.7586844 86.75141398 -45.76739883 90.42503834 C-45.78710661 99.28650241 -45.79722044 108.14796753 -45.80612662 117.00944802 C-45.81051728 121.18830086 -45.81588192 125.36715244 -45.82111549 129.5460043 C-45.83811912 143.44581527 -45.85261317 157.34562548 -45.85986423 171.24544525 C-45.86177393 174.84761207 -45.8636943 178.44977889 -45.86565018 182.05194569 C-45.86613392 182.9471773 -45.86661766 183.84240891 -45.86711606 184.76476876 C-45.87541619 199.26640268 -45.90075671 213.76795411 -45.93323085 228.26955201 C-45.96633792 243.17586328 -45.98431613 258.08213265 -45.98750848 272.98848087 C-45.98966977 281.35073395 -45.99836301 289.71286659 -46.02396965 298.07508373 C-46.04572623 305.19612448 -46.05370263 312.31701548 -46.04400287 319.4380857 C-46.03947299 323.06712144 -46.04126726 326.69584854 -46.06076431 330.3248415 C-46.08177538 334.26990633 -46.07136349 338.2145513 -46.05823135 342.15965748 C-46.0692006 343.29139997 -46.08016985 344.42314246 -46.09147149 345.58918017 C-45.97959715 359.57769678 -41.4683136 372.69858601 -31.89470291 382.96234608 C-22.61128275 391.63727316 -9.75725131 397.23895696 3.04775429 397.26844215 C4.40211061 397.27512892 4.40211061 397.27512892 5.78382766 397.28195077 C6.76678727 397.28176641 7.74974687 397.28158205 8.76249313 397.2813921 C10.33948618 397.28690713 10.33948618 397.28690713 11.94833767 397.29253358 C15.47706216 397.30356108 19.00575718 397.30741273 22.53449631 397.31122303 C25.06258869 397.31748852 27.59068015 397.32413539 30.1187706 397.33113575 C37.71044687 397.35035621 45.30211797 397.36096428 52.89381236 397.36986354 C56.47419711 397.374252 60.05458039 397.37961747 63.63496399 397.38485241 C75.5470429 397.40186421 87.45912091 397.41635556 99.3712101 397.42360115 C102.46063234 397.42551087 105.55005457 397.42743122 108.63947678 397.42938709 C109.40728384 397.42987083 110.1750909 397.43035457 110.96616484 397.43085297 C123.38765685 397.43914274 135.80905224 397.46446202 148.23050211 397.49696777 C161.0010049 397.53011269 173.77145871 397.54805672 186.5420047 397.55124539 C193.70494653 397.55340394 200.86774756 397.56205566 208.03064728 397.58770657 C214.77597824 397.61180704 221.52101321 397.61519283 228.26639366 397.60494518 C230.73376876 397.60445134 233.20115657 397.61072674 235.66849327 397.62450123 C255.03629177 397.72652139 273.33737026 396.94567539 288.24201584 382.88422108 C303.65289963 366.29000156 303.0342405 346.45780337 302.96707356 325.06427598 C302.96000852 321.41455477 302.97613406 317.76491894 302.98907089 314.11522388 C303.01059436 306.98654144 303.01061432 299.85801935 303.00244535 292.72931516 C302.99611889 286.93033365 302.99730648 281.13139855 303.00371742 275.33241749 C303.00506991 274.089523 303.00506991 274.089523 303.00644971 272.82151952 C303.0083011 271.13769876 303.01016366 269.453878 303.01203727 267.77005726 C303.02857475 252.01912475 303.01993073 236.2682821 303.00305169 220.51735502 C302.98835445 206.13784802 303.00299065 191.75854997 303.03182185 177.37906986 C303.06128036 162.57530088 303.07216962 147.77162812 303.06263965 132.96783113 C303.06161721 131.29056233 303.0606226 129.61329351 303.05965614 127.93602467 C303.05894156 126.69848568 303.05894156 126.69848568 303.05821254 125.4359459 C303.05605713 119.65086998 303.06580555 113.86588611 303.08042717 108.08083057 C303.09802425 101.02076986 303.09772799 93.9609754 303.07507551 86.9009248 C303.06400041 83.30584539 303.06061557 79.71123379 303.07937622 76.11617565 C303.23661565 48.73052203 303.23661565 48.73052203 290.42951584 25.13422108 C289.61160568 24.1693578 289.61160568 24.1693578 288.77717209 23.18500233 C280.41674471 14.11639757 268.49928162 8.56139141 256.16637015 8.03821599 C253.37860539 7.99642015 250.59232398 7.98653483 247.80424118 7.98705006 C246.73360715 7.98337337 245.66297312 7.97969668 244.55989563 7.97590858 C240.97199723 7.96489465 237.38412782 7.96103178 233.79621506 7.95721912 C231.22369927 7.95095278 228.65118439 7.94430583 226.0786705 7.9373064 C218.35988006 7.91758428 210.64108839 7.90748191 202.92227906 7.89857861 C199.28273413 7.89418938 195.64319064 7.88882428 192.00364685 7.88358974 C179.8976503 7.86658292 167.79165462 7.85208961 155.68564796 7.844841 C152.54721068 7.84293128 149.40877341 7.84101092 146.27033615 7.83905506 C145.4903452 7.83857132 144.71035425 7.83808758 143.90672721 7.83758918 C131.27634409 7.82929192 118.64605577 7.80395772 106.01571403 7.77147438 C93.03388179 7.73836052 80.05209766 7.7203884 67.07022297 7.71719676 C59.78722633 7.71503584 52.50436801 7.70634841 45.22141266 7.68073559 C38.36774467 7.65668727 31.51432888 7.65322998 24.66062737 7.66349697 C22.15006496 7.66399193 19.63949022 7.65768334 17.12896538 7.64394093 C13.69124559 7.62618118 10.25441378 7.63334915 6.81669235 7.64647388 C5.83241977 7.63550464 4.84814718 7.62453539 3.83404815 7.61323375 C-10.91479318 7.74839853 -24.58295178 14.39944631 -34.57048416 25.13422108 Z " fill="#EDEFF1" transform="translate(383.57048416137695,241.86577892303467)"/>
<path d="M0 0 C3.67450445 1.28871147 6.31077182 3.26270854 9.24609375 5.73828125 C10.48761872 6.74821085 11.72984022 7.7572846 12.97265625 8.765625 C13.6265332 9.30171387 14.28041016 9.83780273 14.95410156 10.39013672 C18.46766437 13.24753201 22.0444478 16.02303977 25.62109375 18.80078125 C26.36133789 19.37683105 27.10158203 19.95288086 27.86425781 20.54638672 C33.86797146 25.20558516 39.92086072 29.7978241 45.99609375 34.36328125 C46.86314941 35.01586914 47.73020508 35.66845703 48.62353516 36.34082031 C49.42710449 36.94249023 50.23067383 37.54416016 51.05859375 38.1640625 C51.77144531 38.69813721 52.48429688 39.23221191 53.21875 39.7824707 C54.97395961 41.10451134 54.97395961 41.10451134 56.99609375 42.05078125 C56.99609375 33.80078125 56.99609375 25.55078125 56.99609375 17.05078125 C64.91609375 17.05078125 72.83609375 17.05078125 80.99609375 17.05078125 C80.99609375 31.90078125 80.99609375 46.75078125 80.99609375 62.05078125 C82.31609375 62.71078125 83.63609375 63.37078125 84.99609375 64.05078125 C86.93769068 65.47575444 88.85099726 66.93952538 90.74609375 68.42578125 C91.91598807 69.33680959 93.08659202 70.24692721 94.2578125 71.15625 C95.17699463 71.87047119 95.17699463 71.87047119 96.11474609 72.59912109 C99.23931034 75.0100553 102.39814919 77.37468736 105.55859375 79.73828125 C106.20731445 80.22377441 106.85603516 80.70926758 107.52441406 81.20947266 C108.9121216 82.24775982 110.29998586 83.28583755 111.68798828 84.32373047 C116.12709626 87.64531391 120.56112768 90.97367089 124.99609375 94.30078125 C126.72524166 95.59768125 128.45440671 96.89455842 130.18359375 98.19140625 C131.45442708 99.14453125 132.72526042 100.09765625 133.99609375 101.05078125 C133.4589387 104.73850373 132.64375997 106.95097477 130.2734375 109.8203125 C129.73525391 110.48095703 129.19707031 111.14160156 128.64257812 111.82226562 C127.79663086 112.83256836 127.79663086 112.83256836 126.93359375 113.86328125 C126.36576172 114.55615234 125.79792969 115.24902344 125.21289062 115.96289062 C123.81534534 117.66578194 122.40971785 119.36123502 120.99609375 121.05078125 C116.79036817 120.17409159 113.84929615 118.05513371 110.43359375 115.55078125 C109.81081543 115.10009277 109.18803711 114.6494043 108.54638672 114.18505859 C103.87755872 110.774649 99.40538306 107.16356366 94.96484375 103.4609375 C90.74995371 100.0391123 86.39909431 96.81045733 82.04614258 93.56738281 C75.64254889 88.79634534 69.31422665 83.93440011 62.99609375 79.05078125 C60.8095618 77.36202307 58.62209198 75.67449054 56.43359375 73.98828125 C55.61955078 73.36107178 55.61955078 73.36107178 54.7890625 72.72119141 C51.31704143 70.05160686 47.82040669 67.41771072 44.30859375 64.80078125 C36.84008651 59.21915878 29.50743638 53.46359505 22.15429688 47.73144531 C18.01835382 44.51064984 13.87411815 41.30151524 9.70703125 38.12109375 C8.05519198 36.85960267 6.41206755 35.58644946 4.78515625 34.29296875 C1.75321542 31.73505566 1.75321542 31.73505566 -1.984375 31.28710938 C-4.12221714 32.0955197 -5.49882286 33.00227159 -7.25390625 34.45703125 C-7.85605957 34.94896973 -8.45821289 35.4409082 -9.07861328 35.94775391 C-10.0316333 36.74125244 -10.0316333 36.74125244 -11.00390625 37.55078125 C-12.35428609 38.65379323 -13.70586224 39.75534212 -15.05859375 40.85546875 C-16.06164551 41.67289551 -16.06164551 41.67289551 -17.08496094 42.50683594 C-20.6641707 45.38659708 -24.35961489 48.10421939 -28.046875 50.84375 C-31.20022287 53.19730555 -34.32523656 55.58590482 -37.44140625 57.98828125 C-37.98458496 58.40698486 -38.52776367 58.82568848 -39.08740234 59.25708008 C-40.18521938 60.10379547 -41.28287572 60.95071927 -42.38037109 61.79785156 C-45.00314366 63.82192206 -47.62845004 65.84269353 -50.25390625 67.86328125 C-50.78338867 68.2708667 -51.31287109 68.67845215 -51.85839844 69.09838867 C-54.89065617 71.43092914 -57.9274321 73.7574083 -60.96875 76.078125 C-68.36300797 81.72090649 -75.7346658 87.38942706 -83.06640625 93.11328125 C-90.07936534 98.58428213 -97.15133184 103.96766663 -104.29296875 109.26953125 C-106.73573509 111.08669561 -109.14318037 112.93868549 -111.52734375 114.83203125 C-112.07471191 115.26088623 -112.62208008 115.68974121 -113.18603516 116.1315918 C-114.64763194 117.27979419 -116.09960583 118.44021681 -117.55078125 119.6015625 C-120.00390625 121.05078125 -120.00390625 121.05078125 -121.98461914 120.83007812 C-124.34681178 119.91844484 -125.21842446 119.01492154 -126.765625 117.03125 C-127.24451172 116.42087891 -127.72339844 115.81050781 -128.21679688 115.18164062 C-128.70341797 114.54033203 -129.19003906 113.89902344 -129.69140625 113.23828125 C-130.18962891 112.60857422 -130.68785156 111.97886719 -131.20117188 111.33007812 C-133.59397983 108.23598589 -135.23576771 105.94577063 -136.00390625 102.05078125 C-130.47898234 96.93046035 -124.74898181 92.26270567 -118.69140625 87.7890625 C-114.00491013 84.32576303 -109.38415919 80.77618433 -104.75390625 77.23828125 C-98.38127715 72.37327742 -91.99239532 67.53256298 -85.56640625 62.73828125 C-80.10262834 58.65798831 -74.71211843 54.49681271 -69.36376953 50.26660156 C-62.63463394 44.95102202 -55.80649123 39.76570897 -48.98779297 34.56591797 C-46.15401862 32.40170389 -43.32871139 30.22669232 -40.50390625 28.05078125 C-38.91911828 26.83201797 -37.33432955 25.61325569 -35.74951172 24.39453125 C-34.50569105 23.43705028 -33.26260594 22.47861345 -32.02001953 21.51953125 C-27.72802553 18.20773991 -23.42278014 14.9145565 -19.09960938 11.64355469 C-17.7210792 10.59584606 -16.34721892 9.54195939 -14.97851562 8.48144531 C-13.10315019 7.02957965 -11.21240701 5.60053652 -9.31640625 4.17578125 C-8.48894897 3.52319336 -8.48894897 3.52319336 -7.64477539 2.85742188 C-4.98958287 0.89731661 -3.3277079 0.05625514 0 0 Z " fill="#244870" transform="translate(513.00390625,255.94921875)"/>
<path d="M0 0 C0 28.71 0 57.42 0 87 C52.8 87 105.6 87 160 87 C160 58.29 160 29.58 160 0 C164.31254384 1.72501754 166.49892628 2.99594144 169.9375 5.875 C176.43531497 11.33851527 176.43531497 11.33851527 184 15 C184.04626542 27.22152033 184.08183965 39.44301996 184.10362434 51.66460991 C184.11407795 57.33910075 184.12826583 63.01353184 184.15087891 68.68798828 C184.17255116 74.16037715 184.18455674 79.63270841 184.18975449 85.10513687 C184.19346037 87.19680819 184.20069663 89.28847623 184.21146011 91.38012314 C184.22590041 94.30149999 184.22798108 97.22263639 184.22705078 100.14404297 C184.23424133 101.01582184 184.24143188 101.88760071 184.24884033 102.78579712 C184.22810432 108.77189568 184.22810432 108.77189568 182 111 C179.33831979 111.19763145 176.78059025 111.26924905 174.1177063 111.25396729 C172.88206005 111.25864726 172.88206005 111.25864726 171.62145126 111.26342177 C168.84538161 111.27143536 166.06952853 111.26506507 163.29345703 111.25878906 C161.30952831 111.26149748 159.3256006 111.26505756 157.3416748 111.26940918 C151.94084554 111.27855444 146.54009238 111.27497983 141.13926172 111.26865101 C135.49566086 111.26360063 129.85206668 111.2682799 124.20846558 111.27142334 C114.72734401 111.2750664 105.24625356 111.27025562 95.76513672 111.26074219 C84.79635024 111.24986326 73.82763813 111.25337778 62.85885346 111.264395 C53.45245257 111.27346568 44.0460741 111.27475403 34.63967025 111.26951766 C29.01688981 111.26639595 23.39414433 111.265994 17.77136612 111.27259064 C12.48385379 111.27836006 7.19643748 111.27437455 1.90893555 111.26280212 C-0.03412847 111.26015311 -1.97720055 111.26092472 -3.92026138 111.26532745 C-6.56819707 111.27077496 -9.21582316 111.26395834 -11.86373901 111.25396729 C-12.63669496 111.25842873 -13.40965091 111.26289017 -14.20602977 111.26748681 C-17.95552765 111.23995848 -20.81862862 111.09916718 -24 109 C-24.32511503 97.04783619 -24.57349377 85.09673194 -24.72537041 73.14103889 C-24.79828712 67.5885256 -24.89707645 62.03904739 -25.05615234 56.48828125 C-25.20886175 51.12578698 -25.29209187 45.7662005 -25.3282814 40.40169907 C-25.35404962 38.3608407 -25.40437874 36.32013284 -25.48022079 34.28052139 C-26.03573508 18.71465873 -26.03573508 18.71465873 -22.63559723 14.18056488 C-18.87771443 10.61033282 -14.57767356 8.35833909 -10 6 C-8.38754762 4.83080745 -6.79478518 3.63224009 -5.25 2.375 C-2.2320442 0 -2.2320442 0 0 0 Z " fill="#669435" transform="translate(432,364)"/>
<path d="M0 0 C11.30809563 9.88601694 21.5729927 24.53365608 23.1796875 39.875 C23.1875 41.8125 23.1875 41.8125 22.9375 44.5625 C26.8975 44.5625 30.8575 44.5625 34.9375 44.5625 C33.1548065 49.01923376 31.17906855 52.13970559 28.25 55.8125 C27.35020911 56.95699092 26.45046983 58.10152241 25.55078125 59.24609375 C24.8868335 60.08503174 24.8868335 60.08503174 24.20947266 60.94091797 C21.85883562 63.93764181 19.59149476 66.99933875 17.3125 70.05078125 C16.85875 70.54964844 16.405 71.04851562 15.9375 71.5625 C15.2775 71.5625 14.6175 71.5625 13.9375 71.5625 C12.61230469 70.02124023 12.61230469 70.02124023 11.109375 67.87109375 C10.55636719 67.09056641 10.00335937 66.31003906 9.43359375 65.50585938 C8.85738281 64.67892578 8.28117188 63.85199219 7.6875 63 C4.44937806 58.38102375 1.25183919 53.83108108 -2.484375 49.59765625 C-5.0625 46.5625 -5.0625 46.5625 -5.0625 44.5625 C-1.4325 44.5625 2.1975 44.5625 5.9375 44.5625 C3.5014887 30.17843325 -2.08438545 19.22257728 -14.0625 10.5625 C-28.67264976 1.5901492 -43.16124906 -0.99633472 -60.22070312 1.93310547 C-63.86296591 2.90215711 -66.91327756 4.52883284 -70.0625 6.5625 C-71.00867188 7.15546875 -71.95484375 7.7484375 -72.9296875 8.359375 C-84.90277877 16.47122546 -93.35412443 27.13881455 -96.68310547 41.41821289 C-99.39365677 56.73788605 -96.56815076 71.37823381 -87.7734375 84.19921875 C-87.20882812 84.97910156 -86.64421875 85.75898437 -86.0625 86.5625 C-85.299375 87.635 -84.53625 88.7075 -83.75 89.8125 C-74.69061589 99.08256746 -62.45352515 105.55844279 -49.40258789 106.22460938 C-35.45707978 106.38007436 -22.02000745 102.43733052 -11.0625 93.5625 C-10.02750125 92.26114128 -9.00576659 90.94908101 -8 89.625 C-5.42627022 86.75676383 -3.34608775 86.33831905 0.3671875 86.125 C4.9060561 86.05295447 9.40939917 86.26062661 13.9375 86.5625 C13.15857326 90.12911538 11.93526695 92.14555882 9.625 95 C9.03074219 95.74121094 8.43648437 96.48242188 7.82421875 97.24609375 C7.20160156 98.01050781 6.57898438 98.77492188 5.9375 99.5625 C4.99003906 100.81933594 4.99003906 100.81933594 4.0234375 102.1015625 C-5.82234571 113.71737415 -22.10678544 121.15865963 -37.0625 122.5625 C-56.27391504 123.87139973 -73.88186784 119.85134471 -89.046875 107.33203125 C-99.19454949 98.42331701 -106.71847875 88.46292674 -111.0625 75.5625 C-111.3821875 74.61375 -111.701875 73.665 -112.03125 72.6875 C-117.01835799 54.95556047 -115.35044769 35.63782729 -106.5625 19.5 C-96.39391701 2.18246315 -80.78686465 -9.2790109 -61.65625 -15.1796875 C-39.44600344 -20.58418083 -17.61409136 -13.71609051 0 0 Z " fill="#679635" transform="translate(633.0625,507.4375)"/>
<path d="M0 0 C7.486875 -0.0825 14.97375 -0.165 22.6875 -0.25 C25.02287842 -0.28641602 27.35825684 -0.32283203 29.7644043 -0.36035156 C43.01320253 -0.48133689 55.70441769 -0.52849195 66.41796875 8.42578125 C71.67233506 13.65420007 74.22437225 19.36034376 74.32958984 26.72290039 C74.3239502 27.41246826 74.31831055 28.10203613 74.3125 28.8125 C74.30686035 29.52591553 74.3012207 30.23933105 74.29541016 30.97436523 C74.11063054 38.97385881 72.18241567 44.51244235 66.75 50.4609375 C63.03009645 53.73245982 58.64850029 55.4504999 54 57 C55.33697528 59.85901545 56.85326975 62.27134629 58.79296875 64.7578125 C59.33800049 65.46156006 59.88303223 66.16530762 60.44458008 66.89038086 C61.01974365 67.62780518 61.59490723 68.36522949 62.1875 69.125 C76 87.02232328 76 87.02232328 76 90 C59.48728515 91.81421486 59.48728515 91.81421486 54.15625 87.92578125 C51.82841321 84.74237759 49.86101862 81.4670563 48 78 C42.6794347 67.1911177 42.6794347 67.1911177 33.60644531 60.14941406 C27.85692245 59.14470601 22.96533335 59.61651428 17 60 C17 70.23 17 80.46 17 91 C11.39 91 5.78 91 0 91 C0 60.97 0 30.94 0 0 Z " fill="#63C1CC" transform="translate(487,689)"/>
<path d="M0 0 C7.90612095 6.57749897 12.96651765 13.56908041 14.0078125 24.03515625 C14.4728614 34.74271648 12.40568166 43.66321448 5.625 52.1875 C-0.9009509 58.83028378 -7.9708432 62.79322635 -17.375 63.1875 C-18.57640625 63.27386719 -19.7778125 63.36023438 -21.015625 63.44921875 C-31.51631672 64.0013523 -38.92242292 62.08050586 -47.4921875 55.58203125 C-54.02225749 49.68254742 -58.02513485 41.38385784 -58.61328125 32.6484375 C-58.83732645 24.4051889 -58.59092529 17.52241704 -54.375 10.1875 C-53.97410156 9.48238281 -53.57320312 8.77726563 -53.16015625 8.05078125 C-48.66253002 1.20656743 -41.33838836 -3.87523404 -33.5 -6.25 C-21.73420456 -8.38705264 -9.90572868 -7.01107552 0 0 Z " fill="#60C0CC" transform="translate(632.375,716.8125)"/>
<path d="M0 0 C10.48700278 -0.52266413 20.13215965 2.61283024 28.07421875 9.484375 C34.96051364 16.04060782 38.97916931 23.88085665 39.51611328 33.42724609 C39.67042205 42.23456528 37.85516222 48.77280181 32.8671875 56.19140625 C32.42246094 56.8771875 31.97773438 57.56296875 31.51953125 58.26953125 C27.24028326 64.00846442 20.43724797 67.91147523 13.59375 69.828125 C1.48460076 71.44152167 -9.87204803 71.59288126 -20.1328125 64.19140625 C-27.18581827 58.66998385 -30.70072409 51.69849662 -33.1328125 43.19140625 C-34.01255893 32.03932644 -33.27187618 22.15431832 -26.1328125 13.19140625 C-18.63984958 5.21831173 -10.89590584 0.9778377 0 0 Z " fill="#294B6F" transform="translate(313.1328125,709.80859375)"/>
<path d="M0 0 C0.75925781 0.3403125 1.51851562 0.680625 2.30078125 1.03125 C11.10428779 5.41080956 15.96441307 11.63622229 19.2734375 20.80078125 C19.51320313 21.52652344 19.75296875 22.25226562 20 23 C20.495 24.485 20.495 24.485 21 26 C22.04102263 36.90513869 19.93039818 46.4260292 13.5 55.375 C8.36201465 61.38383032 0.02599441 66.36665947 -7.98608398 67.20874023 C-21.34172525 67.7988296 -31.39113324 67.09083968 -41.875 57.875 C-49.92375051 48.7385805 -52.22036821 39.47786926 -51.58203125 27.578125 C-50.71958562 18.76846986 -46.43637866 11.37011117 -39.921875 5.4609375 C-28.22574349 -3.43002426 -13.65191628 -6.35211114 0 0 Z " fill="#61C0CC" transform="translate(708,713)"/>
<path d="M0 0 C2.95490059 2.51480901 4.85327776 4.77991663 7 8 C7.66 8 8.32 8 9 8 C10.051875 6.63875 10.051875 6.63875 11.125 5.25 C14.53609459 1.03414481 18.84353777 -1.43098502 24.20751953 -2.39794922 C26.48733629 -2.57017098 28.71428969 -2.60662849 31 -2.5625 C32.18855591 -2.54823975 32.18855591 -2.54823975 33.40112305 -2.53369141 C39.38651411 -2.31950738 43.66233474 -1.36073795 48 3 C48.928125 3.9075 49.85625 4.815 50.8125 5.75 C55.83906619 13.21804119 56.42903262 20.56077283 56.29296875 29.37890625 C56.28872391 30.43158188 56.28447906 31.48425751 56.28010559 32.5688324 C56.26343768 35.90032542 56.2258075 39.23119268 56.1875 42.5625 C56.17243781 44.83397558 56.1587521 47.10546073 56.14648438 49.37695312 C56.11357309 54.91820644 56.06187342 60.45899746 56 66 C50.72 66 45.44 66 40 66 C39.9906543 64.69853027 39.98130859 63.39706055 39.97167969 62.05615234 C39.93171953 57.21401105 39.86594343 52.37250107 39.79248047 47.53076172 C39.76430587 45.43774544 39.74307391 43.34462346 39.72900391 41.25146484 C39.70752606 38.23740663 39.66085012 35.22461463 39.609375 32.2109375 C39.60814636 31.27945892 39.60691772 30.34798035 39.60565186 29.38827515 C39.4765807 23.62509661 38.74891093 20.4366482 35 16 C31.18715653 12.63572635 27.35124283 12.42495925 22.44140625 12.5859375 C18.30116016 13.28812324 16.75336269 14.83363291 14 18 C11.70437144 23.21697703 11.65878472 28.17499877 11.5859375 33.7734375 C11.56657135 34.6971817 11.5472052 35.6209259 11.5272522 36.57266235 C11.46774295 39.50668264 11.42118605 42.44074276 11.375 45.375 C11.33679383 47.37111032 11.29774058 49.36720463 11.2578125 51.36328125 C11.16206504 56.24205651 11.07792861 61.12090891 11 66 C5.72 66 0.44 66 -5 66 C-5.0093457 64.70376709 -5.01869141 63.40753418 -5.02832031 62.07202148 C-5.06832288 57.24290144 -5.1341106 52.41441158 -5.20751953 47.58569336 C-5.23566962 45.49951296 -5.2569137 43.41322708 -5.27099609 41.3269043 C-5.29250802 38.32025385 -5.33920124 35.31486359 -5.390625 32.30859375 C-5.39185364 31.38227646 -5.39308228 30.45595917 -5.39434814 29.50157166 C-5.52855043 23.50979585 -6.51784236 19.91725831 -10 15 C-13.95126832 12.15195709 -18.32526582 12.62232848 -23 13 C-27.41858198 13.90380086 -29.37728223 16.18600117 -31.91928101 19.85476685 C-33.92754094 23.84117388 -33.72564703 27.92373083 -33.70703125 32.30859375 C-33.72215256 33.27531509 -33.73727386 34.24203644 -33.75285339 35.23805237 C-33.79560376 38.30477454 -33.8045563 41.37051 -33.8125 44.4375 C-33.8356541 46.52541663 -33.86102133 48.61330996 -33.88867188 50.70117188 C-33.95139943 55.800868 -33.98383352 60.89995234 -34 66 C-39.28 66 -44.56 66 -50 66 C-50 43.56 -50 21.12 -50 -2 C-44.72 -2 -39.44 -2 -34 -2 C-33.67 0.97 -33.34 3.94 -33 7 C-32.2575 6.236875 -31.515 5.47375 -30.75 4.6875 C-21.9625703 -3.90021539 -11.05457369 -5.33741821 0 0 Z " fill="#63C1CC" transform="translate(794,713)"/>
<path d="M0 0 C3.5223963 1.1741321 4.09232948 2.12435274 6.21484375 5.078125 C6.81876953 5.90957031 7.42269531 6.74101563 8.04492188 7.59765625 C8.98174805 8.91056641 8.98174805 8.91056641 9.9375 10.25 C11.17493053 11.96415611 12.41318914 13.6777148 13.65234375 15.390625 C14.52028564 16.5981543 14.52028564 16.5981543 15.40576172 17.83007812 C16.69772428 19.58857173 18.05975201 21.29544085 19.44140625 22.984375 C21 25 21 25 21 27 C17.04 27 13.08 27 9 27 C13.99757841 42.08738633 20.68518979 55.90331403 35.3203125 63.7890625 C48.19792426 69.86775619 63.88686728 72.13862718 77.7890625 67.71875 C90.13446821 62.92737629 99.08313724 55.18904271 106 44 C106.39960938 43.41605469 106.79921875 42.83210937 107.2109375 42.23046875 C111.8331483 35.08863176 112.82204844 26.24566089 114 18 C119.28 18 124.56 18 130 18 C130 32.82066861 126.26132215 44.75255188 118 57 C117.08927734 58.35544922 117.08927734 58.35544922 116.16015625 59.73828125 C106.31183741 73.12616499 89.68816325 84.01379937 73.20703125 86.59375 C57.99677167 88.26406483 43.76357454 87.11194738 30 80 C28.59621094 79.29423828 28.59621094 79.29423828 27.1640625 78.57421875 C15.17276197 72.116179 6.49830058 62.91072327 0 51 C-0.48339844 50.11570312 -0.96679688 49.23140625 -1.46484375 48.3203125 C-4.9571075 41.335785 -6.0849393 34.73642226 -7 27 C-10.96 27 -14.92 27 -19 27 C-17.46606994 23.16517486 -16.50595204 21.06086958 -14.1015625 17.96875 C-13.53953125 17.24042969 -12.9775 16.51210938 -12.3984375 15.76171875 C-11.81320312 15.01535156 -11.22796875 14.26898437 -10.625 13.5 C-10.0475 12.75363281 -9.47 12.00726562 -8.875 11.23828125 C-5.95007806 7.4652655 -2.99490347 3.71781121 0 0 Z " fill="#24486E" transform="translate(374,543)"/>
<path d="M0 0 C0.8461084 0.00491455 1.6922168 0.0098291 2.56396484 0.01489258 C15.94484873 0.26592898 25.96554291 5.36076266 35.75 14.3125 C35.20015228 18.18761727 33.47444669 19.90826506 30.6875 22.5625 C29.58728516 23.62210938 29.58728516 23.62210938 28.46484375 24.703125 C27.89894531 25.23421875 27.33304687 25.7653125 26.75 26.3125 C22.92225513 24.5112083 19.61044134 22.18560342 16.1640625 19.75 C8.84742069 15.39316475 1.0253433 15.50473025 -7.25 16.3125 C-15.87649391 18.69142603 -21.7183566 24.7355951 -26.41015625 32.14453125 C-29.75330896 39.28177356 -29.33841739 48.73130817 -27.55859375 56.22265625 C-26.63111149 58.73345551 -25.56209971 60.98125366 -24.25 63.3125 C-23.86070312 64.03050781 -23.47140625 64.74851562 -23.0703125 65.48828125 C-19.05030196 71.8037416 -13.26426644 75.01342578 -6.25 77.3125 C2.91817157 78.84604494 10.72606833 76.83912035 18.75 72.3125 C21.32408293 70.44956202 23.46907422 68.54158656 25.75 66.3125 C28.96524305 67.72094718 31.07183868 69.41594786 33.5 71.9375 C34.11359375 72.56914063 34.7271875 73.20078125 35.359375 73.8515625 C35.81828125 74.33367187 36.2771875 74.81578125 36.75 75.3125 C29.82727445 84.18778917 20.3963085 91.12202229 8.96435547 92.69604492 C6.06852922 92.84689518 3.21160623 92.86791381 0.3125 92.8125 C-0.70013916 92.80041504 -1.71277832 92.78833008 -2.75610352 92.77587891 C-13.91184686 92.47877655 -21.84265847 89.68012765 -30.25 82.3125 C-31.14138672 81.59513672 -31.14138672 81.59513672 -32.05078125 80.86328125 C-38.01186214 75.61594397 -43.91602672 66.42433588 -44.44140625 58.3828125 C-44.34666016 57.35800781 -44.34666016 57.35800781 -44.25 56.3125 C-44.91 56.3125 -45.57 56.3125 -46.25 56.3125 C-46.95592703 38.66432415 -44.42724292 25.97282234 -32.125 12.625 C-23.31967142 4.10275305 -12.09072502 -0.08232288 0 0 Z " fill="#294A6E" transform="translate(234.25,687.6875)"/>
<path d="M0 0 C2.97 0 5.94 0 9 0 C9.495 3.96 9.495 3.96 10 8 C10.78503906 8.10957031 11.57007813 8.21914063 12.37890625 8.33203125 C18.38199715 9.2380192 23.56153426 10.28076713 29 13 C28.71812064 14.79323253 28.4241719 16.58457126 28.125 18.375 C27.96257813 19.37273437 27.80015625 20.37046875 27.6328125 21.3984375 C27 24 27 24 25 26 C24.41992188 25.79503906 23.83984375 25.59007812 23.2421875 25.37890625 C22.46101562 25.10949219 21.67984375 24.84007812 20.875 24.5625 C20.10929688 24.29566406 19.34359375 24.02882813 18.5546875 23.75390625 C15.46555638 22.78603862 15.46555638 22.78603862 10 22 C10 27.94 10 33.88 10 40 C11.299375 40.37125 12.59875 40.7425 13.9375 41.125 C20.30755964 43.27514632 26.63998169 46.46220948 30.5625 52.125 C32.95763773 57.17149949 32.88925547 62.58174576 32 68 C29.52961697 74.73062848 25.77486498 79.06154643 19.32421875 82.171875 C15.84556875 83.41132677 12.6831972 83.79909833 9 84 C9 87.3 9 90.6 9 94 C6.03 94 3.06 94 0 94 C0 90.37 0 86.74 0 83 C-1.381875 83.103125 -2.76375 83.20625 -4.1875 83.3125 C-10.86905198 83.32207242 -17.21275327 81.31697399 -23 78 C-24.66327512 74.75731237 -23.76403151 71.71639098 -23.0625 68.25 C-22.77052734 66.77273438 -22.77052734 66.77273438 -22.47265625 65.265625 C-22.31667969 64.51796875 -22.16070312 63.7703125 -22 63 C-17.51748694 64.75085501 -13.17597125 66.74719976 -8.81640625 68.78125 C-5.94517559 70.02372429 -2.96798536 71.01067155 0 72 C0 65.4 0 58.8 0 52 C-1.98 51.67 -3.96 51.34 -6 51 C-12.10069943 48.55464336 -18.09695785 45.52916973 -21.25390625 39.5390625 C-23.10773751 33.23021267 -23.33617255 25.95507075 -21.21875 19.6875 C-18.04386407 14.60768251 -12.38433037 11.33265244 -7 9 C-4.42305357 8.56593987 -2.61685358 8.65867127 0 9 C0 6.03 0 3.06 0 0 Z " fill="#689538" transform="translate(508,334)"/>
<path d="M0 0 C1.41570092 1.18499411 2.81164241 2.39396952 4.1875 3.625 C4.93515625 4.27984375 5.6828125 4.9346875 6.453125 5.609375 C17.38315128 15.79586208 22.45233441 27.53396757 26.1875 41.625 C26.39375 42.33011719 26.6 43.03523437 26.8125 43.76171875 C27.59478904 47.6487174 27.23938975 51.68137899 27.1875 55.625 C21.9075 55.625 16.6275 55.625 11.1875 55.625 C11.1875 57.935 11.1875 60.245 11.1875 62.625 C10.8575 62.625 10.5275 62.625 10.1875 62.625 C10.12804199 61.7117395 10.12804199 61.7117395 10.06738281 60.7800293 C8.87949838 43.43593212 7.0512176 29.35673974 -5.8125 16.625 C-19.07724045 5.27863117 -34.32551448 2.21480327 -51.38037109 3.35009766 C-60.45892179 4.37624181 -67.99219119 8.73685185 -74.8125 14.625 C-75.38871094 15.08261719 -75.96492188 15.54023437 -76.55859375 16.01171875 C-79.14605915 18.0779681 -80.96018607 19.84652911 -82.8125 22.625 C-84.69189453 22.96557617 -84.69189453 22.96557617 -86.9453125 22.91796875 C-87.75097656 22.90830078 -88.55664062 22.89863281 -89.38671875 22.88867188 C-90.22847656 22.86353516 -91.07023437 22.83839844 -91.9375 22.8125 C-93.21173828 22.79219727 -93.21173828 22.79219727 -94.51171875 22.77148438 C-96.61224837 22.73608219 -98.71245293 22.68227401 -100.8125 22.625 C-100.8125 17.94632707 -99.37030321 16.01997824 -96.625 12.5 C-96.1801123 11.92886475 -95.73522461 11.35772949 -95.27685547 10.76928711 C-71.99640761 -17.88941605 -29.18825221 -21.86576385 0 0 Z " fill="#55C1CC" transform="translate(476.8125,505.375)"/>
<path d="M0 0 C5.28 0 10.56 0 16 0 C16.2475 1.918125 16.495 3.83625 16.75 5.8125 C18.50323151 16.96063413 22.15151497 25.06931525 29 34 C29.598125 34.886875 30.19625 35.77375 30.8125 36.6875 C39.49066808 45.86156339 52.01917923 52.01688109 64.65991211 52.66210938 C78.60542022 52.81757436 92.04249255 48.87483052 103 40 C104.03499875 38.69864128 105.05673341 37.38658101 106.0625 36.0625 C108.63622978 33.19426383 110.71641225 32.77581905 114.4296875 32.5625 C118.9685561 32.49045447 123.47189917 32.69812661 128 33 C127.22107326 36.56661538 125.99776695 38.58305882 123.6875 41.4375 C123.09324219 42.17871094 122.49898437 42.91992188 121.88671875 43.68359375 C121.26410156 44.44800781 120.64148438 45.21242188 120 46 C119.05253906 47.25683594 119.05253906 47.25683594 118.0859375 48.5390625 C108.24015429 60.15487415 91.95571456 67.59615963 77 69 C57.78858496 70.30889973 40.18063216 66.28884471 25.015625 53.76953125 C11.16185894 41.60721337 2.93444418 27.30534227 0 9 C-0.1947297 5.94359038 -0.15583791 3.06481214 0 0 Z " fill="#56C1CC" transform="translate(519,561)"/>
<path d="M0 0 C30.36 0 60.72 0 92 0 C92 30.69 92 61.38 92 93 C91.34 93 90.68 93 90 93 C89.84144531 91.93523437 89.68289063 90.87046875 89.51953125 89.7734375 C87.48463552 76.83078089 84.52146495 65.05609986 77.13671875 53.98828125 C76 52 76 52 76 49 C75.34 49 74.68 49 74 49 C72.81640625 47.64453125 72.81640625 47.64453125 71.5625 45.8125 C71.12035156 45.17183594 70.67820312 44.53117187 70.22265625 43.87109375 C69.26425007 42.40439548 68.36926972 40.896222 67.5 39.375 C65.99278908 36.79547205 65.99278908 36.79547205 63.3125 34.3125 C62.549375 33.549375 61.78625 32.78625 61 32 C61 31.34 61 30.68 61 30 C60.443125 29.7525 59.88625 29.505 59.3125 29.25 C56.57589087 27.77075182 54.32349131 26.06532561 52 24 C52 23.34 52 22.68 52 22 C51.01 22 50.02 22 49 22 C49 21.34 49 20.68 49 20 C48.26136719 19.72542969 47.52273438 19.45085938 46.76171875 19.16796875 C44.19147537 18.08097756 42.1282499 16.85211515 39.8125 15.3125 C35.04261159 12.39756819 30.12813109 10.27763201 24.9375 8.25 C24.19411377 7.95649658 23.45072754 7.66299316 22.68481445 7.3605957 C18.1951882 5.65174313 13.75986387 4.38640548 9.05126953 3.43310547 C5.98252009 2.78516908 3.00492305 1.89508346 0 1 C0 0.67 0 0.34 0 0 Z " fill="#45744F" transform="translate(932,0)"/>
<path d="M0 0 C0.66 0 1.32 0 2 0 C2 30.69 2 61.38 2 93 C-28.36 93 -58.72 93 -90 93 C-90 92.67 -90 92.34 -90 92 C-89.34257813 91.85304688 -88.68515625 91.70609375 -88.0078125 91.5546875 C-67.48268025 86.71542868 -50.4008244 79.40514163 -34 66 C-32.98421875 65.19046875 -31.9684375 64.3809375 -30.921875 63.546875 C-28.00299867 61.00261382 -25.61949127 58.38288017 -23.1875 55.375 C-22.41792969 54.43398438 -21.64835938 53.49296875 -20.85546875 52.5234375 C-18.85286277 50.0706245 -18.85286277 50.0706245 -18 47 C-17.34 47 -16.68 47 -16 47 C-15.62875 45.7315625 -15.62875 45.7315625 -15.25 44.4375 C-14.29742702 41.8179243 -13.38821862 39.79954362 -12 37.4375 C-10.3725222 34.64027254 -9.1012571 32.02845702 -8 29 C-7.34 29 -6.68 29 -6 29 C-5.731875 27.7625 -5.46375 26.525 -5.1875 25.25 C-4.35100934 21.45591736 -3.41233526 17.69826154 -2.4375 13.9375 C-1.25731694 9.2823335 -0.45935462 4.77728803 0 0 Z " fill="#43734F" transform="translate(1022,931)"/>
<path d="M0 0 C30.69 0 61.38 0 93 0 C93 0.33 93 0.66 93 1 C91.4840625 1.185625 91.4840625 1.185625 89.9375 1.375 C86.14395013 1.97715077 82.68046685 2.9138325 79 4 C77.90042969 4.309375 76.80085938 4.61875 75.66796875 4.9375 C64.27749439 8.41472674 53.15819178 13.60508222 43.60546875 20.8046875 C42 22 42 22 40 22 C40 22.66 40 23.32 40 24 C38.41324397 25.3182745 36.7780801 26.57841389 35.125 27.8125 C15.52631594 43.50153666 4.74377981 68.5233108 2 93 C1.34 93 0.68 93 0 93 C0 62.31 0 31.62 0 0 Z " fill="#46734F" transform="translate(0,0)"/>
<path d="M0 0 C0.66 0 1.32 0 2 0 C2.13535156 1.00675781 2.27070312 2.01351562 2.41015625 3.05078125 C4.99925869 20.59374534 10.74523843 35.5371847 21 50 C21.64582031 51.01449219 22.29164062 52.02898438 22.95703125 53.07421875 C27.03167988 58.90961421 32.4641042 63.1241228 37.97851562 67.51367188 C39.35463341 68.6333702 40.68205506 69.81237816 42 71 C42 71.66 42 72.32 42 73 C42.56589844 73.10828125 43.13179687 73.2165625 43.71484375 73.328125 C46.3477045 74.10223107 48.25137156 75.27270538 50.5625 76.75 C63.46102686 84.63243308 77.39114269 88.52546096 92 92 C92 92.33 92 92.66 92 93 C61.64 93 31.28 93 0 93 C0 62.31 0 31.62 0 0 Z " fill="#43724D" transform="translate(0,931)"/>
<path d="M0 0 C-0.53115106 4.51478398 -2.36620292 7.34666857 -5 11 C-11 9 -11 9 -13.015625 8.19921875 C-18.95957984 5.94350927 -24.65693001 5.1993174 -31 6 C-31.99 6.66 -32.98 7.32 -34 8 C-34.75045506 11.41456334 -34.75045506 11.41456334 -34 15 C-29.54738566 18.67824663 -25.14758442 20.00497104 -19.6875 21.375 C-11.49169968 23.61932889 -5.50851687 26.49148313 0.5625 32.5625 C3.07391813 38.56806509 3.29902684 45.25257696 1.15234375 51.4453125 C-1.98459112 57.03862688 -6.9750684 60.85630359 -13.14453125 62.609375 C-26.51316599 64.4381896 -38.83001922 64.06960208 -50.125 56.25 C-51.07375 55.5075 -52.0225 54.765 -53 54 C-52.39305845 50.84669446 -51.3583335 48.81111133 -49.4375 46.25 C-48.98246094 45.63640625 -48.52742188 45.0228125 -48.05859375 44.390625 C-47.53458984 43.70226562 -47.53458984 43.70226562 -47 43 C-46.43152344 43.33773437 -45.86304688 43.67546875 -45.27734375 44.0234375 C-36.42355536 49.13764582 -28.30689336 51.25299488 -18 50 C-15.58587492 48.85113628 -15.58587492 48.85113628 -14 47 C-13.66619186 43.37436186 -13.66619186 43.37436186 -14 40 C-18.19844505 37.69696947 -22.30853318 36.22593668 -26.87890625 34.90844727 C-43.86044485 30.00366602 -43.86044485 30.00366602 -49 21.8125 C-50.66062283 15.48137547 -51.26551848 9.62838454 -48.375 3.625 C-35.60208687 -10.4924303 -15.55649089 -10.25314172 0 0 Z " fill="#294C70" transform="translate(415,717)"/>
<path d="M0 0 C5.28 0 10.56 0 16 0 C16 6.27 16 12.54 16 19 C22.27 19 28.54 19 35 19 C35 23.62 35 28.24 35 33 C28.73 33 22.46 33 16 33 C16.07403144 38.05456011 16.15688304 43.10735995 16.26245117 48.16113281 C16.29567681 49.87978965 16.32371616 51.59855499 16.34643555 53.31738281 C16.38002561 55.79018323 16.43234178 58.26199156 16.48828125 60.734375 C16.49467117 61.50118591 16.5010611 62.26799683 16.50764465 63.05804443 C16.59516921 66.2436623 16.81660054 68.64600685 18.29370117 71.49707031 C20.68605488 73.60428586 22.84559329 73.36075597 25.92578125 73.20703125 C28.64668596 72.93545319 31.3189187 72.53621626 34 72 C34.13504138 73.93559313 34.23201129 75.873872 34.3125 77.8125 C34.37050781 78.89144531 34.42851562 79.97039062 34.48828125 81.08203125 C34 84 34 84 31.73046875 85.82421875 C25.03491554 88.7074255 18.21732365 88.59584881 11 88 C6.0134372 85.76464426 3.65839957 82.72604367 1 78 C0.13005594 75.20295737 -0.12254183 72.70355175 -0.11352539 69.78222656 C-0.11344986 68.96167786 -0.11337433 68.14112915 -0.11329651 67.29571533 C-0.10813522 66.41953552 -0.10297394 65.54335571 -0.09765625 64.640625 C-0.0962413 63.73624695 -0.09482635 62.8318689 -0.09336853 61.90008545 C-0.08777911 59.01668973 -0.07522853 56.13337218 -0.0625 53.25 C-0.05748363 51.29296987 -0.05292096 49.33593853 -0.04882812 47.37890625 C-0.03781313 42.58590747 -0.02055574 37.79296698 0 33 C-3.3 33 -6.6 33 -10 33 C-10 28.38 -10 23.76 -10 19 C-6.7 19 -3.4 19 0 19 C0 12.73 0 6.46 0 0 Z " fill="#2B4D71" transform="translate(436,692)"/>
<path d="M0 0 C0.763125 0.309375 1.52625 0.61875 2.3125 0.9375 C9.96654653 3.9635184 19.07463534 4.46890002 26.875 1.5 C27.90625 1.005 28.9375 0.51 30 0 C30.20086443 3.71599191 30.1519437 4.77208445 28 8 C28.66 8 29.32 8 30 8 C30.25 10.3125 30.25 10.3125 30 13 C24.77509327 18.22490673 17.97900824 18.48504405 11 19 C13.04136395 19.05451714 15.08315856 19.09302485 17.125 19.125 C18.26195312 19.14820313 19.39890625 19.17140625 20.5703125 19.1953125 C24.05757767 18.99672109 26.7553862 18.2524801 30 17 C30 18.65 30 20.3 30 22 C22.43319729 26.65649398 15.73330595 27.12091054 7.04296875 25.421875 C2.19408042 24.11773908 2.19408042 24.11773908 0 23 C-0.495 21.515 -0.495 21.515 -1 20 C-3.21896136 21.82471891 -3.21896136 21.82471891 -3.375 24.4375 C-4 27 -4 27 -5.6875 28.6875 C-11.61392347 32.05114575 -17.29404818 32.72038661 -24 32 C-26.55915652 31.22990519 -28.60997397 30.24480522 -31 29 C-31.66 28.67 -32.32 28.34 -33 28 C-33 26.35 -33 24.7 -33 23 C-32.01 23 -31.02 23 -30 23 C-30.99 21.9171875 -30.99 21.9171875 -32 20.8125 C-34.1535853 17.78402067 -34.41176754 16.60296594 -34 13 C-33.34 12.67 -32.68 12.34 -32 12 C-32.33 11.67 -32.66 11.34 -33 11 C-33.375 8.6875 -33.375 8.6875 -33 6 C-27.72025878 0.86295449 -23.06179895 0.71781352 -16.01171875 0.77734375 C-10.11798099 1.21306755 -5.99546438 4.00272137 -1 7 C-0.34 7 0.32 7 1 7 C0.505 3.535 0.505 3.535 0 0 Z " fill="#F9F4E6" transform="translate(437,549)"/>
<path d="M0 0 C5.18440329 2.92851523 8.63454659 6.97450651 11.1875 12.3125 C12.60112145 19.38060725 12.38599805 25.00520351 8.8125 31.4375 C5.54420158 36.08446117 2.33802976 39.63107681 -3.1875 41.4375 C-9.25041626 42.14087754 -13.9586513 41.84233171 -19.1875 38.4375 C-20.05375 37.90125 -20.92 37.365 -21.8125 36.8125 C-26.91127598 31.71372402 -28.4548026 26.04985525 -28.8125 18.9375 C-28.59764499 12.37674887 -26.69475925 8.16961119 -22.1875 3.4375 C-15.79745401 -2.06376261 -7.74872972 -3.48692837 0 0 Z " fill="#F9FDFC" transform="translate(618.1875,725.5625)"/>
<path d="M0 0 C4.21134516 2.60539609 7.71603184 6.77190743 9.92578125 11.19140625 C10.07722689 13.78928154 10.15715106 16.34249446 10.17578125 18.94140625 C10.19640625 19.64523437 10.21703125 20.3490625 10.23828125 21.07421875 C10.27997205 26.6816309 9.15773392 30.76784744 5.2421875 35.01953125 C4.66339844 35.48875 4.08460938 35.95796875 3.48828125 36.44140625 C2.91207031 36.9209375 2.33585937 37.40046875 1.7421875 37.89453125 C-3.62942209 41.72974498 -8.58995617 42.17413617 -15.07421875 41.19140625 C-20.78535739 38.8051855 -25.27227453 34.88442103 -28.265625 29.45703125 C-30.88978737 22.10430576 -29.30986263 14.09504299 -26.07421875 7.19140625 C-20.06872978 -2.46027245 -10.04015997 -4.16495614 0 0 Z " fill="#F9FBFB" transform="translate(325.07421875,725.80859375)"/>
<path d="M0 0 C5.33445615 3.11341865 9.32120751 7.27127119 11.6640625 13.0390625 C12.49488513 20.88357386 12.7217152 28.61195307 7.6640625 35.0390625 C3.31539273 39.6736722 -0.9030288 41.84286019 -7.2109375 42.3515625 C-12.6966096 42.18626918 -16.77691531 40.30803405 -21.0234375 36.8515625 C-25.94282208 30.8685272 -28.12206584 25.70268849 -27.7734375 17.84765625 C-26.69997355 10.95640107 -23.76094 5.66873228 -18.2109375 1.4140625 C-12.40769516 -1.97518552 -6.26707631 -2.57809494 0 0 Z " fill="#FAFDFD" transform="translate(700.3359375,724.9609375)"/>
<path d="M0 0 C7.1775 -0.12375 7.1775 -0.12375 14.5 -0.25 C15.99337891 -0.28641602 17.48675781 -0.32283203 19.02539062 -0.36035156 C26.45890579 -0.42233084 31.81077214 -0.30818802 38 4 C40.99416931 7.36137875 42.22549219 11.61226864 42.5625 16.0625 C41.8553137 21.01280412 40.55079253 23.55391295 37 27 C29.71024596 31.91389427 21.91019415 31.47360354 13.4375 31.25 C9.003125 31.1675 4.56875 31.085 0 31 C0 20.77 0 10.54 0 0 Z " fill="#F9FDFC" transform="translate(503,704)"/>
<path d="M0 0 C4.29 0 8.58 0 13 0 C13 12.21 13 24.42 13 37 C8.71 37 4.42 37 0 37 C0 24.79 0 12.58 0 0 Z " fill="#679738" transform="translate(602,550)"/>
<path d="M0 0 C4.62 0 9.24 0 14 0 C14 4.62 14 9.24 14 14 C12.68 14 11.36 14 10 14 C10 12.68 10 11.36 10 10 C4.02632011 13.64699159 -0.63432648 18.33177701 -5.52148438 23.30664062 C-10.31321163 27.9716284 -10.31321163 27.9716284 -13.7421875 28.11328125 C-16.8237222 26.5938394 -18.84872978 24.59041865 -21.25390625 22.1796875 C-22.90781758 20.83088367 -22.90781758 20.83088367 -24.875 20.96875 C-28.60969571 22.78117586 -31.13910944 26.14832835 -33.84570312 29.2265625 C-35.24609375 30.7265625 -35.24609375 30.7265625 -38 33 C-40.84765625 32.8359375 -40.84765625 32.8359375 -43 32 C-41.34460834 27.74327859 -38.26236271 25.00257093 -35.0625 21.875 C-34.52431641 21.33746094 -33.98613281 20.79992187 -33.43164062 20.24609375 C-27.11545355 14 -27.11545355 14 -23.75 14 C-19.75858127 15.45142499 -17.06005824 18.11631399 -14 21 C-11.05886531 19.66465724 -8.89154831 18.17535119 -6.546875 15.9609375 C-5.928125 15.38085938 -5.309375 14.80078125 -4.671875 14.203125 C-4.03765625 13.59984375 -3.4034375 12.9965625 -2.75 12.375 C-2.1003125 11.76398437 -1.450625 11.15296875 -0.78125 10.5234375 C0.81645063 9.01971926 2.40999149 7.51184263 4 6 C2.68 5.67 1.36 5.34 0 5 C0 3.35 0 1.7 0 0 Z " fill="#63982F" transform="translate(601,529)"/>
<path d="M0 0 C4.62 0 9.24 0 14 0 C14 8.25 14 16.5 14 25 C9.38 25 4.76 25 0 25 C0 16.75 0 8.5 0 0 Z " fill="#6F9D43" transform="translate(580,562)"/>
<path d="M0 0 C2.9375 1.625 2.9375 1.625 5.9375 3.625 C5.875 5.875 5.875 5.875 4.9375 8.625 C-0.56348827 13.47110871 -6.38970382 13.2004679 -13.50390625 13.03125 C-18.05606661 12.51157417 -20.4877296 11.4150647 -24.0625 8.625 C-24.375 6.375 -24.375 6.375 -24.0625 3.625 C-17.80218474 -2.46611755 -8.03143453 -3.40519066 0 0 Z " fill="#C3A135" transform="translate(428.0625,551.375)"/>
<path d="M0 0 C0.74701172 -0.03738281 1.49402344 -0.07476563 2.26367188 -0.11328125 C6.46938283 -0.17974551 8.93829241 0.15834124 12.23046875 2.8984375 C13.04128906 3.71570313 13.85210937 4.53296875 14.6875 5.375 C14.5 7.1875 14.5 7.1875 13.6875 9.375 C7.1156356 13.92475228 1.55576892 13.91828523 -6.3125 13.375 C-9.96437634 12.43768507 -12.61496944 11.07253056 -15.3125 8.375 C-15.0728518 5.89863527 -14.51119504 4.61885301 -12.9375 2.6875 C-9.1817212 -0.34601364 -4.58987587 0.08579207 0 0 Z " fill="#C3A134" transform="translate(452.3125,536.625)"/>
<path d="M0 0 C4.29 0 8.58 0 13 0 C13 6.6 13 13.2 13 20 C8.71 20 4.42 20 0 20 C0 13.4 0 6.8 0 0 Z " fill="#69973D" transform="translate(559,567)"/>
<path d="M0 0 C0.51046875 0.28875 1.0209375 0.5775 1.546875 0.875 C8.80631505 4.58194811 15.81801664 5.28085747 23.765625 3.31640625 C25.8859598 2.61962956 27.94605629 1.87137006 30 1 C30 2.65 30 4.3 30 6 C23.29993637 10.12311608 17.81384202 10.89031712 10 10 C6.10066882 9.03439275 2.89485674 7.89485674 0 5 C-0.125 2.375 -0.125 2.375 0 0 Z " fill="#C8A944" transform="translate(437,565)"/>
<path d="M0 0 C4.75 1.875 4.75 1.875 7 3 C9.76198762 3.12528003 12.48779681 3.18517882 15.25 3.1875 C16.00152344 3.19974609 16.75304687 3.21199219 17.52734375 3.22460938 C22.08361483 3.23653679 25.70947281 2.72850856 30 1 C29.9375 3.3125 29.9375 3.3125 29 6 C22.61805639 10.40658011 14.44894323 9.77678332 7 9 C4.11376275 7.96951962 2.43573717 6.90106316 0 5 C0 3.35 0 1.7 0 0 Z " fill="#C3A339" transform="translate(437,574)"/>
<path d="M0 0 C0.763125 0.309375 1.52625 0.61875 2.3125 0.9375 C9.96654653 3.9635184 19.07463534 4.46890002 26.875 1.5 C27.90625 1.005 28.9375 0.51 30 0 C30.3125 2.3125 30.3125 2.3125 30 5 C23.39608227 9.99755937 15.94597776 9.64354376 8 9 C4.83072298 8.06696485 3.56926312 7.21076129 1 5 C0.0625 2.25 0.0625 2.25 0 0 Z " fill="#CCAF4D" transform="translate(437,549)"/>
<path d="M0 0 C4.75 1.875 4.75 1.875 7 3 C9.94874168 3.1251687 12.86356546 3.18517983 15.8125 3.1875 C17.02389648 3.20586914 17.02389648 3.20586914 18.25976562 3.22460938 C22.62852255 3.23534342 26.02254059 3.04117085 30 1 C29.875 3.3125 29.875 3.3125 29 6 C24.42075656 8.94079854 20.32280623 9.49252901 15 9.4375 C14.31421875 9.45748047 13.6284375 9.47746094 12.921875 9.49804688 C7.82782877 9.49318614 4.87735459 8.25484353 1 5 C0.125 2.25 0.125 2.25 0 0 Z " fill="#CAAA47" transform="translate(437,557)"/>
<path d="M0 0 C0.82628906 0.48726562 1.65257812 0.97453125 2.50390625 1.4765625 C6.44227888 3.19272488 9.72537012 3.44672974 13.9375 3.375 C14.95360352 3.39240234 14.95360352 3.39240234 15.99023438 3.41015625 C21.08317537 3.38085841 24.52504021 2.20539088 29 0 C29.3125 2.3125 29.3125 2.3125 29 5 C24.25485378 8.59092147 20.01829896 9.175485 14.1875 9.25 C12.38345703 9.28867187 12.38345703 9.28867187 10.54296875 9.328125 C6.53532162 8.95696474 2.93020203 7.93020203 0 5 C-0.04063832 3.33382885 -0.042721 1.66611905 0 0 Z " fill="#CCAF4A" transform="translate(404,580)"/>
<path d="M0 0 C0.61746094 0.2165625 1.23492187 0.433125 1.87109375 0.65625 C12.23992104 4.06517952 19.64960615 3.25021713 30 0 C29.2109375 3.796875 29.2109375 3.796875 27.3125 5.625 C21.45143906 9.10995515 15.6906378 9.7187415 9 9 C6.44084348 8.22990519 4.39002603 7.24480522 2 6 C1.34 5.67 0.68 5.34 0 5 C0 3.35 0 1.7 0 0 Z " fill="#C2A13C" transform="translate(404,572)"/>
<path d="M0 0 C0.33 1.32 0.66 2.64 1 4 C-6.49508263 9.16327915 -12.01755154 9.59379166 -21 9 C-23.98055639 8.37741668 -25.40072815 7.71315645 -28 6 C-28.9375 3.3125 -28.9375 3.3125 -29 1 C-28.17371094 1.32355469 -27.34742188 1.64710938 -26.49609375 1.98046875 C-22.61799965 3.11139899 -19.06334243 3.33142546 -15.0625 3.3125 C-14.38509766 3.32861328 -13.70769531 3.34472656 -13.00976562 3.36132812 C-7.89427367 3.36623272 -4.49100716 2.21915478 0 0 Z " fill="#C8A949" transform="translate(433,563)"/>
<path d="M0 0 C0.33 0 0.66 0 1 0 C1 1.65 1 3.3 1 5 C8.10761773 7.88425067 15.07363084 9.66715542 22.5625 7.1328125 C24.76212358 6.16695214 26.88391267 5.13557273 29 4 C29.66 3.67 30.32 3.34 31 3 C31 6 31 9 31 12 C30.34 11.01 29.68 10.02 29 9 C28.17628906 9.48726562 27.35257812 9.97453125 26.50390625 10.4765625 C22.52799138 12.20522114 19.18901109 12.44645397 14.9375 12.375 C14.24333984 12.38660156 13.54917969 12.39820313 12.83398438 12.41015625 C8.37769404 12.38476428 5.58867497 11.64428682 2 9 C1.34 9.99 0.68 10.98 0 12 C0 8.04 0 4.08 0 0 Z " fill="#F5EFD2" transform="translate(403,572)"/>
<path d="M0 0 C2.18408203 0.35083008 2.18408203 0.35083008 4 1 C3.67 1.66 3.34 2.32 3 3 C4.65 3 6.3 3 8 3 C8 3.99 8 4.98 8 6 C7.29875 5.71125 6.5975 5.4225 5.875 5.125 C2.71235341 4.65649267 2.71235341 4.65649267 0.0625 7.5625 C-0.97375316 8.69440729 -1.99415827 9.84098441 -3 11 C-4.92581653 13.21908809 -6.7652314 15.05052101 -9 17 C-11.875 16.875 -11.875 16.875 -14 16 C-12.32357676 11.74685214 -9.2824091 8.87898186 -6.125 5.6875 C-5.59519531 5.12482422 -5.06539062 4.56214844 -4.51953125 3.98242188 C-2.9453125 2.38671875 -2.9453125 2.38671875 0 0 Z " fill="#78A742" transform="translate(572,545)"/>
<path d="M0 0 C4.69212285 0.13800361 7.03764599 2.53501324 10.25390625 5.625 C12.19786107 7.15581006 13.55075448 7.71035893 16 8 C17.58333333 6.58333333 17.58333333 6.58333333 19 5 C19.99 5 20.98 5 22 5 C20.43681592 8.83690637 18.2046685 11.39154889 15 14 C12.5 14.1875 12.5 14.1875 10 13 C8.06037003 11.11351058 6.6087073 9.20622716 5 7 C5 6.67 5 6.34 5 6 C3.35 5.67 1.7 5.34 0 5 C-0.5625 3.0625 -0.5625 3.0625 -1 1 C-0.67 0.67 -0.34 0.34 0 0 Z " fill="#74A243" transform="translate(575,543)"/>
<path d="M0 0 C0.33 1.32 0.66 2.64 1 4 C-4.1470027 8.52936238 -10.14734707 9.35434442 -16.78125 9.1953125 C-20.10600161 8.9026407 -22.87061703 8.17351861 -26 7 C-26.33 6.34 -26.66 5.68 -27 5 C-26.34 4.34 -25.68 3.68 -25 3 C-23.65361897 3.27594746 -22.32191744 3.62393728 -21 4 C-12.88031716 4.65515959 -6.96147498 4.3679843 0 0 Z " fill="#F6F1D9" transform="translate(433,567)"/>
<path d="M0 0 C4.22335459 1.05583865 5.43713439 1.61335615 8 5 C8.5625 7.9375 8.5625 7.9375 8 11 C5.44975635 14.10164769 3.82300753 15.72566416 0 17 C0 11.39 0 5.78 0 0 Z " fill="#EBF0E4" transform="translate(517,389)"/>
<path d="M0 0 C0.33 0.99 0.66 1.98 1 3 C2.65 3 4.3 3 6 3 C5.01 3.7734375 5.01 3.7734375 4 4.5625 C2.31856421 5.92866658 0.65419119 7.31931539 -0.9375 8.7890625 C-1.618125 9.41554688 -2.29875 10.04203125 -3 10.6875 C-3.639375 11.28949219 -4.27875 11.89148438 -4.9375 12.51171875 C-7.31971886 14.23070622 -9.13441919 14.50862637 -12 15 C-12.99 15.66 -13.98 16.32 -15 17 C-15 14 -15 14 -13.75 12.421875 C-13.1725 11.87015625 -12.595 11.3184375 -12 10.75 C-11.36964844 10.14542969 -10.73929688 9.54085937 -10.08984375 8.91796875 C-6.78110218 5.88134798 -3.41407974 2.91748632 0 0 Z " fill="#77A943" transform="translate(605,535)"/>
<path d="M0 0 C0 4.95 0 9.9 0 15 C-6.05839416 12.57664234 -6.05839416 12.57664234 -8 9 C-8.4375 6.5 -8.4375 6.5 -8 4 C-5.29021558 0.41921344 -4.64188985 0 0 0 Z " fill="#F0F4EB" transform="translate(508,356)"/>
<path d="M0 0 C0 3 0 3 -1 6 C-7.82243685 9.01644834 -16.59539453 9.47246985 -23.6875 7.1015625 C-25.875 6 -25.875 6 -29 4 C-29 3.67 -29 3.34 -29 3 C-27.783125 3.165 -26.56625 3.33 -25.3125 3.5 C-12.60462541 5.14901808 -12.60462541 5.14901808 -1 1 C-0.67 0.67 -0.34 0.34 0 0 Z " fill="#F6F3E6" transform="translate(466,545)"/>
<path d="M0 0 C0.33 0.99 0.66 1.98 1 3 C-4.05085777 6.03051466 -7.91162333 6.46427151 -13.625 6.375 C-14.75035156 6.39240234 -14.75035156 6.39240234 -15.8984375 6.41015625 C-20.19789377 6.3872868 -22.89949937 6.10050063 -26 3 C-25.67 2.34 -25.34 1.68 -25 1 C-23.88625 1.2475 -23.88625 1.2475 -22.75 1.5 C-14.42760858 2.60965219 -7.68587503 0 0 0 Z " fill="#F9F7E7" transform="translate(466,572)"/>
<path d="M0 0 C0.7425 0.45375 1.485 0.9075 2.25 1.375 C7.12213424 3.85814088 12.64597165 4.26360452 18 5 C17.01 6.485 17.01 6.485 16 8 C13.3203125 8.3984375 13.3203125 8.3984375 10.125 8.375 C9.07570313 8.38273438 8.02640625 8.39046875 6.9453125 8.3984375 C3.69831497 7.9591885 2.29338824 7.30984796 0 5 C-0.25 2.3125 -0.25 2.3125 0 0 Z " fill="#BF9D2F" transform="translate(404,580)"/>
<path d="M0 0 C1.051875 0.433125 1.051875 0.433125 2.125 0.875 C8.15090871 3.23296428 13.57341962 4.45731099 20 5 C20 5.33 20 5.66 20 6 C15.00837524 8.04784606 10.33453156 8.80410218 5 8 C1.9375 6.25 1.9375 6.25 0 4 C0 2.68 0 1.36 0 0 Z " fill="#C6A63F" transform="translate(437,549)"/>
<path d="M0 0 C4.75 1.875 4.75 1.875 7 3 C9.37123246 3.23029956 11.74741943 3.41119942 14.125 3.5625 C15.40632813 3.64628906 16.68765625 3.73007812 18.0078125 3.81640625 C19.48894531 3.90728516 19.48894531 3.90728516 21 4 C21 4.33 21 4.66 21 5 C17.37 5.33 13.74 5.66 10 6 C10.33 6.99 10.66 7.98 11 9 C6.67810149 8.49745366 3.40579311 7.8047708 0 5 C-0.3125 2.3125 -0.3125 2.3125 0 0 Z " fill="#CAAD49" transform="translate(437,574)"/>
<path d="M0 0 C0.33 0.66 0.66 1.32 1 2 C0.35891863 3.67667436 -0.31471955 5.34089996 -1 7 C-1.37293912 8.41184096 -1.7263384 9.82895325 -2.0625 11.25 C-3 15 -3 15 -4 16 C-4.23653523 18.52596259 -4.42173692 21.03107207 -4.5625 23.5625 C-4.60568359 24.27341797 -4.64886719 24.98433594 -4.69335938 25.71679688 C-4.79971777 27.47761912 -4.90038846 29.2387832 -5 31 C-5.33 31 -5.66 31 -6 31 C-6.82329045 10.41773866 -6.82329045 10.41773866 -2 1 C-1.34 0.67 -0.68 0.34 0 0 Z " fill="#627B92" transform="translate(194,713)"/>
<path d="M0 0 C0.33 1.32 0.66 2.64 1 4 C-1.75 6.0625 -1.75 6.0625 -5 8 C-6.90625 7.65625 -6.90625 7.65625 -9 7 C-10.58025005 6.78807905 -12.16398461 6.60076629 -13.75 6.4375 C-14.54921875 6.35371094 -15.3484375 6.26992188 -16.171875 6.18359375 C-16.77515625 6.12300781 -17.3784375 6.06242188 -18 6 C-18 5.67 -18 5.34 -18 5 C-16.700625 4.9175 -15.40125 4.835 -14.0625 4.75 C-8.85905135 4.19661737 -4.62978432 2.35320007 0 0 Z " fill="#C19C30" transform="translate(433,563)"/>
<path d="M0 0 C0.66 0.99 1.32 1.98 2 3 C-2.67049515 5.7376287 -5.98799719 6.33996234 -11.375 6.1875 C-12.62023437 6.16042969 -13.86546875 6.13335938 -15.1484375 6.10546875 C-16.55996094 6.05326172 -16.55996094 6.05326172 -18 6 C-17.67 5.34 -17.34 4.68 -17 4 C-14.9609375 3.69140625 -14.9609375 3.69140625 -12.375 3.5625 C-7.62795372 3.19419469 -4.2405193 2.12025965 0 0 Z " fill="#FEFDF7" transform="translate(465,563)"/>
<path d="M0 0 C-2.90511754 2.82179677 -4.46544831 3.94119343 -8.55078125 4.390625 C-9.79214844 4.34421875 -11.03351563 4.2978125 -12.3125 4.25 C-14.19388672 4.19585938 -14.19388672 4.19585938 -16.11328125 4.140625 C-17.06589844 4.09421875 -18.01851563 4.0478125 -19 4 C-19 3.34 -19 2.68 -19 2 C-18.11248047 1.92652344 -18.11248047 1.92652344 -17.20703125 1.8515625 C-12.11329526 1.37592404 -12.11329526 1.37592404 -7.25 -0.125 C-4.45790625 -1.21081424 -2.83528103 -0.8100803 0 0 Z " fill="#FDFCF8" transform="translate(467,557)"/>
<path d="M0 0 C0.91058531 3.07322544 1.08886184 5.80097361 1 9 C0.34 8.01 -0.32 7.02 -1 6 C-1.928125 6.495 -2.85625 6.99 -3.8125 7.5 C-7 9 -7 9 -10 9 C-10 7.68 -10 6.36 -10 5 C-9.36191406 4.72285156 -8.72382813 4.44570313 -8.06640625 4.16015625 C-7.24011719 3.79792969 -6.41382813 3.43570313 -5.5625 3.0625 C-4.73878906 2.70285156 -3.91507812 2.34320312 -3.06640625 1.97265625 C-1.05589883 1.16877677 -1.05589883 1.16877677 0 0 Z " fill="#F3ECD4" transform="translate(433,575)"/>
<path d="M0 0 C5.28 0.33 10.56 0.66 16 1 C16 1.33 16 1.66 16 2 C12.7 2.33 9.4 2.66 6 3 C9.3 3.33 12.6 3.66 16 4 C16 4.33 16 4.66 16 5 C14.08364783 5.05423638 12.16685075 5.09289963 10.25 5.125 C8.64898437 5.15980469 8.64898437 5.15980469 7.015625 5.1953125 C4.07529894 5.00487687 2.47638122 4.52670104 0 3 C0 2.01 0 1.02 0 0 Z " fill="#F1E8C8" transform="translate(442,565)"/>
<path d="M0 0 C0.9075 0.474375 1.815 0.94875 2.75 1.4375 C7.92493256 3.69953238 13.42797318 3.73466539 19 4 C19 4.33 19 4.66 19 5 C16.03 5 13.06 5 10 5 C10 5.66 10 6.32 10 7 C6.4257023 6.67506385 4.44287547 6.36129314 1.625 4.0625 C0 2 0 2 0 0 Z " fill="#F4EED8" transform="translate(438,554)"/>
<path d="M0 0 C3.13143808 0.2472188 4.5769416 0.54672314 6.75 2.875 C8 5 8 5 9 8 C7.68 8 6.36 8 5 8 C5 7.34 5 6.68 5 6 C3.35 5.67 1.7 5.34 0 5 C-0.5625 3.0625 -0.5625 3.0625 -1 1 C-0.67 0.67 -0.34 0.34 0 0 Z " fill="#699A33" transform="translate(575,543)"/>
<path d="M0 0 C0.66 0 1.32 0 2 0 C2.22262606 2.08185451 2.42757926 4.16560426 2.625 6.25 C2.74101563 7.41015625 2.85703125 8.5703125 2.9765625 9.765625 C2.99955595 12.93872091 2.69705154 14.38317244 1 17 C0.67 17 0.34 17 0 17 C0 11.39 0 5.78 0 0 Z " fill="#4D7C56" transform="translate(0,931)"/>
<path d="M0 0 C0.33 0.99 0.66 1.98 1 3 C-4.1468192 6.16727335 -8.158256 6.35050464 -14 6 C-13.42507813 5.71382812 -12.85015625 5.42765625 -12.2578125 5.1328125 C-10.8108611 4.40683342 -9.36774192 3.6731345 -7.9296875 2.9296875 C-7.25164062 2.58164062 -6.57359375 2.23359375 -5.875 1.875 C-5.19179688 1.52179687 -4.50859375 1.16859375 -3.8046875 0.8046875 C-2 0 -2 0 0 0 Z " fill="#F6F2DE" transform="translate(466,572)"/>
<path d="M0 0 C4.62 0 9.24 0 14 0 C14 4.62 14 9.24 14 14 C12.68 14 11.36 14 10 14 C10.33 12.68 10.66 11.36 11 10 C11.33 10.33 11.66 10.66 12 11 C12.33 7.7 12.66 4.4 13 1 C8.71 1 4.42 1 0 1 C0 0.67 0 0.34 0 0 Z " fill="#81B054" transform="translate(601,529)"/>
<path d="M0 0 C1.65322266 0.01740234 1.65322266 0.01740234 3.33984375 0.03515625 C4.99693359 0.04869141 4.99693359 0.04869141 6.6875 0.0625 C7.54214844 0.07410156 8.39679688 0.08570313 9.27734375 0.09765625 C8.94734375 1.08765625 8.61734375 2.07765625 8.27734375 3.09765625 C6.84026285 3.15188572 5.40258913 3.19055348 3.96484375 3.22265625 C3.16433594 3.24585938 2.36382812 3.2690625 1.5390625 3.29296875 C-0.72265625 3.09765625 -0.72265625 3.09765625 -3.72265625 1.09765625 C-2.72265625 0.09765625 -2.72265625 0.09765625 0 0 Z " fill="#FCFAED" transform="translate(414.72265625,580.90234375)"/>
<path d="M0 0 C3.45925163 1.2491742 6.14693203 2.67527795 9 5 C6 7 6 7 3.9375 6.75 C2 6 2 6 0 4 C0 2.68 0 1.36 0 0 Z " fill="#C5A73D" transform="translate(437,557)"/>
<path d="M0 0 C0.99 0 1.98 0 3 0 C1.72431911 2.84574968 0.58503711 5.18089981 -2 7 C-4.6875 6.6875 -4.6875 6.6875 -7 6 C-7 5.34 -7 4.68 -7 4 C-5.824375 3.566875 -5.824375 3.566875 -4.625 3.125 C-1.90328368 2.15087746 -1.90328368 2.15087746 0 0 Z " fill="#679935" transform="translate(594,548)"/>
<path d="M0 0 C5.28 0 10.56 0 16 0 C15.67 0.99 15.34 1.98 15 3 C9.47322267 3.19392201 5.24385089 2.7479503 0 1 C0 0.67 0 0.34 0 0 Z " fill="#3F6D46" transform="translate(932,0)"/>
<path d="M0 0 C0.33 1.32 0.66 2.64 1 4 C-1.62198774 6.15377564 -3.64404172 7.40072174 -7 8 C-6.67 7.01 -6.34 6.02 -6 5 C-6.66 4.67 -7.32 4.34 -8 4 C-5.36 2.68 -2.72 1.36 0 0 Z " fill="#F3EACC" transform="translate(433,567)"/>
<path d="M0 0 C4.95 0 9.9 0 15 0 C15 0.33 15 0.66 15 1 C9.555 1.495 9.555 1.495 4 2 C4.33 2.99 4.66 3.98 5 5 C2.03 4.505 2.03 4.505 -1 4 C-0.67 2.68 -0.34 1.36 0 0 Z " fill="#D0B75E" transform="translate(443,578)"/>
<path d="M0 0 C0.66 0 1.32 0 2 0 C1.39816251 2.02045442 0.72693904 4.02111039 0 6 C-2.49092811 7.24546405 -3.41080733 6.7767578 -6 6 C-5.67 4.68 -5.34 3.36 -5 2 C-2 2 -2 2 0 3 C0 2.01 0 1.02 0 0 Z " fill="#32517B" transform="translate(347,759)"/>
<path d="M0 0 C0.33 1.32 0.66 2.64 1 4 C0.01 4 -0.98 4 -2 4 C-2 4.66 -2 5.32 -2 6 C-3.65 6.33 -5.3 6.66 -7 7 C-7 6.01 -7 5.02 -7 4 C-4.69 2.68 -2.38 1.36 0 0 Z " fill="#C5A739" transform="translate(432,580)"/>
<path d="M0 0 C1.98 0.99 3.96 1.98 6 3 C6 4.65 6 6.3 6 8 C1.125 6.125 1.125 6.125 0 5 C-0.04063832 3.33382885 -0.042721 1.66611905 0 0 Z " fill="#C6A740" transform="translate(404,580)"/>
<path d="M0 0 C4.46839215 -0.21278058 7.82262526 0.40861915 12 2 C12 2.33 12 2.66 12 3 C7.71 3 3.42 3 -1 3 C-0.67 2.01 -0.34 1.02 0 0 Z " fill="#406947" transform="translate(80,1021)"/>
<path d="M0 0 C0.33 1.32 0.66 2.64 1 4 C-1.475 5.485 -1.475 5.485 -4 7 C-4.99 5.68 -5.98 4.36 -7 3 C-4.69 2.01 -2.38 1.02 0 0 Z " fill="#C9AD4B" transform="translate(433,563)"/>
<path d="M0 0 C0.99 0.33 1.98 0.66 3 1 C1.73742767 2.17560179 0.46462916 3.34022865 -0.8125 4.5 C-1.87404297 5.47453125 -1.87404297 5.47453125 -2.95703125 6.46875 C-5 8 -5 8 -8 8 C-7.04578192 6.85073734 -6.08647955 5.70569459 -5.125 4.5625 C-4.59132813 3.92441406 -4.05765625 3.28632812 -3.5078125 2.62890625 C-2 1 -2 1 0 0 Z " fill="#7FB24D" transform="translate(606,539)"/>
<path d="M0 0 C-4.625 4 -4.625 4 -8 4 C-8 2.68 -8 1.36 -8 0 C-4.71023192 -1.09658936 -3.28696233 -0.79953138 0 0 Z " fill="#F3EEDC" transform="translate(467,557)"/>
<path d="M0 0 C3.96 0 7.92 0 12 0 C12 0.33 12 0.66 12 1 C10.2984375 1.2165625 10.2984375 1.2165625 8.5625 1.4375 C5.19222799 1.61171478 5.19222799 1.61171478 4 3 C2.33382885 3.04063832 0.66611905 3.042721 -1 3 C-0.67 2.01 -0.34 1.02 0 0 Z " fill="#406E48" transform="translate(81,0)"/>
<path d="M0 0 C0 3 0 3 -1 6 C-3.0625 6.6875 -3.0625 6.6875 -5 7 C-5 6.34 -5 5.68 -5 5 C-5.66 4.67 -6.32 4.34 -7 4 C-6.030625 3.525625 -5.06125 3.05125 -4.0625 2.5625 C-1.19522563 1.29806053 -1.19522563 1.29806053 0 0 Z " fill="#EFEAD5" transform="translate(466,545)"/>
<path d="M0 0 C0.66 0.33 1.32 0.66 2 1 C-0.97 3.97 -3.94 6.94 -7 10 C-7 7 -7 7 -4.625 4.4375 C-3.75875 3.633125 -2.8925 2.82875 -2 2 C-1.34 1.34 -0.68 0.68 0 0 Z " fill="#7FA558" transform="translate(495,346)"/>
<path d="M0 0 C1.49080078 0.02707031 1.49080078 0.02707031 3.01171875 0.0546875 C3.77097656 0.07789063 4.53023438 0.10109375 5.3125 0.125 C5.3125 0.455 5.3125 0.785 5.3125 1.125 C4.28189453 1.18107422 4.28189453 1.18107422 3.23046875 1.23828125 C2.32941406 1.30402344 1.42835938 1.36976563 0.5 1.4375 C-0.39332031 1.49550781 -1.28664063 1.55351563 -2.20703125 1.61328125 C-5.03274829 2.19622445 -5.81255566 3.02483712 -7.6875 5.125 C-8.3475 5.125 -9.0075 5.125 -9.6875 5.125 C-7.93798051 -0.12355846 -4.97877546 -0.11714766 0 0 Z " fill="#CDD4D9" transform="translate(389.6875,721.875)"/>
<path d="M0 0 C-0.1875 1.8125 -0.1875 1.8125 -1 4 C-3.5625 5.75 -3.5625 5.75 -6 7 C-6 6.34 -6 5.68 -6 5 C-5.34 5 -4.68 5 -4 5 C-4 4.34 -4 3.68 -4 3 C-4.66 2.67 -5.32 2.34 -6 2 C-2.25 0 -2.25 0 0 0 Z " fill="#C7A943" transform="translate(434,572)"/>
<path d="M0 0 C0.66 0.99 1.32 1.98 2 3 C-1.465 4.485 -1.465 4.485 -5 6 C-5 4.68 -5 3.36 -5 2 C-3.35 1.34 -1.7 0.68 0 0 Z " fill="#F5F0E0" transform="translate(465,563)"/>
<path d="M0 0 C0 0.66 0 1.32 0 2 C-1.53125 3.2890625 -1.53125 3.2890625 -3.5 4.625 C-4.1496875 5.07101562 -4.799375 5.51703125 -5.46875 5.9765625 C-5.9740625 6.31429687 -6.479375 6.65203125 -7 7 C-6.01695477 2.51137841 -4.96473025 0 0 0 Z " fill="#1F4567" transform="translate(208,698)"/>
<path d="M0 0 C0.66 0.33 1.32 0.66 2 1 C1.0479279 2.00596297 0.08812654 3.00461563 -0.875 4 C-1.40867187 4.556875 -1.94234375 5.11375 -2.4921875 5.6875 C-4 7 -4 7 -6 7 C-4.60667426 3.63279613 -3.0210714 2.0140476 0 0 Z " fill="#D7DEE2" transform="translate(306,726)"/>
<path d="M0 0 C0.33 0.66 0.66 1.32 1 2 C0.0625 4.625 0.0625 4.625 -1 7 C-1.66 7 -2.32 7 -3 7 C-2.625 4.0625 -2.625 4.0625 -2 1 C-1.34 0.67 -0.68 0.34 0 0 Z " fill="#395A77" transform="translate(194,713)"/>
<path d="M0 0 C0.33 0.99 0.66 1.98 1 3 C-0.98 3.66 -2.96 4.32 -5 5 C-4.625 3.0625 -4.625 3.0625 -4 1 C-2 0 -2 0 0 0 Z " fill="#F1ECD4" transform="translate(466,572)"/>
</svg>
