<?xml version="1.0" encoding="UTF-8"?>
<svg version="1.1" xmlns="http://www.w3.org/2000/svg" width="98" height="96">
<path d="M0 0 C1.98 0 3.96 0 6 0 C6.0989211 4.21746325 6.17149012 8.43431121 6.21972656 12.65258789 C6.23983525 14.08727786 6.26712673 15.52188593 6.30175781 16.95629883 C6.3503146 19.01924839 6.37297406 21.08111431 6.390625 23.14453125 C6.41157227 24.38565674 6.43251953 25.62678223 6.45410156 26.90551758 C6 30 6 30 4.10058594 31.9284668 C2 33 2 33 0 33 C0 22.11 0 11.22 0 0 Z " fill="#367FC3" transform="translate(78,53)"/>
<path d="M0 0 C5 2 5 2 6 3 C6.08783542 5.21855264 6.10694609 7.43988496 6.09765625 9.66015625 C6.0962413 10.32462265 6.09482635 10.98908905 6.09336853 11.6736908 C6.08775518 13.80333899 6.07520054 15.93288339 6.0625 18.0625 C6.05748671 19.50325369 6.05292351 20.94400903 6.04882812 22.38476562 C6.03778145 25.92321102 6.02050792 29.46159539 6 33 C4.02 33 2.04 33 0 33 C0 22.11 0 11.22 0 0 Z " fill="#367FC4" transform="translate(78,10)"/>
<path d="M0 0 C5.75 1.875 5.75 1.875 8 3 C8 9.93 8 16.86 8 24 C1 23 1 23 0 22 C-0.08700342 20.36527118 -0.10701063 18.72685945 -0.09765625 17.08984375 C-0.09443359 16.10048828 -0.09121094 15.11113281 -0.08789062 14.09179688 C-0.07951172 13.05087891 -0.07113281 12.00996094 -0.0625 10.9375 C-0.05798828 9.89271484 -0.05347656 8.84792969 -0.04882812 7.77148438 C-0.03699913 5.1809334 -0.02051689 2.59049441 0 0 Z " fill="#2367B5" transform="translate(32,71)"/>
<path d="M0 0 C0 6.93 0 13.86 0 21 C-6 24 -6 24 -8 24 C-8.08681476 20.37515001 -8.14032721 16.75056557 -8.1875 13.125 C-8.21263672 12.09246094 -8.23777344 11.05992188 -8.26367188 9.99609375 C-8.27333984 9.00996094 -8.28300781 8.02382812 -8.29296875 7.0078125 C-8.31653442 5.64100342 -8.31653442 5.64100342 -8.34057617 4.24658203 C-8.22818604 3.50520996 -8.1157959 2.76383789 -8 2 C-5 0 -5 0 0 0 Z " fill="#2366B6" transform="translate(40,1)"/>
<path d="M0 0 C0 6.93 0 13.86 0 21 C-2.64 21 -5.28 21 -8 21 C-8 14.4 -8 7.8 -8 1 C-3 0 -3 0 0 0 Z " fill="#03449D" transform="translate(58,75)"/>
<path d="M0 0 C2.64 0 5.28 0 8 0 C8 6.93 8 13.86 8 21 C5.36 20.67 2.72 20.34 0 20 C0 13.4 0 6.8 0 0 Z " fill="#03449C" transform="translate(50,0)"/>
<path d="M0 0 C1.65 0 3.3 0 5 0 C5 10.89 5 21.78 5 33 C3.35 32.34 1.7 31.68 0 31 C0 20.77 0 10.54 0 0 Z " fill="#367FC7" transform="translate(16,53)"/>
<path d="M0 0 C2.16874252 0.50603992 3.99967627 0.99983813 6 2 C6 11.24 6 20.48 6 30 C5.34 30 4.68 30 4 30 C1.45720668 27.42440217 0.1186594 25.74800079 -0.45410156 22.13745117 C-0.4331543 21.11627197 -0.41220703 20.09509277 -0.390625 19.04296875 C-0.37773438 17.93115234 -0.36484375 16.81933594 -0.3515625 15.67382812 C-0.31804687 14.52333984 -0.28453125 13.37285156 -0.25 12.1875 C-0.23195313 11.01767578 -0.21390625 9.84785156 -0.1953125 8.64257812 C-0.1482644 5.7608822 -0.08253709 2.88086203 0 0 Z " fill="#2267B7" transform="translate(69,4)"/>
<path d="M0 0 C0.07409401 3.95092059 0.12857406 7.90157294 0.16479492 11.85302734 C0.18732251 13.85919374 0.2254357 15.86516526 0.26367188 17.87109375 C0.27817383 19.75634766 0.27817383 19.75634766 0.29296875 21.6796875 C0.3086792 22.84226074 0.32438965 24.00483398 0.34057617 25.20263672 C0.22818604 26.1257666 0.1157959 27.04889648 0 28 C-3 30 -3 30 -6 30 C-6.14547545 25.93787788 -6.23413226 21.87642713 -6.3125 17.8125 C-6.35439453 16.66201172 -6.39628906 15.51152344 -6.43945312 14.32617188 C-6.56046435 5.97639707 -6.56046435 5.97639707 -4.89990234 3.08349609 C-1.87731481 0 -1.87731481 0 0 0 Z " fill="#2368B8" transform="translate(75,62)"/>
<path d="M0 0 C0 10.89 0 21.78 0 33 C-1.65 33 -3.3 33 -5 33 C-5.0740719 28.62178091 -5.12856375 24.24389218 -5.16479492 19.86523438 C-5.179896 18.37526091 -5.20037858 16.88533199 -5.22631836 15.39550781 C-5.26264584 13.2557477 -5.27971221 11.11657434 -5.29296875 8.9765625 C-5.3086792 7.68830566 -5.32438965 6.40004883 -5.34057617 5.07275391 C-5.22818604 4.05874512 -5.1157959 3.04473633 -5 2 C-2 0 -2 0 0 0 Z " fill="#367EC6" transform="translate(21,10)"/>
<path d="M0 0 C0.11668214 3.87474457 0.18741231 7.74903396 0.25 11.625 C0.28351562 12.71941406 0.31703125 13.81382813 0.3515625 14.94140625 C0.4275409 21.20962433 0.42227739 25.33204054 -4 30 C-4.66 30 -5.32 30 -6 30 C-6.07409401 26.04907941 -6.12857406 22.09842706 -6.16479492 18.14697266 C-6.18732251 16.14080626 -6.2254357 14.13483474 -6.26367188 12.12890625 C-6.27333984 10.87207031 -6.28300781 9.61523438 -6.29296875 8.3203125 C-6.3086792 7.15773926 -6.32438965 5.99516602 -6.34057617 4.79736328 C-6.22818604 3.8742334 -6.1157959 2.95110352 -6 2 C-3 0 -3 0 0 0 Z " fill="#2666AF" transform="translate(30,4)"/>
<path d="M0 0 C0.66 0 1.32 0 2 0 C6.42227739 4.66795946 6.4275409 8.79037567 6.3515625 15.05859375 C6.31804688 16.15300781 6.28453125 17.24742188 6.25 18.375 C6.23195313 19.49261719 6.21390625 20.61023438 6.1953125 21.76171875 C6.14835555 24.5087003 6.08269468 27.25390047 6 30 C4.02 29.34 2.04 28.68 0 28 C0 18.76 0 9.52 0 0 Z " fill="#2567AE" transform="translate(24,62)"/>
<path d="M0 0 C0 7.59 0 15.18 0 23 C-2.31 23.33 -4.62 23.66 -7 24 C-7 17.07 -7 10.14 -7 3 C-1 0 -1 0 0 0 Z " fill="#2267B4" transform="translate(66,71)"/>
<path d="M0 0 C2.31 0.33 4.62 0.66 7 1 C7 8.59 7 16.18 7 24 C4.69 23.01 2.38 22.02 0 21 C0 14.07 0 7.14 0 0 Z " fill="#2366B4" transform="translate(59,1)"/>
<path d="M0 0 C2.31 0.33 4.62 0.66 7 1 C7 7.6 7 14.2 7 21 C4.69 21 2.38 21 0 21 C0 14.07 0 7.14 0 0 Z " fill="#03449C" transform="translate(41,75)"/>
<path d="M0 0 C2.31 0 4.62 0 7 0 C7 6.6 7 13.2 7 20 C4.69 20.33 2.38 20.66 0 21 C0 14.07 0 7.14 0 0 Z " fill="#03439C" transform="translate(41,0)"/>
<path d="M0 0 C1.65 0 3.3 0 5 0 C5.08724706 3.4165052 5.14047325 6.83272313 5.1875 10.25 C5.21263672 11.21808594 5.23777344 12.18617187 5.26367188 13.18359375 C5.27333984 14.11816406 5.28300781 15.05273438 5.29296875 16.015625 C5.3086792 16.87446289 5.32438965 17.73330078 5.34057617 18.61816406 C4.92586985 21.51843281 4.00490394 22.8930382 2 25 C1.34 25 0.68 25 0 25 C0 16.75 0 8.5 0 0 Z " fill="#3680C4" transform="translate(86,53)"/>
<path d="M0 0 C3 1 3 1 5 4 C5.22705078 6.26831055 5.22705078 6.26831055 5.1953125 8.88671875 C5.18886719 9.82451172 5.18242188 10.76230469 5.17578125 11.72851562 C5.15902344 12.70498047 5.14226562 13.68144531 5.125 14.6875 C5.11597656 15.67556641 5.10695313 16.66363281 5.09765625 17.68164062 C5.0740843 20.12133765 5.04118022 22.56054697 5 25 C3.35 25 1.7 25 0 25 C0 16.75 0 8.5 0 0 Z " fill="#367FC4" transform="translate(86,18)"/>
<path d="M0 0 C1.32 0 2.64 0 4 0 C4 8.25 4 16.5 4 25 C0 21 0 21 -0.45410156 18.61816406 C-0.4331543 17.75932617 -0.41220703 16.90048828 -0.390625 16.015625 C-0.37773438 15.08105469 -0.36484375 14.14648438 -0.3515625 13.18359375 C-0.31804688 12.21550781 -0.28453125 11.24742188 -0.25 10.25 C-0.23195313 9.26644531 -0.21390625 8.28289063 -0.1953125 7.26953125 C-0.14824126 4.84536217 -0.08250742 2.42317941 0 0 Z " fill="#3A7DBD" transform="translate(8,53)"/>
<path d="M0 0 C0.33 0 0.66 0 1 0 C1 8.25 1 16.5 1 25 C-0.32 25 -1.64 25 -3 25 C-3.08724706 21.5834948 -3.14047325 18.16727687 -3.1875 14.75 C-3.21263672 13.78191406 -3.23777344 12.81382813 -3.26367188 11.81640625 C-3.27333984 10.88183594 -3.28300781 9.94726562 -3.29296875 8.984375 C-3.3086792 8.12553711 -3.32438965 7.26669922 -3.34057617 6.38183594 C-2.92870391 3.50138732 -1.94496507 2.12670014 0 0 Z " fill="#3A7DBE" transform="translate(11,18)"/>
<path d="M0 0 C1.32 0 2.64 0 4 0 C4 3.3 4 6.6 4 10 C3.34 10 2.68 10 2 10 C0.68373308 6.38026598 0 3.90432869 0 0 Z " fill="#5D9ADE" transform="translate(1,53)"/>
<path d="M0 0 C0.66 0 1.32 0 2 0 C2 3.3 2 6.6 2 10 C0.68 10 -0.64 10 -2 10 C-1.54177532 6.53058454 -1.10868317 3.32604951 0 0 Z " fill="#599ADE" transform="translate(3,33)"/>
<path d="M0 0 C1.32 0 2.64 0 4 0 C3.34 3.3 2.68 6.6 2 10 C1.34 10 0.68 10 0 10 C0 6.7 0 3.4 0 0 Z " fill="#609BCF" transform="translate(94,53)"/>
<path d="M0 0 C0.66 0 1.32 0 2 0 C2.66 3.3 3.32 6.6 4 10 C2.68 10 1.36 10 0 10 C0 6.7 0 3.4 0 0 Z " fill="#639AD1" transform="translate(94,33)"/>
</svg>
