<?xml version="1.0" encoding="UTF-8"?>
<svg version="1.1" xmlns="http://www.w3.org/2000/svg" width="1024" height="329">
<path d="M0 0 C337.92 0 675.84 0 1024 0 C1024 108.57 1024 217.14 1024 329 C686.08 329 348.16 329 0 329 C0 220.43 0 111.86 0 0 Z " fill="#FDFEFE" transform="translate(0,0)"/>
<path d="M0 0 C114.84 0 229.68 0 348 0 C348 131.05857143 348 131.05857143 334.125 146.625 C330.15601168 150.40594826 325.90873298 152.96497851 321.0625 155.4375 C320.41877441 155.76766113 319.77504883 156.09782227 319.11181641 156.43798828 C310.44636859 160.58101324 301.55321155 161.29776914 292.06575012 161.26742554 C290.48234889 161.27422221 290.48234889 161.27422221 288.86695975 161.28115618 C285.35372533 161.29374781 281.84064697 161.29218319 278.32739258 161.29052734 C275.79856163 161.29651588 273.2697325 161.30332217 270.74090576 161.31088257 C264.59837215 161.32668773 258.45589506 161.33298955 252.31334303 161.33410732 C247.31561171 161.33506054 242.31789297 161.33918445 237.32016563 161.34550858 C223.12280582 161.36310588 208.92547614 161.37234987 194.72810534 161.37084763 C193.96406837 161.37076772 193.2000314 161.3706878 192.4128418 161.37060547 C191.64786224 161.37052371 190.88288269 161.37044195 190.09472194 161.37035771 C177.70587438 161.36954534 165.31714855 161.38867451 152.92833618 161.4168822 C140.18026863 161.44567675 127.43226032 161.45941888 114.68415946 161.45769465 C107.53806803 161.45703299 100.39210422 161.46242638 93.24604225 161.48405075 C86.52115197 161.50427165 79.79657463 161.50352207 73.07165527 161.48901749 C70.61234327 161.48693469 68.15301423 161.49159845 65.69373131 161.5037384 C44.72844429 161.60047623 27.97152957 159.96259092 11.96875 145.05859375 C-18.80445286 112.88105823 0 1.75110786 0 0 Z " fill="#FCFDFC" transform="translate(338,0)"/>
<path d="M0 0 C11.30809563 9.88601694 21.5729927 24.53365608 23.1796875 39.875 C23.1875 41.8125 23.1875 41.8125 22.9375 44.5625 C26.8975 44.5625 30.8575 44.5625 34.9375 44.5625 C33.1548065 49.01923376 31.17906855 52.13970559 28.25 55.8125 C27.35020911 56.95699092 26.45046983 58.10152241 25.55078125 59.24609375 C24.8868335 60.08503174 24.8868335 60.08503174 24.20947266 60.94091797 C21.85883562 63.93764181 19.59149476 66.99933875 17.3125 70.05078125 C16.85875 70.54964844 16.405 71.04851562 15.9375 71.5625 C15.2775 71.5625 14.6175 71.5625 13.9375 71.5625 C12.61230469 70.02124023 12.61230469 70.02124023 11.109375 67.87109375 C10.55636719 67.09056641 10.00335937 66.31003906 9.43359375 65.50585938 C8.85738281 64.67892578 8.28117188 63.85199219 7.6875 63 C4.44937806 58.38102375 1.25183919 53.83108108 -2.484375 49.59765625 C-5.0625 46.5625 -5.0625 46.5625 -5.0625 44.5625 C-1.4325 44.5625 2.1975 44.5625 5.9375 44.5625 C3.5014887 30.17843325 -2.08438545 19.22257728 -14.0625 10.5625 C-28.67264976 1.5901492 -43.16124906 -0.99633472 -60.22070312 1.93310547 C-63.86296591 2.90215711 -66.91327756 4.52883284 -70.0625 6.5625 C-71.00867188 7.15546875 -71.95484375 7.7484375 -72.9296875 8.359375 C-84.90277877 16.47122546 -93.35412443 27.13881455 -96.68310547 41.41821289 C-99.39365677 56.73788605 -96.56815076 71.37823381 -87.7734375 84.19921875 C-87.20882812 84.97910156 -86.64421875 85.75898437 -86.0625 86.5625 C-85.299375 87.635 -84.53625 88.7075 -83.75 89.8125 C-74.60271989 99.17250755 -62.32896985 105.650217 -49.14892578 106.12280273 C-31.54838692 106.13935497 -17.55906329 100.0066668 -5.0625 87.5625 C-4.7325 87.2325 -4.4025 86.9025 -4.0625 86.5625 C-2.71982587 86.47618126 -1.37275678 86.45543527 -0.02734375 86.46484375 C0.78154297 86.46806641 1.59042969 86.47128906 2.42382812 86.47460938 C3.27396484 86.48298828 4.12410156 86.49136719 5 86.5 C5.85400391 86.50451172 6.70800781 86.50902344 7.58789062 86.51367188 C9.70445663 86.52549627 11.82098685 86.54343231 13.9375 86.5625 C13.15857326 90.12911538 11.93526695 92.14555882 9.625 95 C9.03074219 95.74121094 8.43648437 96.48242188 7.82421875 97.24609375 C7.20160156 98.01050781 6.57898438 98.77492188 5.9375 99.5625 C4.99003906 100.81933594 4.99003906 100.81933594 4.0234375 102.1015625 C-5.82234571 113.71737415 -22.10678544 121.15865963 -37.0625 122.5625 C-56.27391504 123.87139973 -73.88186784 119.85134471 -89.046875 107.33203125 C-99.19454949 98.42331701 -106.71847875 88.46292674 -111.0625 75.5625 C-111.3821875 74.61375 -111.701875 73.665 -112.03125 72.6875 C-117.01835799 54.95556047 -115.35044769 35.63782729 -106.5625 19.5 C-96.39391701 2.18246315 -80.78686465 -9.2790109 -61.65625 -15.1796875 C-39.44600344 -20.58418083 -17.61409136 -13.71609051 0 0 Z " fill="#679635" transform="translate(633.0625,29.4375)"/>
<path d="M0 0 C7.486875 -0.0825 14.97375 -0.165 22.6875 -0.25 C25.02287842 -0.28641602 27.35825684 -0.32283203 29.7644043 -0.36035156 C43.01320253 -0.48133689 55.70441769 -0.52849195 66.41796875 8.42578125 C71.67233506 13.65420007 74.22437225 19.36034376 74.32958984 26.72290039 C74.3239502 27.41246826 74.31831055 28.10203613 74.3125 28.8125 C74.30686035 29.52591553 74.3012207 30.23933105 74.29541016 30.97436523 C74.11063054 38.97385881 72.18241567 44.51244235 66.75 50.4609375 C63.03009645 53.73245982 58.64850029 55.4504999 54 57 C55.33697528 59.85901545 56.85326975 62.27134629 58.79296875 64.7578125 C59.33800049 65.46156006 59.88303223 66.16530762 60.44458008 66.89038086 C61.01974365 67.62780518 61.59490723 68.36522949 62.1875 69.125 C76 87.02232328 76 87.02232328 76 90 C59.48728515 91.81421486 59.48728515 91.81421486 54.15625 87.92578125 C51.82841321 84.74237759 49.86101862 81.4670563 48 78 C42.6794347 67.1911177 42.6794347 67.1911177 33.60644531 60.14941406 C27.85692245 59.14470601 22.96533335 59.61651428 17 60 C17 70.23 17 80.46 17 91 C11.39 91 5.78 91 0 91 C0 60.97 0 30.94 0 0 Z " fill="#63C1CC" transform="translate(487,211)"/>
<path d="M0 0 C7.90612095 6.57749897 12.96651765 13.56908041 14.0078125 24.03515625 C14.4728614 34.74271648 12.40568166 43.66321448 5.625 52.1875 C-0.9009509 58.83028378 -7.9708432 62.79322635 -17.375 63.1875 C-18.57640625 63.27386719 -19.7778125 63.36023438 -21.015625 63.44921875 C-31.51631672 64.0013523 -38.92242292 62.08050586 -47.4921875 55.58203125 C-54.02225749 49.68254742 -58.02513485 41.38385784 -58.61328125 32.6484375 C-58.83732645 24.4051889 -58.59092529 17.52241704 -54.375 10.1875 C-53.97410156 9.48238281 -53.57320312 8.77726563 -53.16015625 8.05078125 C-48.66253002 1.20656743 -41.33838836 -3.87523404 -33.5 -6.25 C-21.73420456 -8.38705264 -9.90572868 -7.01107552 0 0 Z " fill="#60C0CC" transform="translate(632.375,238.8125)"/>
<path d="M0 0 C10.48700278 -0.52266413 20.13215965 2.61283024 28.07421875 9.484375 C34.96051364 16.04060782 38.97916931 23.88085665 39.51611328 33.42724609 C39.67042205 42.23456528 37.85516222 48.77280181 32.8671875 56.19140625 C32.42246094 56.8771875 31.97773438 57.56296875 31.51953125 58.26953125 C27.24028326 64.00846442 20.43724797 67.91147523 13.59375 69.828125 C1.48460076 71.44152167 -9.87204803 71.59288126 -20.1328125 64.19140625 C-27.18581827 58.66998385 -30.70072409 51.69849662 -33.1328125 43.19140625 C-34.01255893 32.03932644 -33.27187618 22.15431832 -26.1328125 13.19140625 C-18.63984958 5.21831173 -10.89590584 0.9778377 0 0 Z " fill="#294B6F" transform="translate(313.1328125,231.80859375)"/>
<path d="M0 0 C0.75925781 0.3403125 1.51851562 0.680625 2.30078125 1.03125 C11.10428779 5.41080956 15.96441307 11.63622229 19.2734375 20.80078125 C19.51320313 21.52652344 19.75296875 22.25226563 20 23 C20.495 24.485 20.495 24.485 21 26 C22.04102263 36.90513869 19.93039818 46.4260292 13.5 55.375 C8.36201465 61.38383032 0.02599441 66.36665947 -7.98608398 67.20874023 C-21.34172525 67.7988296 -31.39113324 67.09083968 -41.875 57.875 C-49.92375051 48.7385805 -52.22036821 39.47786926 -51.58203125 27.578125 C-50.71958562 18.76846986 -46.43637866 11.37011117 -39.921875 5.4609375 C-28.22574349 -3.43002426 -13.65191628 -6.35211114 0 0 Z " fill="#61C0CC" transform="translate(708,235)"/>
<path d="M0 0 C2.95490059 2.51480901 4.85327776 4.77991663 7 8 C7.66 8 8.32 8 9 8 C10.051875 6.63875 10.051875 6.63875 11.125 5.25 C14.53609459 1.03414481 18.84353777 -1.43098502 24.20751953 -2.39794922 C26.48733629 -2.57017098 28.71428969 -2.60662849 31 -2.5625 C32.18855591 -2.54823975 32.18855591 -2.54823975 33.40112305 -2.53369141 C39.38651411 -2.31950738 43.66233474 -1.36073795 48 3 C48.928125 3.9075 49.85625 4.815 50.8125 5.75 C55.83906619 13.21804119 56.42903262 20.56077283 56.29296875 29.37890625 C56.28872391 30.43158188 56.28447906 31.48425751 56.28010559 32.5688324 C56.26343768 35.90032542 56.2258075 39.23119268 56.1875 42.5625 C56.17243781 44.83397558 56.1587521 47.10546073 56.14648438 49.37695312 C56.11357309 54.91820644 56.06187342 60.45899746 56 66 C50.72 66 45.44 66 40 66 C39.9906543 64.69853027 39.98130859 63.39706055 39.97167969 62.05615234 C39.93171953 57.21401105 39.86594343 52.37250107 39.79248047 47.53076172 C39.76430587 45.43774544 39.74307391 43.34462346 39.72900391 41.25146484 C39.70752606 38.23740663 39.66085012 35.22461463 39.609375 32.2109375 C39.60814636 31.27945892 39.60691772 30.34798035 39.60565186 29.38827515 C39.4765807 23.62509661 38.74891093 20.4366482 35 16 C31.18715653 12.63572635 27.35124283 12.42495925 22.44140625 12.5859375 C18.30116016 13.28812324 16.75336269 14.83363291 14 18 C11.70437144 23.21697703 11.65878472 28.17499877 11.5859375 33.7734375 C11.56657135 34.6971817 11.5472052 35.6209259 11.5272522 36.57266235 C11.46774295 39.50668264 11.42118605 42.44074276 11.375 45.375 C11.33679383 47.37111032 11.29774058 49.36720463 11.2578125 51.36328125 C11.16206504 56.24205651 11.07792861 61.12090891 11 66 C5.72 66 0.44 66 -5 66 C-5.0093457 64.70376709 -5.01869141 63.40753418 -5.02832031 62.07202148 C-5.06832288 57.24290144 -5.1341106 52.41441158 -5.20751953 47.58569336 C-5.23566962 45.49951296 -5.2569137 43.41322708 -5.27099609 41.3269043 C-5.29250802 38.32025385 -5.33920124 35.31486359 -5.390625 32.30859375 C-5.39185364 31.38227646 -5.39308228 30.45595917 -5.39434814 29.50157166 C-5.52855043 23.50979585 -6.51784236 19.91725831 -10 15 C-13.95126832 12.15195709 -18.32526582 12.62232848 -23 13 C-27.41858198 13.90380086 -29.37728223 16.18600117 -31.91928101 19.85476685 C-33.92754094 23.84117388 -33.72564703 27.92373083 -33.70703125 32.30859375 C-33.72215256 33.27531509 -33.73727386 34.24203644 -33.75285339 35.23805237 C-33.79560376 38.30477454 -33.8045563 41.37051 -33.8125 44.4375 C-33.8356541 46.52541663 -33.86102133 48.61330996 -33.88867188 50.70117188 C-33.95139943 55.800868 -33.98383352 60.89995234 -34 66 C-39.28 66 -44.56 66 -50 66 C-50 43.56 -50 21.12 -50 -2 C-44.72 -2 -39.44 -2 -34 -2 C-33.67 0.97 -33.34 3.94 -33 7 C-32.2575 6.236875 -31.515 5.47375 -30.75 4.6875 C-21.9625703 -3.90021539 -11.05457369 -5.33741821 0 0 Z " fill="#63C1CC" transform="translate(794,235)"/>
<path d="M0 0 C3.5223963 1.1741321 4.09232948 2.12435274 6.21484375 5.078125 C6.81876953 5.90957031 7.42269531 6.74101563 8.04492188 7.59765625 C8.98174805 8.91056641 8.98174805 8.91056641 9.9375 10.25 C11.17493053 11.96415611 12.41318914 13.6777148 13.65234375 15.390625 C14.52028564 16.5981543 14.52028564 16.5981543 15.40576172 17.83007812 C16.69772428 19.58857173 18.05975201 21.29544085 19.44140625 22.984375 C21 25 21 25 21 27 C17.04 27 13.08 27 9 27 C13.99757841 42.08738633 20.68518979 55.90331403 35.3203125 63.7890625 C48.19792426 69.86775619 63.88686728 72.13862718 77.7890625 67.71875 C90.13446821 62.92737629 99.08313724 55.18904271 106 44 C106.39960938 43.41605469 106.79921875 42.83210938 107.2109375 42.23046875 C111.8331483 35.08863176 112.82204844 26.24566089 114 18 C119.28 18 124.56 18 130 18 C130 32.82066861 126.26132215 44.75255188 118 57 C117.08927734 58.35544922 117.08927734 58.35544922 116.16015625 59.73828125 C106.32413877 73.10944244 89.72292162 83.99041719 73.265625 86.58984375 C52.86263019 88.82506406 34.6085213 85.41079133 18.07421875 72.76171875 C15.60716909 70.59415918 13.28781528 68.35485749 11 66 C10.37867188 65.39929688 9.75734375 64.79859375 9.1171875 64.1796875 C-0.0788559 54.65374119 -7 40.35331649 -7 27 C-10.96 27 -14.92 27 -19 27 C-17.46606994 23.16517486 -16.50595204 21.06086958 -14.1015625 17.96875 C-13.53953125 17.24042969 -12.9775 16.51210937 -12.3984375 15.76171875 C-11.81320312 15.01535156 -11.22796875 14.26898438 -10.625 13.5 C-10.0475 12.75363281 -9.47 12.00726563 -8.875 11.23828125 C-5.95007806 7.4652655 -2.99490347 3.71781121 0 0 Z " fill="#24486E" transform="translate(374,65)"/>
<path d="M0 0 C0.8461084 0.00491455 1.6922168 0.0098291 2.56396484 0.01489258 C15.94484873 0.26592898 25.96554291 5.36076266 35.75 14.3125 C35.20015228 18.18761727 33.47444669 19.90826506 30.6875 22.5625 C29.58728516 23.62210938 29.58728516 23.62210938 28.46484375 24.703125 C27.89894531 25.23421875 27.33304687 25.7653125 26.75 26.3125 C22.92225513 24.5112083 19.61044134 22.18560342 16.1640625 19.75 C8.84742069 15.39316475 1.0253433 15.50473025 -7.25 16.3125 C-15.87649391 18.69142603 -21.7183566 24.7355951 -26.41015625 32.14453125 C-29.75330896 39.28177356 -29.33841739 48.73130817 -27.55859375 56.22265625 C-26.63111149 58.73345551 -25.56209971 60.98125366 -24.25 63.3125 C-23.86070312 64.03050781 -23.47140625 64.74851562 -23.0703125 65.48828125 C-19.05030196 71.8037416 -13.26426644 75.01342578 -6.25 77.3125 C2.91817157 78.84604494 10.72606833 76.83912035 18.75 72.3125 C21.32408293 70.44956202 23.46907422 68.54158656 25.75 66.3125 C28.96524305 67.72094718 31.07183868 69.41594786 33.5 71.9375 C34.11359375 72.56914062 34.7271875 73.20078125 35.359375 73.8515625 C35.81828125 74.33367187 36.2771875 74.81578125 36.75 75.3125 C29.82727445 84.18778917 20.3963085 91.12202229 8.96435547 92.69604492 C6.06852922 92.84689518 3.21160623 92.86791381 0.3125 92.8125 C-0.70013916 92.80041504 -1.71277832 92.78833008 -2.75610352 92.77587891 C-13.91184686 92.47877655 -21.84265847 89.68012765 -30.25 82.3125 C-31.14138672 81.59513672 -31.14138672 81.59513672 -32.05078125 80.86328125 C-38.01186214 75.61594397 -43.91602672 66.42433588 -44.44140625 58.3828125 C-44.34666016 57.35800781 -44.34666016 57.35800781 -44.25 56.3125 C-44.91 56.3125 -45.57 56.3125 -46.25 56.3125 C-46.95592703 38.66432415 -44.42724292 25.97282234 -32.125 12.625 C-23.31967142 4.10275305 -12.09072502 -0.08232288 0 0 Z " fill="#294A6E" transform="translate(234.25,209.6875)"/>
<path d="M0 0 C1.41570092 1.18499411 2.81164241 2.39396952 4.1875 3.625 C4.93515625 4.27984375 5.6828125 4.9346875 6.453125 5.609375 C17.38315128 15.79586208 22.45233441 27.53396757 26.1875 41.625 C26.39375 42.33011719 26.6 43.03523438 26.8125 43.76171875 C27.59478904 47.6487174 27.23938975 51.68137899 27.1875 55.625 C21.9075 55.625 16.6275 55.625 11.1875 55.625 C11.1875 57.935 11.1875 60.245 11.1875 62.625 C10.8575 62.625 10.5275 62.625 10.1875 62.625 C10.12804199 61.7117395 10.12804199 61.7117395 10.06738281 60.7800293 C8.87949838 43.43593212 7.0512176 29.35673974 -5.8125 16.625 C-19.07724045 5.27863117 -34.32551448 2.21480327 -51.38037109 3.35009766 C-60.45892179 4.37624181 -67.99219119 8.73685185 -74.8125 14.625 C-75.38871094 15.08261719 -75.96492188 15.54023437 -76.55859375 16.01171875 C-79.14605915 18.0779681 -80.96018607 19.84652911 -82.8125 22.625 C-84.69189453 22.96557617 -84.69189453 22.96557617 -86.9453125 22.91796875 C-87.75097656 22.90830078 -88.55664062 22.89863281 -89.38671875 22.88867188 C-90.22847656 22.86353516 -91.07023437 22.83839844 -91.9375 22.8125 C-93.21173828 22.79219727 -93.21173828 22.79219727 -94.51171875 22.77148438 C-96.61224837 22.73608219 -98.71245293 22.68227401 -100.8125 22.625 C-100.8125 17.94632707 -99.37030321 16.01997824 -96.625 12.5 C-96.1801123 11.92886475 -95.73522461 11.35772949 -95.27685547 10.76928711 C-71.99640761 -17.88941605 -29.18825221 -21.86576385 0 0 Z " fill="#55C1CC" transform="translate(476.8125,27.375)"/>
<path d="M0 0 C5.28 0 10.56 0 16 0 C16.2475 1.918125 16.495 3.83625 16.75 5.8125 C18.50323151 16.96063413 22.15151497 25.06931525 29 34 C29.598125 34.886875 30.19625 35.77375 30.8125 36.6875 C39.57828549 45.95418752 52.14677148 52.10253425 64.91357422 52.56030273 C82.51411308 52.57685497 96.50343671 46.4441668 109 34 C109.33 33.67 109.66 33.34 110 33 C111.34267413 32.91368126 112.68974322 32.89293527 114.03515625 32.90234375 C114.84404297 32.90556641 115.65292969 32.90878906 116.48632812 32.91210938 C117.33646484 32.92048828 118.18660156 32.92886719 119.0625 32.9375 C119.91650391 32.94201172 120.77050781 32.94652344 121.65039062 32.95117188 C123.76695663 32.96299627 125.88348685 32.98093231 128 33 C127.22107326 36.56661538 125.99776695 38.58305882 123.6875 41.4375 C123.09324219 42.17871094 122.49898437 42.91992188 121.88671875 43.68359375 C121.26410156 44.44800781 120.64148438 45.21242187 120 46 C119.05253906 47.25683594 119.05253906 47.25683594 118.0859375 48.5390625 C108.24015429 60.15487415 91.95571456 67.59615963 77 69 C57.78858496 70.30889973 40.18063216 66.28884471 25.015625 53.76953125 C11.16185894 41.60721337 2.93444418 27.30534227 0 9 C-0.1947297 5.94359038 -0.15583791 3.06481214 0 0 Z " fill="#56C1CC" transform="translate(519,83)"/>
<path d="M0 0 C-0.53115106 4.51478398 -2.36620292 7.34666857 -5 11 C-11 9 -11 9 -13.015625 8.19921875 C-18.95957984 5.94350927 -24.65693001 5.1993174 -31 6 C-31.99 6.66 -32.98 7.32 -34 8 C-34.75045506 11.41456334 -34.75045506 11.41456334 -34 15 C-29.54738566 18.67824663 -25.14758442 20.00497104 -19.6875 21.375 C-11.49169968 23.61932889 -5.50851687 26.49148313 0.5625 32.5625 C3.07391813 38.56806509 3.29902684 45.25257696 1.15234375 51.4453125 C-1.98459112 57.03862688 -6.9750684 60.85630359 -13.14453125 62.609375 C-26.51316599 64.4381896 -38.83001922 64.06960208 -50.125 56.25 C-51.07375 55.5075 -52.0225 54.765 -53 54 C-52.39305845 50.84669446 -51.3583335 48.81111133 -49.4375 46.25 C-48.98246094 45.63640625 -48.52742188 45.0228125 -48.05859375 44.390625 C-47.53458984 43.70226562 -47.53458984 43.70226562 -47 43 C-46.43152344 43.33773437 -45.86304688 43.67546875 -45.27734375 44.0234375 C-36.42355536 49.13764582 -28.30689336 51.25299488 -18 50 C-15.58587492 48.85113628 -15.58587492 48.85113628 -14 47 C-13.66619186 43.37436186 -13.66619186 43.37436186 -14 40 C-18.19844505 37.69696947 -22.30853318 36.22593668 -26.87890625 34.90844727 C-43.86044485 30.00366602 -43.86044485 30.00366602 -49 21.8125 C-50.66062283 15.48137547 -51.26551848 9.62838454 -48.375 3.625 C-35.60208687 -10.4924303 -15.55649089 -10.25314172 0 0 Z " fill="#294C70" transform="translate(415,239)"/>
<path d="M0 0 C5.28 0 10.56 0 16 0 C16 6.27 16 12.54 16 19 C22.27 19 28.54 19 35 19 C35 23.62 35 28.24 35 33 C28.73 33 22.46 33 16 33 C16.07403144 38.05456011 16.15688304 43.10735995 16.26245117 48.16113281 C16.29567681 49.87978965 16.32371616 51.59855499 16.34643555 53.31738281 C16.38002561 55.79018323 16.43234178 58.26199156 16.48828125 60.734375 C16.49467117 61.50118591 16.5010611 62.26799683 16.50764465 63.05804443 C16.59516921 66.2436623 16.81660054 68.64600685 18.29370117 71.49707031 C20.68605488 73.60428586 22.84559329 73.36075597 25.92578125 73.20703125 C28.64668596 72.93545319 31.3189187 72.53621626 34 72 C34.13504138 73.93559313 34.23201129 75.873872 34.3125 77.8125 C34.37050781 78.89144531 34.42851562 79.97039062 34.48828125 81.08203125 C34 84 34 84 31.73046875 85.82421875 C25.03491554 88.7074255 18.21732365 88.59584881 11 88 C6.0134372 85.76464426 3.65839957 82.72604367 1 78 C0.13005594 75.20295737 -0.12254183 72.70355175 -0.11352539 69.78222656 C-0.11344986 68.96167786 -0.11337433 68.14112915 -0.11329651 67.29571533 C-0.10813522 66.41953552 -0.10297394 65.54335571 -0.09765625 64.640625 C-0.0962413 63.73624695 -0.09482635 62.8318689 -0.09336853 61.90008545 C-0.08777911 59.01668973 -0.07522853 56.13337218 -0.0625 53.25 C-0.05748363 51.29296987 -0.05292096 49.33593853 -0.04882812 47.37890625 C-0.03781313 42.58590747 -0.02055574 37.79296698 0 33 C-3.3 33 -6.6 33 -10 33 C-10 28.38 -10 23.76 -10 19 C-6.7 19 -3.4 19 0 19 C0 12.73 0 6.46 0 0 Z " fill="#2B4D71" transform="translate(436,214)"/>
<path d="M0 0 C0.763125 0.309375 1.52625 0.61875 2.3125 0.9375 C9.96654653 3.9635184 19.07463534 4.46890002 26.875 1.5 C27.90625 1.005 28.9375 0.51 30 0 C30.20086443 3.71599191 30.1519437 4.77208445 28 8 C28.66 8 29.32 8 30 8 C30.25 10.3125 30.25 10.3125 30 13 C24.77509327 18.22490673 17.97900824 18.48504405 11 19 C13.04136395 19.05451714 15.08315856 19.09302485 17.125 19.125 C18.26195312 19.14820312 19.39890625 19.17140625 20.5703125 19.1953125 C24.05757767 18.99672109 26.7553862 18.2524801 30 17 C30 18.65 30 20.3 30 22 C22.43319729 26.65649398 15.73330595 27.12091054 7.04296875 25.421875 C2.19408042 24.11773908 2.19408042 24.11773908 0 23 C-0.495 21.515 -0.495 21.515 -1 20 C-3.21896136 21.82471891 -3.21896136 21.82471891 -3.375 24.4375 C-4 27 -4 27 -5.6875 28.6875 C-11.61392347 32.05114575 -17.29404818 32.72038661 -24 32 C-26.55915652 31.22990519 -28.60997397 30.24480522 -31 29 C-31.66 28.67 -32.32 28.34 -33 28 C-33 26.35 -33 24.7 -33 23 C-32.01 23 -31.02 23 -30 23 C-30.99 21.9171875 -30.99 21.9171875 -32 20.8125 C-34.1535853 17.78402067 -34.41176754 16.60296594 -34 13 C-33.34 12.67 -32.68 12.34 -32 12 C-32.33 11.67 -32.66 11.34 -33 11 C-33.375 8.6875 -33.375 8.6875 -33 6 C-27.72025878 0.86295449 -23.06179895 0.71781352 -16.01171875 0.77734375 C-10.11798099 1.21306755 -5.99546438 4.00272137 -1 7 C-0.34 7 0.32 7 1 7 C0.505 3.535 0.505 3.535 0 0 Z " fill="#F9F4E6" transform="translate(437,71)"/>
<path d="M0 0 C5.18440329 2.92851523 8.63454659 6.97450651 11.1875 12.3125 C12.60112145 19.38060725 12.38599805 25.00520351 8.8125 31.4375 C5.54420158 36.08446117 2.33802976 39.63107681 -3.1875 41.4375 C-9.25041626 42.14087754 -13.9586513 41.84233171 -19.1875 38.4375 C-20.05375 37.90125 -20.92 37.365 -21.8125 36.8125 C-26.91127598 31.71372402 -28.4548026 26.04985525 -28.8125 18.9375 C-28.59764499 12.37674887 -26.69475925 8.16961119 -22.1875 3.4375 C-15.79745401 -2.06376261 -7.74872972 -3.48692837 0 0 Z " fill="#F9FDFC" transform="translate(618.1875,247.5625)"/>
<path d="M0 0 C4.21134516 2.60539609 7.71603184 6.77190743 9.92578125 11.19140625 C10.07722689 13.78928154 10.15715106 16.34249446 10.17578125 18.94140625 C10.19640625 19.64523437 10.21703125 20.3490625 10.23828125 21.07421875 C10.27997205 26.6816309 9.15773392 30.76784744 5.2421875 35.01953125 C4.66339844 35.48875 4.08460938 35.95796875 3.48828125 36.44140625 C2.91207031 36.9209375 2.33585937 37.40046875 1.7421875 37.89453125 C-3.62942209 41.72974498 -8.58995617 42.17413617 -15.07421875 41.19140625 C-20.78535739 38.8051855 -25.27227453 34.88442103 -28.265625 29.45703125 C-30.88978737 22.10430576 -29.30986263 14.09504299 -26.07421875 7.19140625 C-20.06872978 -2.46027245 -10.04015997 -4.16495614 0 0 Z " fill="#F9FBFB" transform="translate(325.07421875,247.80859375)"/>
<path d="M0 0 C5.33445615 3.11341865 9.32120751 7.27127119 11.6640625 13.0390625 C12.49488513 20.88357386 12.7217152 28.61195307 7.6640625 35.0390625 C3.31539273 39.6736722 -0.9030288 41.84286019 -7.2109375 42.3515625 C-12.6966096 42.18626918 -16.77691531 40.30803405 -21.0234375 36.8515625 C-25.94282208 30.8685272 -28.12206584 25.70268849 -27.7734375 17.84765625 C-26.69997355 10.95640107 -23.76094 5.66873228 -18.2109375 1.4140625 C-12.40769516 -1.97518552 -6.26707631 -2.57809494 0 0 Z " fill="#FAFDFD" transform="translate(700.3359375,246.9609375)"/>
<path d="M0 0 C7.1775 -0.12375 7.1775 -0.12375 14.5 -0.25 C15.99337891 -0.28641602 17.48675781 -0.32283203 19.02539062 -0.36035156 C26.45890579 -0.42233084 31.81077214 -0.30818802 38 4 C40.99416931 7.36137875 42.22549219 11.61226864 42.5625 16.0625 C41.8553137 21.01280412 40.55079253 23.55391295 37 27 C29.71024596 31.91389427 21.91019415 31.47360354 13.4375 31.25 C9.003125 31.1675 4.56875 31.085 0 31 C0 20.77 0 10.54 0 0 Z " fill="#F9FDFC" transform="translate(503,226)"/>
<path d="M0 0 C4.29 0 8.58 0 13 0 C13 12.21 13 24.42 13 37 C8.71 37 4.42 37 0 37 C0 24.79 0 12.58 0 0 Z " fill="#679738" transform="translate(602,72)"/>
<path d="M0 0 C4.62 0 9.24 0 14 0 C14 4.62 14 9.24 14 14 C12.68 14 11.36 14 10 14 C10 12.68 10 11.36 10 10 C4.02632011 13.64699159 -0.63432648 18.33177701 -5.52148438 23.30664062 C-10.31321163 27.9716284 -10.31321163 27.9716284 -13.7421875 28.11328125 C-16.8237222 26.5938394 -18.84872978 24.59041865 -21.25390625 22.1796875 C-22.90781758 20.83088367 -22.90781758 20.83088367 -24.875 20.96875 C-28.60969571 22.78117586 -31.13910944 26.14832835 -33.84570312 29.2265625 C-35.24609375 30.7265625 -35.24609375 30.7265625 -38 33 C-40.84765625 32.8359375 -40.84765625 32.8359375 -43 32 C-41.34460834 27.74327859 -38.26236271 25.00257093 -35.0625 21.875 C-34.52431641 21.33746094 -33.98613281 20.79992187 -33.43164062 20.24609375 C-27.11545355 14 -27.11545355 14 -23.75 14 C-19.75858127 15.45142499 -17.06005824 18.11631399 -14 21 C-11.05886531 19.66465724 -8.89154831 18.17535119 -6.546875 15.9609375 C-5.928125 15.38085938 -5.309375 14.80078125 -4.671875 14.203125 C-4.03765625 13.59984375 -3.4034375 12.9965625 -2.75 12.375 C-2.1003125 11.76398437 -1.450625 11.15296875 -0.78125 10.5234375 C0.81645063 9.01971926 2.40999149 7.51184263 4 6 C2.68 5.67 1.36 5.34 0 5 C0 3.35 0 1.7 0 0 Z " fill="#63982F" transform="translate(601,51)"/>
<path d="M0 0 C4.62 0 9.24 0 14 0 C14 8.25 14 16.5 14 25 C9.38 25 4.76 25 0 25 C0 16.75 0 8.5 0 0 Z " fill="#6F9D43" transform="translate(580,84)"/>
<path d="M0 0 C2.9375 1.625 2.9375 1.625 5.9375 3.625 C5.875 5.875 5.875 5.875 4.9375 8.625 C-0.56348827 13.47110871 -6.38970382 13.2004679 -13.50390625 13.03125 C-18.05606661 12.51157417 -20.4877296 11.4150647 -24.0625 8.625 C-24.375 6.375 -24.375 6.375 -24.0625 3.625 C-17.80218474 -2.46611755 -8.03143453 -3.40519066 0 0 Z " fill="#C3A135" transform="translate(428.0625,73.375)"/>
<path d="M0 0 C0.74701172 -0.03738281 1.49402344 -0.07476562 2.26367188 -0.11328125 C6.46938283 -0.17974551 8.93829241 0.15834124 12.23046875 2.8984375 C13.04128906 3.71570312 13.85210937 4.53296875 14.6875 5.375 C14.5 7.1875 14.5 7.1875 13.6875 9.375 C7.1156356 13.92475228 1.55576892 13.91828523 -6.3125 13.375 C-9.96437634 12.43768507 -12.61496944 11.07253056 -15.3125 8.375 C-15.0728518 5.89863527 -14.51119504 4.61885301 -12.9375 2.6875 C-9.1817212 -0.34601364 -4.58987587 0.08579207 0 0 Z " fill="#C3A134" transform="translate(452.3125,58.625)"/>
<path d="M0 0 C4.29 0 8.58 0 13 0 C13 6.6 13 13.2 13 20 C8.71 20 4.42 20 0 20 C0 13.4 0 6.8 0 0 Z " fill="#69973D" transform="translate(559,89)"/>
<path d="M0 0 C0.51046875 0.28875 1.0209375 0.5775 1.546875 0.875 C8.80631505 4.58194811 15.81801664 5.28085747 23.765625 3.31640625 C25.8859598 2.61962956 27.94605629 1.87137006 30 1 C30 2.65 30 4.3 30 6 C23.29993637 10.12311608 17.81384202 10.89031712 10 10 C6.10066882 9.03439275 2.89485674 7.89485674 0 5 C-0.125 2.375 -0.125 2.375 0 0 Z " fill="#C8A944" transform="translate(437,87)"/>
<path d="M0 0 C4.75 1.875 4.75 1.875 7 3 C9.76198762 3.12528003 12.48779681 3.18517882 15.25 3.1875 C16.00152344 3.19974609 16.75304687 3.21199219 17.52734375 3.22460938 C22.08361483 3.23653679 25.70947281 2.72850856 30 1 C29.9375 3.3125 29.9375 3.3125 29 6 C22.61805639 10.40658011 14.44894323 9.77678332 7 9 C4.11376275 7.96951962 2.43573717 6.90106316 0 5 C0 3.35 0 1.7 0 0 Z " fill="#C3A339" transform="translate(437,96)"/>
<path d="M0 0 C0.763125 0.309375 1.52625 0.61875 2.3125 0.9375 C9.96654653 3.9635184 19.07463534 4.46890002 26.875 1.5 C27.90625 1.005 28.9375 0.51 30 0 C30.3125 2.3125 30.3125 2.3125 30 5 C23.39608227 9.99755937 15.94597776 9.64354376 8 9 C4.83072298 8.06696485 3.56926312 7.21076129 1 5 C0.0625 2.25 0.0625 2.25 0 0 Z " fill="#CCAF4D" transform="translate(437,71)"/>
<path d="M0 0 C4.75 1.875 4.75 1.875 7 3 C9.94874168 3.1251687 12.86356546 3.18517983 15.8125 3.1875 C17.02389648 3.20586914 17.02389648 3.20586914 18.25976562 3.22460938 C22.62852255 3.23534342 26.02254059 3.04117085 30 1 C29.875 3.3125 29.875 3.3125 29 6 C24.42075656 8.94079854 20.32280623 9.49252901 15 9.4375 C14.31421875 9.45748047 13.6284375 9.47746094 12.921875 9.49804688 C7.82782877 9.49318614 4.87735459 8.25484353 1 5 C0.125 2.25 0.125 2.25 0 0 Z " fill="#CAAA47" transform="translate(437,79)"/>
<path d="M0 0 C0.82628906 0.48726563 1.65257812 0.97453125 2.50390625 1.4765625 C6.44227888 3.19272488 9.72537012 3.44672974 13.9375 3.375 C14.95360352 3.39240234 14.95360352 3.39240234 15.99023438 3.41015625 C21.08317537 3.38085841 24.52504021 2.20539088 29 0 C29.3125 2.3125 29.3125 2.3125 29 5 C24.25485378 8.59092147 20.01829896 9.175485 14.1875 9.25 C12.38345703 9.28867188 12.38345703 9.28867188 10.54296875 9.328125 C6.53532162 8.95696474 2.93020203 7.93020203 0 5 C-0.04063832 3.33382885 -0.042721 1.66611905 0 0 Z " fill="#CCAF4A" transform="translate(404,102)"/>
<path d="M0 0 C0.61746094 0.2165625 1.23492187 0.433125 1.87109375 0.65625 C12.23992104 4.06517952 19.64960615 3.25021713 30 0 C29.2109375 3.796875 29.2109375 3.796875 27.3125 5.625 C21.45143906 9.10995515 15.6906378 9.7187415 9 9 C6.44084348 8.22990519 4.39002603 7.24480522 2 6 C1.34 5.67 0.68 5.34 0 5 C0 3.35 0 1.7 0 0 Z " fill="#C2A13C" transform="translate(404,94)"/>
<path d="M0 0 C0.33 1.32 0.66 2.64 1 4 C-6.49508263 9.16327915 -12.01755154 9.59379166 -21 9 C-23.98055639 8.37741668 -25.40072815 7.71315645 -28 6 C-28.9375 3.3125 -28.9375 3.3125 -29 1 C-28.17371094 1.32355469 -27.34742188 1.64710937 -26.49609375 1.98046875 C-22.61799965 3.11139899 -19.06334243 3.33142546 -15.0625 3.3125 C-14.38509766 3.32861328 -13.70769531 3.34472656 -13.00976562 3.36132812 C-7.89427367 3.36623272 -4.49100716 2.21915478 0 0 Z " fill="#C8A949" transform="translate(433,85)"/>
<path d="M0 0 C0.33 0 0.66 0 1 0 C1 1.65 1 3.3 1 5 C8.10761773 7.88425067 15.07363084 9.66715542 22.5625 7.1328125 C24.76212358 6.16695214 26.88391267 5.13557273 29 4 C29.66 3.67 30.32 3.34 31 3 C31 6 31 9 31 12 C30.34 11.01 29.68 10.02 29 9 C28.17628906 9.48726562 27.35257812 9.97453125 26.50390625 10.4765625 C22.52799138 12.20522114 19.18901109 12.44645397 14.9375 12.375 C14.24333984 12.38660156 13.54917969 12.39820312 12.83398438 12.41015625 C8.37769404 12.38476428 5.58867497 11.64428682 2 9 C1.34 9.99 0.68 10.98 0 12 C0 8.04 0 4.08 0 0 Z " fill="#F5EFD2" transform="translate(403,94)"/>
<path d="M0 0 C2.18408203 0.35083008 2.18408203 0.35083008 4 1 C3.67 1.66 3.34 2.32 3 3 C4.65 3 6.3 3 8 3 C8 3.99 8 4.98 8 6 C7.29875 5.71125 6.5975 5.4225 5.875 5.125 C2.71235341 4.65649267 2.71235341 4.65649267 0.0625 7.5625 C-0.97375316 8.69440729 -1.99415827 9.84098441 -3 11 C-4.92581653 13.21908809 -6.7652314 15.05052101 -9 17 C-11.875 16.875 -11.875 16.875 -14 16 C-12.32357676 11.74685214 -9.2824091 8.87898186 -6.125 5.6875 C-5.59519531 5.12482422 -5.06539062 4.56214844 -4.51953125 3.98242188 C-2.9453125 2.38671875 -2.9453125 2.38671875 0 0 Z " fill="#78A742" transform="translate(572,67)"/>
<path d="M0 0 C4.69212285 0.13800361 7.03764599 2.53501324 10.25390625 5.625 C12.19786107 7.15581006 13.55075448 7.71035893 16 8 C17.58333333 6.58333333 17.58333333 6.58333333 19 5 C19.99 5 20.98 5 22 5 C20.43681592 8.83690637 18.2046685 11.39154889 15 14 C12.5 14.1875 12.5 14.1875 10 13 C8.06037003 11.11351058 6.6087073 9.20622716 5 7 C5 6.67 5 6.34 5 6 C3.35 5.67 1.7 5.34 0 5 C-0.5625 3.0625 -0.5625 3.0625 -1 1 C-0.67 0.67 -0.34 0.34 0 0 Z " fill="#74A243" transform="translate(575,65)"/>
<path d="M0 0 C0.33 1.32 0.66 2.64 1 4 C-4.1470027 8.52936238 -10.14734707 9.35434442 -16.78125 9.1953125 C-20.10600161 8.9026407 -22.87061703 8.17351861 -26 7 C-26.33 6.34 -26.66 5.68 -27 5 C-26.34 4.34 -25.68 3.68 -25 3 C-23.65361897 3.27594746 -22.32191744 3.62393728 -21 4 C-12.88031716 4.65515959 -6.96147498 4.3679843 0 0 Z " fill="#F6F1D9" transform="translate(433,89)"/>
<path d="M0 0 C0.33 0.99 0.66 1.98 1 3 C2.65 3 4.3 3 6 3 C5.01 3.7734375 5.01 3.7734375 4 4.5625 C2.31856421 5.92866658 0.65419119 7.31931539 -0.9375 8.7890625 C-1.618125 9.41554688 -2.29875 10.04203125 -3 10.6875 C-3.639375 11.28949219 -4.27875 11.89148438 -4.9375 12.51171875 C-7.31971886 14.23070622 -9.13441919 14.50862637 -12 15 C-12.99 15.66 -13.98 16.32 -15 17 C-15 14 -15 14 -13.75 12.421875 C-13.1725 11.87015625 -12.595 11.3184375 -12 10.75 C-11.36964844 10.14542969 -10.73929688 9.54085937 -10.08984375 8.91796875 C-6.78110218 5.88134798 -3.41407974 2.91748632 0 0 Z " fill="#77A943" transform="translate(605,57)"/>
<path d="M0 0 C0 3 0 3 -1 6 C-7.82243685 9.01644834 -16.59539453 9.47246985 -23.6875 7.1015625 C-25.875 6 -25.875 6 -29 4 C-29 3.67 -29 3.34 -29 3 C-27.783125 3.165 -26.56625 3.33 -25.3125 3.5 C-12.60462541 5.14901808 -12.60462541 5.14901808 -1 1 C-0.67 0.67 -0.34 0.34 0 0 Z " fill="#F6F3E6" transform="translate(466,67)"/>
<path d="M0 0 C0.33 0.99 0.66 1.98 1 3 C-4.05085777 6.03051466 -7.91162333 6.46427151 -13.625 6.375 C-14.75035156 6.39240234 -14.75035156 6.39240234 -15.8984375 6.41015625 C-20.19789377 6.3872868 -22.89949937 6.10050063 -26 3 C-25.67 2.34 -25.34 1.68 -25 1 C-23.88625 1.2475 -23.88625 1.2475 -22.75 1.5 C-14.42760858 2.60965219 -7.68587503 0 0 0 Z " fill="#F9F7E7" transform="translate(466,94)"/>
<path d="M0 0 C0.7425 0.45375 1.485 0.9075 2.25 1.375 C7.12213424 3.85814088 12.64597165 4.26360452 18 5 C17.01 6.485 17.01 6.485 16 8 C13.3203125 8.3984375 13.3203125 8.3984375 10.125 8.375 C9.07570313 8.38273437 8.02640625 8.39046875 6.9453125 8.3984375 C3.69831497 7.9591885 2.29338824 7.30984796 0 5 C-0.25 2.3125 -0.25 2.3125 0 0 Z " fill="#BF9D2F" transform="translate(404,102)"/>
<path d="M0 0 C1.051875 0.433125 1.051875 0.433125 2.125 0.875 C8.15090871 3.23296428 13.57341962 4.45731099 20 5 C20 5.33 20 5.66 20 6 C15.00837524 8.04784606 10.33453156 8.80410218 5 8 C1.9375 6.25 1.9375 6.25 0 4 C0 2.68 0 1.36 0 0 Z " fill="#C6A63F" transform="translate(437,71)"/>
<path d="M0 0 C4.75 1.875 4.75 1.875 7 3 C9.37123246 3.23029956 11.74741943 3.41119942 14.125 3.5625 C15.40632813 3.64628906 16.68765625 3.73007813 18.0078125 3.81640625 C19.48894531 3.90728516 19.48894531 3.90728516 21 4 C21 4.33 21 4.66 21 5 C17.37 5.33 13.74 5.66 10 6 C10.33 6.99 10.66 7.98 11 9 C6.67810149 8.49745366 3.40579311 7.8047708 0 5 C-0.3125 2.3125 -0.3125 2.3125 0 0 Z " fill="#CAAD49" transform="translate(437,96)"/>
<path d="M0 0 C0.33 0.66 0.66 1.32 1 2 C0.35891863 3.67667436 -0.31471955 5.34089996 -1 7 C-1.37293912 8.41184096 -1.7263384 9.82895325 -2.0625 11.25 C-3 15 -3 15 -4 16 C-4.23653523 18.52596259 -4.42173692 21.03107207 -4.5625 23.5625 C-4.60568359 24.27341797 -4.64886719 24.98433594 -4.69335938 25.71679688 C-4.79971777 27.47761912 -4.90038846 29.2387832 -5 31 C-5.33 31 -5.66 31 -6 31 C-6.82329045 10.41773866 -6.82329045 10.41773866 -2 1 C-1.34 0.67 -0.68 0.34 0 0 Z " fill="#627B92" transform="translate(194,235)"/>
<path d="M0 0 C0.33 1.32 0.66 2.64 1 4 C-1.75 6.0625 -1.75 6.0625 -5 8 C-6.90625 7.65625 -6.90625 7.65625 -9 7 C-10.58025005 6.78807905 -12.16398461 6.60076629 -13.75 6.4375 C-14.54921875 6.35371094 -15.3484375 6.26992187 -16.171875 6.18359375 C-16.77515625 6.12300781 -17.3784375 6.06242187 -18 6 C-18 5.67 -18 5.34 -18 5 C-16.700625 4.9175 -15.40125 4.835 -14.0625 4.75 C-8.85905135 4.19661737 -4.62978432 2.35320007 0 0 Z " fill="#C19C30" transform="translate(433,85)"/>
<path d="M0 0 C0.66 0.99 1.32 1.98 2 3 C-2.67049515 5.7376287 -5.98799719 6.33996234 -11.375 6.1875 C-12.62023437 6.16042969 -13.86546875 6.13335937 -15.1484375 6.10546875 C-16.55996094 6.05326172 -16.55996094 6.05326172 -18 6 C-17.67 5.34 -17.34 4.68 -17 4 C-14.9609375 3.69140625 -14.9609375 3.69140625 -12.375 3.5625 C-7.62795372 3.19419469 -4.2405193 2.12025965 0 0 Z " fill="#FEFDF7" transform="translate(465,85)"/>
<path d="M0 0 C-2.90511754 2.82179677 -4.46544831 3.94119343 -8.55078125 4.390625 C-9.79214844 4.34421875 -11.03351563 4.2978125 -12.3125 4.25 C-14.19388672 4.19585937 -14.19388672 4.19585937 -16.11328125 4.140625 C-17.06589844 4.09421875 -18.01851563 4.0478125 -19 4 C-19 3.34 -19 2.68 -19 2 C-18.11248047 1.92652344 -18.11248047 1.92652344 -17.20703125 1.8515625 C-12.11329526 1.37592404 -12.11329526 1.37592404 -7.25 -0.125 C-4.45790625 -1.21081424 -2.83528103 -0.8100803 0 0 Z " fill="#FDFCF8" transform="translate(467,79)"/>
<path d="M0 0 C0.91058531 3.07322544 1.08886184 5.80097361 1 9 C0.34 8.01 -0.32 7.02 -1 6 C-1.928125 6.495 -2.85625 6.99 -3.8125 7.5 C-7 9 -7 9 -10 9 C-10 7.68 -10 6.36 -10 5 C-9.36191406 4.72285156 -8.72382813 4.44570312 -8.06640625 4.16015625 C-7.24011719 3.79792969 -6.41382813 3.43570313 -5.5625 3.0625 C-4.73878906 2.70285156 -3.91507812 2.34320313 -3.06640625 1.97265625 C-1.05589883 1.16877677 -1.05589883 1.16877677 0 0 Z " fill="#F3ECD4" transform="translate(433,97)"/>
<path d="M0 0 C5.28 0.33 10.56 0.66 16 1 C16 1.33 16 1.66 16 2 C12.7 2.33 9.4 2.66 6 3 C9.3 3.33 12.6 3.66 16 4 C16 4.33 16 4.66 16 5 C14.08364783 5.05423638 12.16685075 5.09289963 10.25 5.125 C8.64898437 5.15980469 8.64898437 5.15980469 7.015625 5.1953125 C4.07529894 5.00487687 2.47638122 4.52670104 0 3 C0 2.01 0 1.02 0 0 Z " fill="#F1E8C8" transform="translate(442,87)"/>
<path d="M0 0 C0.9075 0.474375 1.815 0.94875 2.75 1.4375 C7.92493256 3.69953238 13.42797318 3.73466539 19 4 C19 4.33 19 4.66 19 5 C16.03 5 13.06 5 10 5 C10 5.66 10 6.32 10 7 C6.4257023 6.67506385 4.44287547 6.36129314 1.625 4.0625 C0 2 0 2 0 0 Z " fill="#F4EED8" transform="translate(438,76)"/>
<path d="M0 0 C3.13143808 0.2472188 4.5769416 0.54672314 6.75 2.875 C8 5 8 5 9 8 C7.68 8 6.36 8 5 8 C5 7.34 5 6.68 5 6 C3.35 5.67 1.7 5.34 0 5 C-0.5625 3.0625 -0.5625 3.0625 -1 1 C-0.67 0.67 -0.34 0.34 0 0 Z " fill="#699A33" transform="translate(575,65)"/>
<path d="M0 0 C0.33 0.99 0.66 1.98 1 3 C-4.1468192 6.16727335 -8.158256 6.35050464 -14 6 C-13.42507813 5.71382813 -12.85015625 5.42765625 -12.2578125 5.1328125 C-10.8108611 4.40683342 -9.36774192 3.6731345 -7.9296875 2.9296875 C-7.25164062 2.58164063 -6.57359375 2.23359375 -5.875 1.875 C-5.19179688 1.52179688 -4.50859375 1.16859375 -3.8046875 0.8046875 C-2 0 -2 0 0 0 Z " fill="#F6F2DE" transform="translate(466,94)"/>
<path d="M0 0 C4.62 0 9.24 0 14 0 C14 4.62 14 9.24 14 14 C12.68 14 11.36 14 10 14 C10.33 12.68 10.66 11.36 11 10 C11.33 10.33 11.66 10.66 12 11 C12.33 7.7 12.66 4.4 13 1 C8.71 1 4.42 1 0 1 C0 0.67 0 0.34 0 0 Z " fill="#81B054" transform="translate(601,51)"/>
<path d="M0 0 C1.65322266 0.01740234 1.65322266 0.01740234 3.33984375 0.03515625 C4.99693359 0.04869141 4.99693359 0.04869141 6.6875 0.0625 C7.54214844 0.07410156 8.39679688 0.08570312 9.27734375 0.09765625 C8.94734375 1.08765625 8.61734375 2.07765625 8.27734375 3.09765625 C6.84026285 3.15188572 5.40258913 3.19055348 3.96484375 3.22265625 C3.16433594 3.24585937 2.36382812 3.2690625 1.5390625 3.29296875 C-0.72265625 3.09765625 -0.72265625 3.09765625 -3.72265625 1.09765625 C-2.72265625 0.09765625 -2.72265625 0.09765625 0 0 Z " fill="#FCFAED" transform="translate(414.72265625,102.90234375)"/>
<path d="M0 0 C3.45925163 1.2491742 6.14693203 2.67527795 9 5 C6 7 6 7 3.9375 6.75 C2 6 2 6 0 4 C0 2.68 0 1.36 0 0 Z " fill="#C5A73D" transform="translate(437,79)"/>
<path d="M0 0 C0.99 0 1.98 0 3 0 C1.72431911 2.84574968 0.58503711 5.18089981 -2 7 C-4.6875 6.6875 -4.6875 6.6875 -7 6 C-7 5.34 -7 4.68 -7 4 C-5.824375 3.566875 -5.824375 3.566875 -4.625 3.125 C-1.90328368 2.15087746 -1.90328368 2.15087746 0 0 Z " fill="#679935" transform="translate(594,70)"/>
<path d="M0 0 C0.33 1.32 0.66 2.64 1 4 C-1.62198774 6.15377564 -3.64404172 7.40072174 -7 8 C-6.67 7.01 -6.34 6.02 -6 5 C-6.66 4.67 -7.32 4.34 -8 4 C-5.36 2.68 -2.72 1.36 0 0 Z " fill="#F3EACC" transform="translate(433,89)"/>
<path d="M0 0 C4.95 0 9.9 0 15 0 C15 0.33 15 0.66 15 1 C9.555 1.495 9.555 1.495 4 2 C4.33 2.99 4.66 3.98 5 5 C2.03 4.505 2.03 4.505 -1 4 C-0.67 2.68 -0.34 1.36 0 0 Z " fill="#D0B75E" transform="translate(443,100)"/>
<path d="M0 0 C0.66 0 1.32 0 2 0 C1.39816251 2.02045442 0.72693904 4.02111039 0 6 C-2.49092811 7.24546405 -3.41080733 6.7767578 -6 6 C-5.67 4.68 -5.34 3.36 -5 2 C-2 2 -2 2 0 3 C0 2.01 0 1.02 0 0 Z " fill="#32517B" transform="translate(347,281)"/>
<path d="M0 0 C0.33 1.32 0.66 2.64 1 4 C0.01 4 -0.98 4 -2 4 C-2 4.66 -2 5.32 -2 6 C-3.65 6.33 -5.3 6.66 -7 7 C-7 6.01 -7 5.02 -7 4 C-4.69 2.68 -2.38 1.36 0 0 Z " fill="#C5A739" transform="translate(432,102)"/>
<path d="M0 0 C1.98 0.99 3.96 1.98 6 3 C6 4.65 6 6.3 6 8 C1.125 6.125 1.125 6.125 0 5 C-0.04063832 3.33382885 -0.042721 1.66611905 0 0 Z " fill="#C6A740" transform="translate(404,102)"/>
<path d="M0 0 C0.33 1.32 0.66 2.64 1 4 C-1.475 5.485 -1.475 5.485 -4 7 C-4.99 5.68 -5.98 4.36 -7 3 C-4.69 2.01 -2.38 1.02 0 0 Z " fill="#C9AD4B" transform="translate(433,85)"/>
<path d="M0 0 C0.99 0.33 1.98 0.66 3 1 C1.73742767 2.17560179 0.46462916 3.34022865 -0.8125 4.5 C-1.87404297 5.47453125 -1.87404297 5.47453125 -2.95703125 6.46875 C-5 8 -5 8 -8 8 C-7.04578192 6.85073734 -6.08647955 5.70569459 -5.125 4.5625 C-4.59132813 3.92441406 -4.05765625 3.28632812 -3.5078125 2.62890625 C-2 1 -2 1 0 0 Z " fill="#7FB24D" transform="translate(606,61)"/>
<path d="M0 0 C-4.625 4 -4.625 4 -8 4 C-8 2.68 -8 1.36 -8 0 C-4.71023192 -1.09658936 -3.28696233 -0.79953138 0 0 Z " fill="#F3EEDC" transform="translate(467,79)"/>
<path d="M0 0 C0 3 0 3 -1 6 C-3.0625 6.6875 -3.0625 6.6875 -5 7 C-5 6.34 -5 5.68 -5 5 C-5.66 4.67 -6.32 4.34 -7 4 C-6.030625 3.525625 -5.06125 3.05125 -4.0625 2.5625 C-1.19522563 1.29806053 -1.19522563 1.29806053 0 0 Z " fill="#EFEAD5" transform="translate(466,67)"/>
<path d="M0 0 C1.49080078 0.02707031 1.49080078 0.02707031 3.01171875 0.0546875 C3.77097656 0.07789063 4.53023438 0.10109375 5.3125 0.125 C5.3125 0.455 5.3125 0.785 5.3125 1.125 C4.28189453 1.18107422 4.28189453 1.18107422 3.23046875 1.23828125 C2.32941406 1.30402344 1.42835938 1.36976563 0.5 1.4375 C-0.39332031 1.49550781 -1.28664063 1.55351562 -2.20703125 1.61328125 C-5.03274829 2.19622445 -5.81255566 3.02483712 -7.6875 5.125 C-8.3475 5.125 -9.0075 5.125 -9.6875 5.125 C-7.93798051 -0.12355846 -4.97877546 -0.11714766 0 0 Z " fill="#CDD4D9" transform="translate(389.6875,243.875)"/>
<path d="M0 0 C-0.1875 1.8125 -0.1875 1.8125 -1 4 C-3.5625 5.75 -3.5625 5.75 -6 7 C-6 6.34 -6 5.68 -6 5 C-5.34 5 -4.68 5 -4 5 C-4 4.34 -4 3.68 -4 3 C-4.66 2.67 -5.32 2.34 -6 2 C-2.25 0 -2.25 0 0 0 Z " fill="#C7A943" transform="translate(434,94)"/>
<path d="M0 0 C0.66 0.99 1.32 1.98 2 3 C-1.465 4.485 -1.465 4.485 -5 6 C-5 4.68 -5 3.36 -5 2 C-3.35 1.34 -1.7 0.68 0 0 Z " fill="#F5F0E0" transform="translate(465,85)"/>
<path d="M0 0 C0 0.66 0 1.32 0 2 C-1.53125 3.2890625 -1.53125 3.2890625 -3.5 4.625 C-4.1496875 5.07101563 -4.799375 5.51703125 -5.46875 5.9765625 C-5.9740625 6.31429687 -6.479375 6.65203125 -7 7 C-6.01695477 2.51137841 -4.96473025 0 0 0 Z " fill="#1F4567" transform="translate(208,220)"/>
<path d="M0 0 C0.66 0.33 1.32 0.66 2 1 C1.0479279 2.00596297 0.08812654 3.00461563 -0.875 4 C-1.40867187 4.556875 -1.94234375 5.11375 -2.4921875 5.6875 C-4 7 -4 7 -6 7 C-4.60667426 3.63279613 -3.0210714 2.0140476 0 0 Z " fill="#D7DEE2" transform="translate(306,248)"/>
<path d="M0 0 C0.33 0.66 0.66 1.32 1 2 C0.0625 4.625 0.0625 4.625 -1 7 C-1.66 7 -2.32 7 -3 7 C-2.625 4.0625 -2.625 4.0625 -2 1 C-1.34 0.67 -0.68 0.34 0 0 Z " fill="#395A77" transform="translate(194,235)"/>
<path d="M0 0 C0.33 0.99 0.66 1.98 1 3 C-0.98 3.66 -2.96 4.32 -5 5 C-4.625 3.0625 -4.625 3.0625 -4 1 C-2 0 -2 0 0 0 Z " fill="#F1ECD4" transform="translate(466,94)"/>
</svg>
