<?xml version="1.0" encoding="UTF-8"?>
<svg version="1.1" xmlns="http://www.w3.org/2000/svg" width="499" height="96">
<path d="M0 0 C0.99457718 0.00212242 0.99457718 0.00212242 2.00924683 0.00428772 C4.12860613 0.00988871 6.24786009 0.02244125 8.3671875 0.03515625 C9.80338389 0.04017113 11.23958194 0.04473406 12.67578125 0.04882812 C16.19795095 0.05985843 19.72005895 0.07712366 23.2421875 0.09765625 C23.2421875 2.73765625 23.2421875 5.37765625 23.2421875 8.09765625 C21.2621875 8.09765625 19.2821875 8.09765625 17.2421875 8.09765625 C17.7371875 9.08765625 17.7371875 9.08765625 18.2421875 10.09765625 C19.05108461 16.60861496 18.14288727 20.82644035 14.2421875 26.09765625 C9.65864312 29.53531454 5.68072001 30.23062009 0.0546875 30.09765625 C-1.54903918 30.06008725 -3.15432666 30.05092442 -4.7578125 30.09765625 C-5.0878125 30.42765625 -5.4178125 30.75765625 -5.7578125 31.09765625 C-4.67242187 31.27941406 -3.58703125 31.46117188 -2.46875 31.6484375 C-1.02335113 31.90185159 0.42195668 32.1557855 1.8671875 32.41015625 C2.58003906 32.52810547 3.29289062 32.64605469 4.02734375 32.76757812 C9.32423382 33.7151869 13.62249215 35.26608958 18.0859375 38.38671875 C20.85085123 42.4780438 19.86499942 48.42069129 19.2421875 53.09765625 C16.37125845 57.31961074 12.87980441 59.11010615 8.2421875 61.09765625 C0.25822859 61.9847628 -7.5975772 61.95316756 -14.7578125 58.09765625 C-17.64475102 55.67635298 -18.03296767 53.26036658 -18.5703125 49.66015625 C-19.00309448 44.38887178 -17.66770627 41.4624969 -14.7578125 37.09765625 C-15.7478125 36.76765625 -16.7378125 36.43765625 -17.7578125 36.09765625 C-17.7578125 34.11765625 -17.7578125 32.13765625 -17.7578125 30.09765625 C-16.7678125 29.76765625 -15.7778125 29.43765625 -14.7578125 29.09765625 C-14.7578125 28.43765625 -14.7578125 27.77765625 -14.7578125 27.09765625 C-14.0978125 27.09765625 -13.4378125 27.09765625 -12.7578125 27.09765625 C-13.5003125 25.70546875 -13.5003125 25.70546875 -14.2578125 24.28515625 C-16.33476773 19.30449662 -16.848834 14.39365643 -15.7578125 9.09765625 C-11.5285084 2.19199565 -7.97269213 -0.03349871 0 0 Z M-4.8203125 10.16015625 C-7.06186972 12.95484018 -7.06186972 12.95484018 -6.6953125 16.28515625 C-5.95812692 19.19548422 -5.95812692 19.19548422 -3.7578125 21.09765625 C1.36633006 22.40132004 1.36633006 22.40132004 6.2421875 21.09765625 C8.3404181 17.89641567 8.3404181 17.89641567 9.2421875 14.09765625 C8.64861332 11.08048085 8.64861332 11.08048085 6.2421875 9.09765625 C1.80077547 7.37839998 -0.84916475 7.48570981 -4.8203125 10.16015625 Z M-7.8828125 42.78515625 C-9.01694085 45.78249546 -8.97598102 47.12837049 -7.7578125 50.09765625 C-4.36605125 53.07829492 -1.08647039 53.68603036 3.30078125 53.51953125 C6.73827382 52.77255097 8.28121207 50.88097621 10.2421875 48.09765625 C10.15454979 45.03033648 9.42866369 44.28413244 7.2421875 42.09765625 C2.45935773 40.52368892 -3.78563159 39.53151259 -7.8828125 42.78515625 Z " fill="#01050E" transform="translate(300.7578125,34.90234375)"/>
<path d="M0 0 C3.3 0 6.6 0 10 0 C10 7.92 10 15.84 10 24 C18.25 24 26.5 24 35 24 C35 16.08 35 8.16 35 0 C38.63 0 42.26 0 46 0 C46 19.14 46 38.28 46 58 C42.37 58 38.74 58 35 58 C35 49.75 35 41.5 35 33 C26.75 33 18.5 33 10 33 C10 41.25 10 49.5 10 58 C6.7 58 3.4 58 0 58 C0 38.86 0 19.72 0 0 Z " fill="#01050D" transform="translate(121,19)"/>
<path d="M0 0 C3.3 0 6.6 0 10 0 C10.33 0.99 10.66 1.98 11 3 C11.67160156 2.51273438 12.34320313 2.02546875 13.03515625 1.5234375 C16.71397716 -0.36686573 19.31691298 -0.39989781 23.4375 -0.375 C24.71496094 -0.38273437 25.99242187 -0.39046875 27.30859375 -0.3984375 C31.18713411 0.0201986 33.65529219 1.04590486 37 3 C37 3.66 37 4.32 37 5 C37.66 5 38.32 5 39 5 C43.97666882 13.18742289 44.93540771 20.07575119 43.4375 29.5625 C41.11510827 35.11604544 37.60906856 39.54377569 32.3125 42.5 C24.13902086 43.7337327 18.5100403 43.75502015 11 40 C10.67 46.6 10.34 53.2 10 60 C6.7 60 3.4 60 0 60 C0 40.2 0 20.4 0 0 Z M12 13 C9.75051084 16.96338566 9.59805491 20.49821502 10 25 C11.53175002 28.209381 13.29086312 30.70326101 16 33 C20.16849321 34.2333744 23.84580345 34.47673336 27.875 32.8125 C31.27051621 29.91632441 32.71758562 28.06914016 33.875 23.6875 C34.06178571 18.17732141 32.47284281 14.68943734 28.875 10.5625 C22.83834496 7.28170922 16.68421184 7.74800491 12 13 Z " fill="#01050D" transform="translate(405,35)"/>
<path d="M0 0 C2.97 0 5.94 0 9 0 C10.58403524 1.58403524 10.21974935 3.2771638 10.31640625 5.47265625 C10.37924805 6.82133789 10.37924805 6.82133789 10.44335938 8.19726562 C10.48267578 9.14279297 10.52199219 10.08832031 10.5625 11.0625 C10.60568359 12.01189453 10.64886719 12.96128906 10.69335938 13.93945312 C10.79979276 16.29281353 10.90181008 18.64628354 11 21 C12.03640625 20.26910156 12.03640625 20.26910156 13.09375 19.5234375 C16.49198049 17.742107 18.6847055 17.59825728 22.5 17.625 C23.6034375 17.61726563 24.706875 17.60953125 25.84375 17.6015625 C30.11362963 18.14058196 32.77325144 19.68238117 35.6875 22.8125 C38.63046737 27.71744561 39.24531141 32.27981103 39.1953125 37.9296875 C39.18886719 39.21875 39.18242187 40.5078125 39.17578125 41.8359375 C39.15907463 43.18229442 39.14214479 44.52864859 39.125 45.875 C39.11495664 47.24478517 39.10583317 48.61457742 39.09765625 49.984375 C39.07414412 53.32309756 39.0412793 56.66145761 39 60 C35.37 60 31.74 60 28 60 C27.98541748 59.13721436 27.97083496 58.27442871 27.95581055 57.38549805 C27.89472246 54.18150353 27.82056451 50.97815375 27.73754883 47.7746582 C27.70431451 46.38870623 27.67627774 45.00261939 27.65356445 43.61645508 C27.61999383 41.62293157 27.56612 39.62978259 27.51171875 37.63671875 C27.48553467 36.43748779 27.45935059 35.23825684 27.43237305 34.00268555 C27.23144148 31.04058675 27.23144148 31.04058675 25.71020508 29.11645508 C23.31622886 27.55362092 20.93500364 27.53811782 18.1328125 27.40625 C15.59864936 28.11173131 13.81971651 29.10015732 12.02148438 31.03857422 C9.56872561 35.74829312 10.21162768 41.63041145 10.1875 46.8125 C10.16236328 48.07771484 10.13722656 49.34292969 10.11132812 50.64648438 C10.05249509 53.76463543 10.01618494 56.88138367 10 60 C6.7 60 3.4 60 0 60 C0 40.2 0 20.4 0 0 Z " fill="#01050D" transform="translate(456,17)"/>
<path d="M0 0 C0.69480469 -0.01611328 1.38960938 -0.03222656 2.10546875 -0.04882812 C6.86195623 -0.05330693 10.05172956 0.8927986 14.125 3.3125 C14.125 3.9725 14.125 4.6325 14.125 5.3125 C14.785 5.3125 15.445 5.3125 16.125 5.3125 C19.33113909 10.12170863 19.24769772 14.46011675 19.22265625 20.14453125 C19.21943359 21.43681641 19.21621094 22.72910156 19.21289062 24.06054688 C19.20453665 25.41536526 19.19607172 26.77018297 19.1875 28.125 C19.18248 29.49934735 19.17791797 30.87369645 19.17382812 32.24804688 C19.16205668 35.60290924 19.14561283 38.95768221 19.125 42.3125 C15.825 42.3125 12.525 42.3125 9.125 42.3125 C8.795 41.3225 8.465 40.3325 8.125 39.3125 C7.3825 39.9725 6.64 40.6325 5.875 41.3125 C1.18405776 44.46964967 -4.45620761 43.93970881 -9.875 43.3125 C-14.32978265 41.89767633 -16.18718193 40.1522401 -18.875 36.3125 C-20.41097454 33.24055092 -20.1015038 30.71005707 -19.875 27.3125 C-18.31445324 22.63085971 -16.31402189 20.48573468 -11.98999023 18.12182617 C-8.0524155 16.61506636 -4.09400499 16.8981363 0.0625 17.0625 C1.37444336 17.08957031 1.37444336 17.08957031 2.71289062 17.1171875 C4.85074108 17.16391647 6.98802045 17.23564559 9.125 17.3125 C8.53589844 16.18070313 7.94679688 15.04890625 7.33984375 13.8828125 C7.00847412 13.24617676 6.67710449 12.60954102 6.33569336 11.95361328 C5.09016601 9.93312339 5.09016601 9.93312339 1.6875 9.1875 C-2.20327195 9.32401831 -3.89182916 9.85577108 -6.875 12.3125 C-7.205 13.3025 -7.535 14.2925 -7.875 15.3125 C-11.175 15.3125 -14.475 15.3125 -17.875 15.3125 C-18.3255519 12.23372867 -18.37542912 10.10239302 -16.6796875 7.42578125 C-11.62354429 1.36603173 -7.92967752 -0.03637467 0 0 Z M-7.875 26.3125 C-8.73474801 28.60544488 -8.73474801 28.60544488 -8.875 31.3125 C-7.50216577 33.85252013 -7.50216577 33.85252013 -4.875 35.3125 C-0.48946937 35.39223692 1.53604049 34.77342483 5 32.0625 C7.1313241 29.30431587 7.83136093 27.73828919 8.125 24.3125 C2.38657749 24.10836639 -2.48039047 24.04108546 -7.875 26.3125 Z " fill="#01050D" transform="translate(377.875,34.6875)"/>
<path d="M0 0 C1.06577271 0.0014502 1.06577271 0.0014502 2.15307617 0.00292969 C7.51557115 0.18256127 10.7660856 1.28817483 14.70703125 4.859375 C20.17429957 11.1488974 21.64525502 16.16259169 21.51171875 24.47265625 C21.04610241 28.9100361 19.7875497 32.90156045 17.1875 36.5625 C16.1975 36.8925 15.2075 37.2225 14.1875 37.5625 C13.8575 38.5525 13.5275 39.5425 13.1875 40.5625 C6.53435626 43.88907187 -0.73482819 45.05859973 -8 42.91796875 C-9.875 42.125 -9.875 42.125 -12.8125 40.5625 C-13.4725 40.2325 -14.1325 39.9025 -14.8125 39.5625 C-14.8125 38.9025 -14.8125 38.2425 -14.8125 37.5625 C-15.8025 37.2325 -16.7925 36.9025 -17.8125 36.5625 C-21.27173457 30.73154942 -22.97623846 24.2745673 -21.8125 17.5625 C-19.71919573 10.72288018 -16.42804204 6.22213434 -10.640625 1.96484375 C-7.07985729 0.19921446 -3.8982044 -0.01275859 0 0 Z M-9.8125 14.5625 C-11.47765151 19.55795453 -11.67842117 24.57088132 -9.5625 29.4375 C-7.70007114 31.69902076 -6.41196641 33.19055939 -3.8125 34.5625 C0.3344048 34.93275936 3.77144756 35.12453933 7.1875 32.5625 C10.85819719 28.49851383 10.47591441 24.27437676 10.390625 19.0859375 C10.27863902 16.43743401 10.27863902 16.43743401 9.1875 13.5625 C8.5275 13.5625 7.8675 13.5625 7.1875 13.5625 C6.8575 12.5725 6.5275 11.5825 6.1875 10.5625 C-0.04454454 7.44647773 -5.76927138 9.12941155 -9.8125 14.5625 Z " fill="#01050E" transform="translate(257.8125,34.4375)"/>
<path d="M0 0 C3.2533348 1.76135961 5.38549431 3.69367327 6.52734375 7.24609375 C7.18734375 7.24609375 7.84734375 7.24609375 8.52734375 7.24609375 C11.88581905 14.80266318 13.0114038 21.73365636 10.15234375 29.68359375 C8.52734375 33.24609375 8.52734375 33.24609375 6.52734375 36.24609375 C5.86734375 36.24609375 5.20734375 36.24609375 4.52734375 36.24609375 C4.52734375 36.90609375 4.52734375 37.56609375 4.52734375 38.24609375 C-1.99088172 42.77263921 -8.7144389 43.00806153 -16.47265625 42.24609375 C-19.47292618 41.19874342 -21.74591485 39.92408846 -24.47265625 38.24609375 C-24.47265625 37.58609375 -24.47265625 36.92609375 -24.47265625 36.24609375 C-25.46265625 35.91609375 -26.45265625 35.58609375 -27.47265625 35.24609375 C-31.68024591 29.19504508 -32.47422128 22.40160473 -31.47265625 15.24609375 C-29.70022951 8.56540836 -26.26389702 4.00838474 -20.47265625 0.24609375 C-14.42826675 -1.76870275 -6.14626681 -1.87398024 0 0 Z M-17.47265625 10.24609375 C-17.47265625 10.90609375 -17.47265625 11.56609375 -17.47265625 12.24609375 C-18.13265625 12.24609375 -18.79265625 12.24609375 -19.47265625 12.24609375 C-21.30060129 17.72992887 -21.41348515 23.94106296 -19.22265625 29.30859375 C-16.30806135 32.53546667 -14.41843079 33.12349335 -10.09765625 33.68359375 C-5.26347407 33.10015797 -3.84203624 31.69569707 -0.47265625 28.24609375 C1.10088184 23.52547947 1.68136211 17.98073441 -0.296875 13.29296875 C-1.77174064 11.03406673 -3.04024269 9.46230053 -5.47265625 8.24609375 C-7.58220687 8.04870652 -7.58220687 8.04870652 -9.91015625 8.05859375 C-10.69261719 8.04441406 -11.47507813 8.03023437 -12.28125 8.015625 C-14.76471612 8.10523311 -14.76471612 8.10523311 -17.47265625 10.24609375 Z " fill="#01050E" transform="translate(203.47265625,35.75390625)"/>
<path d="M0 0 C0.8146875 0.00257812 1.629375 0.00515625 2.46875 0.0078125 C3.2834375 0.00523438 4.098125 0.00265625 4.9375 0 C6.96875 0.1328125 6.96875 0.1328125 7.96875 1.1328125 C8.06256302 2.97399279 8.08618954 4.81878891 8.08227539 6.66235352 C8.08219986 7.84350235 8.08212433 9.02465118 8.08204651 10.24159241 C8.07688522 11.5269841 8.07172394 12.81237579 8.06640625 14.13671875 C8.0649913 15.44487045 8.06357635 16.75302216 8.06211853 18.10081482 C8.0582941 21.58444109 8.04846446 25.06802589 8.03741455 28.55163574 C8.02719882 32.10407958 8.02262056 35.65653009 8.01757812 39.20898438 C8.00684212 46.18361254 7.98924593 53.15820626 7.96875 60.1328125 C4.33875 60.1328125 0.70875 60.1328125 -3.03125 60.1328125 C-3.05380523 52.45744273 -3.07216753 44.78208521 -3.08306217 37.10669041 C-3.08828995 33.54303828 -3.09538569 29.97940993 -3.10668945 26.41577148 C-3.11959176 22.32275153 -3.12447906 18.2297567 -3.12890625 14.13671875 C-3.13406754 12.85132706 -3.13922882 11.56593536 -3.14454651 10.24159241 C-3.14462204 9.06044357 -3.14469757 7.87929474 -3.14477539 6.66235352 C-3.146996 5.61644547 -3.14921661 4.57053741 -3.15150452 3.49293518 C-3.00031699 0.5257193 -2.9553146 0.19323211 0 0 Z " fill="#00040E" transform="translate(223.03125,16.8671875)"/>
<path d="M0 0 C3.3 0 6.6 0 10 0 C10 1.65 10 3.3 10 5 C10.66 5 11.32 5 12 5 C12 4.34 12 3.68 12 3 C16.37149656 -0.66641647 20.60258708 -0.31749488 26 0 C26.02689216 1.47906892 26.04634621 2.95827483 26.0625 4.4375 C26.07410156 5.26121094 26.08570313 6.08492187 26.09765625 6.93359375 C26 9 26 9 25 10 C23.56697286 10.29358162 22.12836347 10.56017203 20.6875 10.8125 C16.69061512 11.67669132 14.3975378 12.50359071 12 16 C11.16649764 19.36768987 10.83218132 22.62206358 10.68359375 26.08203125 C10.64169922 27.01337891 10.59980469 27.94472656 10.55664062 28.90429688 C10.51732422 29.86400391 10.47800781 30.82371094 10.4375 31.8125 C10.39431641 32.79154297 10.35113281 33.77058594 10.30664062 34.77929688 C10.20097834 37.18604898 10.10002535 39.59300703 10 42 C6.7 42 3.4 42 0 42 C0 28.14 0 14.28 0 0 Z " fill="#01050E" transform="translate(330,35)"/>
<path d="M0 0 C1.98 0 3.96 0 6 0 C6.0989211 4.21746325 6.17149012 8.43431121 6.21972656 12.65258789 C6.23983525 14.08727786 6.26712673 15.52188593 6.30175781 16.95629883 C6.3503146 19.01924839 6.37297406 21.08111431 6.390625 23.14453125 C6.41157227 24.38565674 6.43251953 25.62678223 6.45410156 26.90551758 C6 30 6 30 4.10058594 31.9284668 C2 33 2 33 0 33 C0 22.11 0 11.22 0 0 Z " fill="#377FC2" transform="translate(78,53)"/>
<path d="M0 0 C5 2 5 2 6 3 C6.08783542 5.21855264 6.10694609 7.43988496 6.09765625 9.66015625 C6.0962413 10.32462265 6.09482635 10.98908905 6.09336853 11.6736908 C6.08775518 13.80333899 6.07520054 15.93288339 6.0625 18.0625 C6.05748671 19.50325369 6.05292351 20.94400903 6.04882812 22.38476562 C6.03778145 25.92321102 6.02050792 29.46159539 6 33 C4.02 33 2.04 33 0 33 C0 22.11 0 11.22 0 0 Z " fill="#377FC3" transform="translate(78,10)"/>
<path d="M0 0 C5.75 1.875 5.75 1.875 8 3 C8 9.93 8 16.86 8 24 C1 23 1 23 0 22 C-0.08700342 20.36527118 -0.10701063 18.72685945 -0.09765625 17.08984375 C-0.09443359 16.10048828 -0.09121094 15.11113281 -0.08789062 14.09179688 C-0.07951172 13.05087891 -0.07113281 12.00996094 -0.0625 10.9375 C-0.05798828 9.89271484 -0.05347656 8.84792969 -0.04882812 7.77148438 C-0.03699913 5.1809334 -0.02051689 2.59049441 0 0 Z " fill="#2467B5" transform="translate(32,71)"/>
<path d="M0 0 C0 6.93 0 13.86 0 21 C-6 24 -6 24 -8 24 C-8.08681476 20.37515001 -8.14032721 16.75056557 -8.1875 13.125 C-8.21263672 12.09246094 -8.23777344 11.05992188 -8.26367188 9.99609375 C-8.27333984 9.00996094 -8.28300781 8.02382812 -8.29296875 7.0078125 C-8.31653442 5.64100342 -8.31653442 5.64100342 -8.34057617 4.24658203 C-8.22818604 3.50520996 -8.1157959 2.76383789 -8 2 C-5 0 -5 0 0 0 Z " fill="#2467B5" transform="translate(40,1)"/>
<path d="M0 0 C0 6.93 0 13.86 0 21 C-2.64 21 -5.28 21 -8 21 C-8 14.4 -8 7.8 -8 1 C-3 0 -3 0 0 0 Z " fill="#04449D" transform="translate(58,75)"/>
<path d="M0 0 C2.64 0 5.28 0 8 0 C8 6.93 8 13.86 8 21 C5.36 20.67 2.72 20.34 0 20 C0 13.4 0 6.8 0 0 Z " fill="#03449D" transform="translate(50,0)"/>
<path d="M0 0 C1.65 0 3.3 0 5 0 C5 10.89 5 21.78 5 33 C3.35 32.34 1.7 31.68 0 31 C0 20.77 0 10.54 0 0 Z " fill="#367FC7" transform="translate(16,53)"/>
<path d="M0 0 C2.16874252 0.50603992 3.99967627 0.99983813 6 2 C6 11.24 6 20.48 6 30 C5.34 30 4.68 30 4 30 C1.45720668 27.42440217 0.1186594 25.74800079 -0.45410156 22.13745117 C-0.4331543 21.11627197 -0.41220703 20.09509277 -0.390625 19.04296875 C-0.37773438 17.93115234 -0.36484375 16.81933594 -0.3515625 15.67382812 C-0.31804687 14.52333984 -0.28453125 13.37285156 -0.25 12.1875 C-0.23195313 11.01767578 -0.21390625 9.84785156 -0.1953125 8.64257812 C-0.1482644 5.7608822 -0.08253709 2.88086203 0 0 Z " fill="#2268B7" transform="translate(69,4)"/>
<path d="M0 0 C0.07409401 3.95092059 0.12857406 7.90157294 0.16479492 11.85302734 C0.18732251 13.85919374 0.2254357 15.86516526 0.26367188 17.87109375 C0.27817383 19.75634766 0.27817383 19.75634766 0.29296875 21.6796875 C0.3086792 22.84226074 0.32438965 24.00483398 0.34057617 25.20263672 C0.22818604 26.1257666 0.1157959 27.04889648 0 28 C-3 30 -3 30 -6 30 C-6.14547545 25.93787788 -6.23413226 21.87642713 -6.3125 17.8125 C-6.35439453 16.66201172 -6.39628906 15.51152344 -6.43945312 14.32617188 C-6.56046435 5.97639707 -6.56046435 5.97639707 -4.89990234 3.08349609 C-1.87731481 0 -1.87731481 0 0 0 Z " fill="#2268B8" transform="translate(75,62)"/>
<path d="M0 0 C0 10.89 0 21.78 0 33 C-1.65 33 -3.3 33 -5 33 C-5.0740719 28.62178091 -5.12856375 24.24389218 -5.16479492 19.86523438 C-5.179896 18.37526091 -5.20037858 16.88533199 -5.22631836 15.39550781 C-5.26264584 13.2557477 -5.27971221 11.11657434 -5.29296875 8.9765625 C-5.3086792 7.68830566 -5.32438965 6.40004883 -5.34057617 5.07275391 C-5.22818604 4.05874512 -5.1157959 3.04473633 -5 2 C-2 0 -2 0 0 0 Z " fill="#367FC6" transform="translate(21,10)"/>
<path d="M0 0 C0.11668214 3.87474457 0.18741231 7.74903396 0.25 11.625 C0.28351562 12.71941406 0.31703125 13.81382813 0.3515625 14.94140625 C0.4275409 21.20962433 0.42227739 25.33204054 -4 30 C-4.66 30 -5.32 30 -6 30 C-6.07409401 26.04907941 -6.12857406 22.09842706 -6.16479492 18.14697266 C-6.18732251 16.14080626 -6.2254357 14.13483474 -6.26367188 12.12890625 C-6.27333984 10.87207031 -6.28300781 9.61523438 -6.29296875 8.3203125 C-6.3086792 7.15773926 -6.32438965 5.99516602 -6.34057617 4.79736328 C-6.22818604 3.8742334 -6.1157959 2.95110352 -6 2 C-3 0 -3 0 0 0 Z " fill="#2666AF" transform="translate(30,4)"/>
<path d="M0 0 C0.66 0 1.32 0 2 0 C6.42227739 4.66795946 6.4275409 8.79037567 6.3515625 15.05859375 C6.31804688 16.15300781 6.28453125 17.24742188 6.25 18.375 C6.23195313 19.49261719 6.21390625 20.61023438 6.1953125 21.76171875 C6.14835555 24.5087003 6.08269468 27.25390047 6 30 C4.02 29.34 2.04 28.68 0 28 C0 18.76 0 9.52 0 0 Z " fill="#2667AF" transform="translate(24,62)"/>
<path d="M0 0 C0 7.59 0 15.18 0 23 C-2.31 23.33 -4.62 23.66 -7 24 C-7 17.07 -7 10.14 -7 3 C-1 0 -1 0 0 0 Z " fill="#2367B5" transform="translate(66,71)"/>
<path d="M0 0 C2.31 0.33 4.62 0.66 7 1 C7 8.59 7 16.18 7 24 C4.69 23.01 2.38 22.02 0 21 C0 14.07 0 7.14 0 0 Z " fill="#2366B4" transform="translate(59,1)"/>
<path d="M0 0 C2.31 0.33 4.62 0.66 7 1 C7 7.6 7 14.2 7 21 C4.69 21 2.38 21 0 21 C0 14.07 0 7.14 0 0 Z " fill="#03449C" transform="translate(41,75)"/>
<path d="M0 0 C2.31 0 4.62 0 7 0 C7 6.6 7 13.2 7 20 C4.69 20.33 2.38 20.66 0 21 C0 14.07 0 7.14 0 0 Z " fill="#03439D" transform="translate(41,0)"/>
<path d="M0 0 C1.65 0 3.3 0 5 0 C5.08724706 3.4165052 5.14047325 6.83272313 5.1875 10.25 C5.21263672 11.21808594 5.23777344 12.18617187 5.26367188 13.18359375 C5.27333984 14.11816406 5.28300781 15.05273438 5.29296875 16.015625 C5.3086792 16.87446289 5.32438965 17.73330078 5.34057617 18.61816406 C4.92586985 21.51843281 4.00490394 22.8930382 2 25 C1.34 25 0.68 25 0 25 C0 16.75 0 8.5 0 0 Z " fill="#3680C5" transform="translate(86,53)"/>
<path d="M0 0 C3 1 3 1 5 4 C5.22705078 6.26831055 5.22705078 6.26831055 5.1953125 8.88671875 C5.18886719 9.82451172 5.18242188 10.76230469 5.17578125 11.72851562 C5.15902344 12.70498047 5.14226562 13.68144531 5.125 14.6875 C5.11597656 15.67556641 5.10695313 16.66363281 5.09765625 17.68164062 C5.0740843 20.12133765 5.04118022 22.56054697 5 25 C3.35 25 1.7 25 0 25 C0 16.75 0 8.5 0 0 Z " fill="#3780C5" transform="translate(86,18)"/>
<path d="M0 0 C1.32 0 2.64 0 4 0 C4 8.25 4 16.5 4 25 C0 21 0 21 -0.45410156 18.61816406 C-0.4331543 17.75932617 -0.41220703 16.90048828 -0.390625 16.015625 C-0.37773438 15.08105469 -0.36484375 14.14648438 -0.3515625 13.18359375 C-0.31804688 12.21550781 -0.28453125 11.24742188 -0.25 10.25 C-0.23195313 9.26644531 -0.21390625 8.28289063 -0.1953125 7.26953125 C-0.14824126 4.84536217 -0.08250742 2.42317941 0 0 Z " fill="#3B7EBE" transform="translate(8,53)"/>
<path d="M0 0 C0.33 0 0.66 0 1 0 C1 8.25 1 16.5 1 25 C-0.32 25 -1.64 25 -3 25 C-3.08724706 21.5834948 -3.14047325 18.16727687 -3.1875 14.75 C-3.21263672 13.78191406 -3.23777344 12.81382813 -3.26367188 11.81640625 C-3.27333984 10.88183594 -3.28300781 9.94726562 -3.29296875 8.984375 C-3.3086792 8.12553711 -3.32438965 7.26669922 -3.34057617 6.38183594 C-2.92870391 3.50138732 -1.94496507 2.12670014 0 0 Z " fill="#3B7DBE" transform="translate(11,18)"/>
<path d="M0 0 C1.32 0 2.64 0 4 0 C4 3.3 4 6.6 4 10 C3.34 10 2.68 10 2 10 C0.68373308 6.38026598 0 3.90432869 0 0 Z " fill="#5C9BDF" transform="translate(1,53)"/>
<path d="M0 0 C0.66 0 1.32 0 2 0 C2 3.3 2 6.6 2 10 C0.68 10 -0.64 10 -2 10 C-1.54177532 6.53058454 -1.10868317 3.32604951 0 0 Z " fill="#599BDE" transform="translate(3,33)"/>
<path d="M0 0 C1.32 0 2.64 0 4 0 C3.34 3.3 2.68 6.6 2 10 C1.34 10 0.68 10 0 10 C0 6.7 0 3.4 0 0 Z " fill="#619BCF" transform="translate(94,53)"/>
<path d="M0 0 C0.66 0 1.32 0 2 0 C2.66 3.3 3.32 6.6 4 10 C2.68 10 1.36 10 0 10 C0 6.7 0 3.4 0 0 Z " fill="#629CD1" transform="translate(94,33)"/>
</svg>
