<?xml version="1.0" encoding="UTF-8"?>
<svg version="1.1" xmlns="http://www.w3.org/2000/svg" width="882" height="283">
<path d="M0 0 C1.16015625 -0.03287109 2.3203125 -0.06574219 3.515625 -0.09960938 C12.0082687 -0.15185718 18.31349007 1.64604882 25.875 5.4375 C27.12059692 6.03643066 27.12059692 6.03643066 28.39135742 6.64746094 C41.08866404 12.91011304 52.22264783 25.06198752 56.875 38.4375 C58.28028253 42.75093667 59.60917918 47.0811911 60.875 51.4375 C63.845 51.7675 66.815 52.0975 69.875 52.4375 C69.51222327 57.88982092 66.23619866 61.36569937 63 65.5 C62.45730469 66.20705078 61.91460938 66.91410156 61.35546875 67.64257812 C60.34142606 68.96281708 59.32377527 70.28029878 58.30126953 71.59399414 C56.80566636 73.52711628 55.33717351 75.47900973 53.875 77.4375 C51.895 76.9425 51.895 76.9425 49.875 76.4375 C49.875 75.7775 49.875 75.1175 49.875 74.4375 C49.215 74.4375 48.555 74.4375 47.875 74.4375 C46.6484375 72.8203125 46.6484375 72.8203125 45.25 70.5625 C42.31280962 65.94170918 38.94684278 61.88863772 35.31640625 57.796875 C33.875 55.4375 33.875 55.4375 34.15234375 52.640625 C34.39082031 51.91359375 34.62929688 51.1865625 34.875 50.4375 C38.75 51.3125 38.75 51.3125 39.875 52.4375 C40.205 51.1175 40.535 49.7975 40.875 48.4375 C41.535 48.4375 42.195 48.4375 42.875 48.4375 C40.45806263 41.24673601 37.40637024 34.77337483 31.875 29.4375 C31.01777344 29.1075 30.16054688 28.7775 29.27734375 28.4375 C26.31162855 27.20299091 26.21187918 26.24011419 24.875 23.4375 C14.69475247 16.47105462 2.26878105 14.91087388 -9.6875 17.125 C-21.10197962 20.10533482 -30.78646419 26.8597199 -37.3046875 36.7421875 C-44.3596341 49.88605067 -45.3592982 61.84793146 -41.375 76.125 C-37.77525089 86.40999746 -30.71609682 94.3720035 -21.125 99.4375 C-9.60897512 104.93057322 2.59488062 106.16635377 14.875 102.4375 C21.23783632 99.93516851 26.27827337 97.46810138 30.5625 92.0625 C33.26478321 89.01881484 35.18503387 88.19994296 39.14453125 87.9296875 C43.40882972 87.854276 47.62594868 88.08985035 51.875 88.4375 C51.875 95.39244982 46.1514726 100.20824364 41.5625 105.125 C30.60825712 115.68889124 15.54304576 121.07545385 0.5625 121.75 C-16.57141697 121.19330234 -31.94298467 114.50368 -44.125 102.4375 C-57.40830408 87.07507007 -61.23629229 71.55155613 -60.32470703 51.76367188 C-59.88071321 46.59206664 -58.2650367 42.12148761 -56.125 37.4375 C-55.79757812 36.61636719 -55.47015625 35.79523437 -55.1328125 34.94921875 C-50.36747546 24.04459713 -41.64088363 14.02191533 -31.125 8.4375 C-29.63226563 7.63892578 -29.63226563 7.63892578 -28.109375 6.82421875 C-18.37675247 1.80208963 -10.92421831 0.05355009 0 0 Z M42.875 49.4375 C43.875 52.4375 43.875 52.4375 43.875 52.4375 Z " fill="#639231" transform="translate(506.125,10.5625)"/>
<path d="M0 0 C12.56997955 10.52453349 20.73984223 24.27355652 22.96875 40.66015625 C24.01016586 58.32417144 19.6149023 74.18632108 8.3515625 88.1328125 C6.38551189 90.30435428 4.36755634 91.97008815 1.96875 93.66015625 C1.24816406 94.19382812 0.52757812 94.7275 -0.21484375 95.27734375 C-13.96854498 105.27613435 -29.05932281 110.57719447 -46.19140625 108.2265625 C-62.03850731 105.40111037 -76.77205245 97.41949555 -86.3671875 84.27734375 C-91.46072991 76.2663733 -95.56518554 68.1081272 -97.03125 58.66015625 C-100.33125 58.00015625 -103.63125 57.34015625 -107.03125 56.66015625 C-105.99846509 51.49623169 -105.16718195 50.21790743 -101.84375 46.41015625 C-97.844293 41.70153036 -94.32065687 36.88450833 -91.03125 31.66015625 C-88.36433959 32.03537092 -87.24891389 32.42322546 -85.3984375 34.4375 C-84.90601563 35.15035156 -84.41359375 35.86320312 -83.90625 36.59765625 C-82.351322 38.81725554 -80.95243997 40.73896628 -79.03125 42.66015625 C-77.46854111 44.93627572 -75.97233188 47.25089015 -74.46875 49.56640625 C-73.06374126 51.74947322 -73.06374126 51.74947322 -71.03125 53.66015625 C-71.03125 54.65015625 -71.03125 55.64015625 -71.03125 56.66015625 C-75.48625 57.15515625 -75.48625 57.15515625 -80.03125 57.66015625 C-77.30453802 69.11713027 -71.45214739 78.92387762 -61.375 85.35546875 C-50.66920509 91.18730966 -39.02975367 93.08187259 -27.03125 90.66015625 C-14.55779893 86.77676551 -4.00568205 79.39175891 2.28125 67.72265625 C7.60491744 55.9100551 7.44901569 42.76312291 3.22265625 30.62890625 C-1.58521024 19.24579557 -9.95132014 11.33423587 -21.3359375 6.625 C-33.30713338 2.33965887 -44.7861664 2.6181197 -56.55078125 7.76171875 C-62.63315498 10.97387524 -68.18912874 14.89697437 -72.03125 20.66015625 C-74.89453125 21.0234375 -74.89453125 21.0234375 -78.34375 20.97265625 C-79.47425781 20.96878906 -80.60476563 20.96492188 -81.76953125 20.9609375 C-84.92574382 20.66988556 -87.1813954 20.00220786 -90.03125 18.66015625 C-82.94612965 3.59982506 -70.28903059 -4.68661426 -55.07421875 -10.39453125 C-36.30168382 -16.22630718 -15.39159073 -11.88087996 0 0 Z " fill="#1F4268" transform="translate(412.03125,23.33984375)"/>
<path d="M0 0 C2.97 0 5.94 0 9 0 C9.00586624 1.25343704 9.01173248 2.50687408 9.01777649 3.79829407 C9.07512167 15.64148891 9.1479448 27.48450222 9.23571491 39.32751179 C9.28034084 45.41534907 9.31961416 51.50312063 9.34643555 57.59106445 C9.372546 63.4721088 9.41300324 69.35289917 9.46318626 75.23378563 C9.47980267 77.47148657 9.49134935 79.70923138 9.49761391 81.94698524 C9.5073119 85.09423745 9.53543929 88.24084747 9.56762695 91.38793945 C9.56619186 92.30216675 9.56475677 93.21639404 9.5632782 94.1583252 C9.72942082 105.73125955 13.01802657 116.27027989 20.78125 125.00390625 C34.4794419 138.00034652 52.58544413 137.29742089 70.21801758 137.24291992 C72.24468548 137.24399456 74.27135307 137.24593593 76.29801941 137.24867249 C81.77337866 137.2534959 87.24865567 137.24589553 92.72400498 137.23571944 C98.47450548 137.22689211 104.22500375 137.22869733 109.97550964 137.2290802 C119.63318241 137.22814531 129.29082364 137.2194866 138.94848633 137.20581055 C150.08311215 137.19010033 161.21770346 137.18481213 172.35233957 137.1855461 C184.2463167 137.18622401 196.14028069 137.17926789 208.03425384 137.1700995 C211.44286319 137.16797757 214.85147039 137.16725959 218.26008034 137.16686058 C223.63720122 137.16584866 229.01429365 137.15968346 234.39140511 137.14969444 C236.35404536 137.14679808 238.3166889 137.14553819 240.27933121 137.14612198 C270.18869241 137.74677767 270.18869241 137.74677767 295.75 123.8125 C308.33723876 110.69835357 306.1566016 90.01620015 306.07516479 73.25674438 C306.06217188 70.55681577 306.05582953 67.85693736 306.05102539 65.15698242 C306.03972206 59.4379653 306.02044515 53.71899077 306 48 C305.97630781 41.3370595 305.95598245 34.67414224 305.94406128 28.01116943 C305.93761972 25.36174304 305.92512195 22.71239061 305.91235352 20.06298828 C305.90872011 18.43391991 305.90536848 16.80485087 305.90234375 15.17578125 C305.89717743 14.44840256 305.89201111 13.72102386 305.88668823 12.97160339 C305.88623231 8.53293554 306.27876504 4.36484408 307 0 C309.97 0 312.94 0 316 0 C316.04650542 12.4226939 316.08196129 24.84536681 316.10362434 37.2681303 C316.11402572 43.03759034 316.12811781 48.80699045 316.15087891 54.57641602 C316.17273795 60.152597 316.184596 65.72872063 316.18975449 71.30494118 C316.19342692 73.42380487 316.20059773 75.54266571 316.21146011 77.66150475 C316.30678496 97.0406474 316.27686835 116.08303813 302 131 C286.21455415 145.89498481 269.10855845 146.30198209 248.57861328 146.25878906 C246.410918 146.26150235 244.24322364 146.26506518 242.07553101 146.26940918 C236.21183701 146.27849627 230.3482137 146.27500383 224.48451853 146.26865101 C218.33268455 146.26357064 212.18085644 146.26828823 206.02902222 146.27142334 C195.69788533 146.2750576 185.36677707 146.27027862 175.03564453 146.26074219 C163.11425292 146.24986446 151.19292976 146.25338047 139.27153981 146.264395 C129.0147182 146.27349014 118.75791713 146.2747421 108.50109279 146.26951766 C102.3846397 146.26640946 96.26821872 146.26595679 90.15176773 146.27259064 C84.39791051 146.2783957 78.64414094 146.27430962 72.89029312 146.26280212 C70.78652084 146.26017214 68.68274111 146.26089199 66.57897186 146.26532745 C46.20469471 146.30430127 28.70459004 145.52523367 13.18359375 130.4375 C0.06129102 115.78934811 -0.60993748 100.16610139 -0.64453125 81.50390625 C-0.66208609 79.33966283 -0.68121222 77.17543164 -0.701828 75.01121521 C-0.74093334 70.50038517 -0.76757411 65.98972886 -0.78393555 61.47875977 C-0.80498032 55.70299098 -0.84758588 49.92764789 -0.89822865 44.15207005 C-0.94587581 38.6235618 -0.98322737 33.09499877 -1.01953125 27.56640625 C-1.02720835 26.51694887 -1.03488544 25.46749149 -1.04279518 24.38623238 C-1.06258834 21.41446518 -1.07509931 18.44276132 -1.08520508 15.47094727 C-1.09186691 14.59657013 -1.09852875 13.72219299 -1.10539246 12.82131958 C-1.11218562 8.42845154 -0.88856602 4.32552043 0 0 Z " fill="#EEEFF2" transform="translate(283,0)"/>
<path d="M0 0 C3.61728917 1.80864459 5.85701582 3.86043781 8.0625 7.3125 C8.82433594 6.58933594 8.82433594 6.58933594 9.6015625 5.8515625 C16.53681358 -0.51224468 21.66091824 -2.18694276 31.08984375 -2 C37.04542801 -1.37392018 40.65247418 0.93380809 44.875 5.0625 C52.92778293 17.02663464 51.23736122 31.86362139 50.625 45.6875 C50.57155734 47.02080513 50.51882014 48.35413873 50.46679688 49.6875 C50.33891728 52.89611518 50.20170517 56.10435623 50.0625 59.3125 C45.1125 59.3125 40.1625 59.3125 35.0625 59.3125 C34.21257747 55.06288734 33.98214635 51.81785919 34.0703125 47.54296875 C34.09544922 45.59100586 34.09544922 45.59100586 34.12109375 43.59960938 C34.15193019 41.55241234 34.18737174 39.50564425 34.23388672 37.45874023 C34.53016978 26.50336682 34.53016978 26.50336682 31.0625 16.3125 C27.63488519 13.68200491 25.08069123 13.08960275 20.875 13.4375 C17.27961517 14.07143416 17.27961517 14.07143416 15.1875 15.375 C12.02982566 20.81321693 11.78044952 27.1425483 11.90234375 33.27734375 C11.90754532 33.99612198 11.91274689 34.71490021 11.91810608 35.45545959 C11.93572783 37.72052515 11.96691655 39.98511196 12 42.25 C12.02762306 44.5398314 12.052279 46.82960174 12.07118225 49.11952209 C12.08344464 50.53741695 12.10105355 51.95527754 12.12449646 53.37303162 C12.14143655 55.01956362 12.10713812 56.66648601 12.0625 58.3125 C11.0625 59.3125 11.0625 59.3125 7.68359375 59.41015625 C6.28902923 59.40348369 4.89448257 59.39152532 3.5 59.375 C2.78908203 59.37048828 2.07816406 59.36597656 1.34570312 59.36132812 C-0.41540013 59.34950864 -2.17646036 59.33157263 -3.9375 59.3125 C-3.97508423 57.87583984 -3.97508423 57.87583984 -4.01342773 56.41015625 C-4.10827972 52.82426755 -4.20830373 49.23853789 -4.30981445 45.65283203 C-4.35287149 44.10697169 -4.39456426 42.56107269 -4.43481445 41.01513672 C-4.49323303 38.78080639 -4.55671267 36.54666556 -4.62109375 34.3125 C-4.63780624 33.63195557 -4.65451874 32.95141113 -4.67173767 32.25024414 C-4.67728719 23.68174756 -4.67728719 23.68174756 -7.5 15.875 C-10.87604418 13.71086911 -13.93614929 13.07385085 -17.9375 13.3125 C-20.77408587 14.62923833 -20.77408587 14.62923833 -22.9375 16.3125 C-23.5975 16.3125 -24.2575 16.3125 -24.9375 16.3125 C-26.10762715 20.51829368 -26.14579311 24.64123868 -26.21875 28.98046875 C-26.23715942 29.81588699 -26.25556885 30.65130524 -26.27453613 31.51203918 C-26.35314126 35.08170933 -26.42121166 38.65155993 -26.48974609 42.22143555 C-26.54131913 44.82871265 -26.59860035 47.4358201 -26.65625 50.04296875 C-26.66982544 50.85646286 -26.68340088 51.66995697 -26.6973877 52.50810242 C-26.82462479 58.19962479 -26.82462479 58.19962479 -27.9375 59.3125 C-30.46799402 59.38563567 -32.97054837 59.40497527 -35.5 59.375 C-36.56637695 59.36823242 -36.56637695 59.36823242 -37.65429688 59.36132812 C-39.41540013 59.34950864 -41.17646036 59.33157263 -42.9375 59.3125 C-43.86431734 51.9620109 -44.00837556 44.79796224 -43.81640625 37.3984375 C-43.79279526 36.30278473 -43.76918427 35.20713196 -43.74485779 34.07827759 C-43.6689216 30.61452965 -43.58460019 27.15104604 -43.5 23.6875 C-43.44670902 21.32423124 -43.39396924 18.96094997 -43.34179688 16.59765625 C-43.21340247 10.83577343 -43.07749289 5.07411221 -42.9375 -0.6875 C-37.9875 -0.6875 -33.0375 -0.6875 -27.9375 -0.6875 C-27.6075 1.2925 -27.2775 3.2725 -26.9375 5.3125 C-26.39480469 4.89097656 -25.85210938 4.46945313 -25.29296875 4.03515625 C-24.57753906 3.48730469 -23.86210938 2.93945312 -23.125 2.375 C-22.41730469 1.82972656 -21.70960938 1.28445312 -20.98046875 0.72265625 C-14.98877311 -3.41310307 -6.47896264 -2.66464798 0 0 Z " fill="#61BEC9" transform="translate(682.9375,200.6875)"/>
<path d="M0 0 C1.35353828 -0.01210762 1.35353828 -0.01210762 2.73442078 -0.02445984 C4.65536567 -0.03832974 6.57633551 -0.04903881 8.49731445 -0.05688477 C11.39910026 -0.07392445 14.29969433 -0.11776094 17.20117188 -0.16210938 C28.70790717 -0.25909754 39.45020707 -0.13609179 49.13671875 6.92578125 C54.75020233 12.45691543 56.379107 18.4172832 56.69921875 26.17578125 C56.51705179 32.63570199 55.13910836 38.06336059 51.13671875 43.23828125 C50.14671875 43.56828125 49.15671875 43.89828125 48.13671875 44.23828125 C48.13671875 44.89828125 48.13671875 45.55828125 48.13671875 46.23828125 C45.16671875 47.88828125 42.19671875 49.53828125 39.13671875 51.23828125 C39.82894531 52.07746094 39.82894531 52.07746094 40.53515625 52.93359375 C44.69964873 58.05279201 48.7037386 63.26980213 52.57421875 68.61328125 C53.0110498 69.2077002 53.44788086 69.80211914 53.89794922 70.41455078 C55.99556221 73.33992881 57.40749972 75.72377806 58.13671875 79.23828125 C43.21252705 81.45474536 43.21252705 81.45474536 38.31738281 77.92724609 C33.69828574 73.02106228 30.58168659 66.96136151 27.4453125 61.05078125 C25.82969459 58.26495388 24.63997524 56.27696942 22.13671875 54.23828125 C17.05620202 53.11982897 12.31570226 53.01165906 7.13671875 53.23828125 C7.14457397 54.36641235 7.14457397 54.36641235 7.15258789 55.51733398 C7.17329102 58.90347467 7.18635752 62.28960209 7.19921875 65.67578125 C7.20759766 66.85978516 7.21597656 68.04378906 7.22460938 69.26367188 C7.22944336 70.95073242 7.22944336 70.95073242 7.234375 72.671875 C7.24223022 74.2350647 7.24223022 74.2350647 7.25024414 75.82983398 C7.13671875 78.23828125 7.13671875 78.23828125 6.13671875 79.23828125 C3.62535771 79.33803157 1.1476846 79.37710308 -1.36328125 79.36328125 C-2.06582031 79.36714844 -2.76835937 79.37101562 -3.4921875 79.375 C-8.73666747 79.36489503 -8.73666747 79.36489503 -9.86328125 78.23828125 C-9.9635592 75.84018976 -9.99946801 73.47088627 -9.99267578 71.07226562 C-9.9944281 70.32270096 -9.99618042 69.57313629 -9.99798584 68.80085754 C-10.00240445 66.31122556 -9.99946635 63.82166402 -9.99609375 61.33203125 C-9.99676679 59.60949693 -9.99773681 57.8869627 -9.99899292 56.16442871 C-10.0004699 52.54955137 -9.99831532 48.9346987 -9.99365234 45.31982422 C-9.98795505 40.67561632 -9.99123405 36.03146621 -9.99722481 31.38726044 C-10.00083041 27.82891399 -9.99969184 24.27058135 -9.99709702 20.7122345 C-9.99642774 18.99933363 -9.99725618 17.28643153 -9.99957657 15.5735321 C-10.00210308 13.18375303 -9.99826255 10.79406884 -9.99267578 8.40429688 C-9.99470001 7.68945633 -9.99672424 6.97461578 -9.99880981 6.2381134 C-9.96557747 -1.39660318 -6.71713954 0.05664969 0 0 Z M6.13671875 14.23828125 C6.46671875 22.48828125 6.79671875 30.73828125 7.13671875 39.23828125 C10.80796875 39.30015625 14.47921875 39.36203125 18.26171875 39.42578125 C19.40785645 39.45309326 20.55399414 39.48040527 21.73486328 39.50854492 C28.67560052 39.56513694 33.18183248 38.88212686 38.51171875 34.11328125 C40.78882388 30.0845568 40.78664005 26.76304979 40.13671875 22.23828125 C39.32464229 19.2733506 39.32464229 19.2733506 37.13671875 17.23828125 C30.39536976 14.00024904 24.52601037 13.87185483 17.13671875 14.05078125 C13.50671875 14.11265625 9.87671875 14.17453125 6.13671875 14.23828125 Z " fill="#60BEC8" transform="translate(427.86328125,180.76171875)"/>
<path d="M0 0 C4.47244206 2.58572722 8.55797933 5.59854262 11.82421875 9.6328125 C11.82421875 12.6328125 11.82421875 12.6328125 10.21484375 14.45703125 C9.15523437 15.37935547 9.15523437 15.37935547 8.07421875 16.3203125 C7.03007812 17.25423828 7.03007812 17.25423828 5.96484375 18.20703125 C3.82421875 19.6328125 3.82421875 19.6328125 -0.17578125 19.6328125 C-2.2890625 18.390625 -2.2890625 18.390625 -4.48828125 16.7578125 C-10.45577509 12.61670384 -15.87513757 11.00344667 -23.17578125 11.6328125 C-29.65885066 13.00556207 -34.86843305 15.50874633 -39.17578125 20.6328125 C-43.55052709 27.5738986 -45.21524348 35.76115543 -43.48828125 43.8203125 C-41.24467943 51.15630004 -37.53426817 56.3757445 -31.17578125 60.6328125 C-24.80063695 63.56537888 -17.94284889 62.82750288 -11.17578125 61.6328125 C-8.40313867 60.57565242 -6.61985352 59.40086478 -4.17578125 57.6328125 C-3.37140625 57.0553125 -2.56703125 56.4778125 -1.73828125 55.8828125 C-1.22265625 55.4703125 -0.70703125 55.0578125 -0.17578125 54.6328125 C-0.50578125 53.9728125 -0.83578125 53.3128125 -1.17578125 52.6328125 C2.83719502 53.16693894 5.0832738 54.23764362 8.13671875 56.8828125 C8.83410156 57.46546875 9.53148437 58.048125 10.25 58.6484375 C12.21877813 61.13017271 12.13853767 62.54289769 11.82421875 65.6328125 C10.83421875 65.6328125 9.84421875 65.6328125 8.82421875 65.6328125 C8.82421875 66.2928125 8.82421875 66.9528125 8.82421875 67.6328125 C-1.52063305 75.65732371 -12.08937717 79.08358207 -25.17578125 78.6328125 C-38.03268759 76.3188586 -47.40343289 69.99594365 -55.17578125 59.6328125 C-56.78905218 57.04774928 -58.05532128 54.46344821 -59.17578125 51.6328125 C-59.58828125 50.6015625 -60.00078125 49.5703125 -60.42578125 48.5078125 C-63.25728407 33.87838128 -60.08677245 22.81489736 -52.17578125 10.6328125 C-51.53640625 9.4984375 -50.89703125 8.3640625 -50.23828125 7.1953125 C-48.1124311 4.55410474 -46.49397594 3.53001905 -43.31640625 2.421875 C-41.07901525 1.64994313 -41.07901525 1.64994313 -38.72265625 0.34375 C-26.70956663 -5.66279481 -12.21524039 -5.47417943 0 0 Z " fill="#24456A" transform="translate(222.17578125,183.3671875)"/>
<path d="M0 0 C6.03866283 4.54877441 9.6234715 11.72588325 11.9765625 18.78515625 C12.6797544 27.64998534 12.16056277 34.8852956 7.9765625 42.78515625 C7.4403125 43.85765625 6.9040625 44.93015625 6.3515625 46.03515625 C0.48440172 52.82871083 -7.8324042 56.30718102 -16.671875 57.12109375 C-24.39389539 57.20203736 -30.41960607 56.96282564 -37.0234375 52.78515625 C-37.73113281 52.34945312 -38.43882812 51.91375 -39.16796875 51.46484375 C-45.66663385 47.05202106 -49.5464394 41.20528651 -52.0234375 33.78515625 C-52.99384972 24.64522722 -51.81459661 17.10080087 -48.0234375 8.78515625 C-47.5490625 7.60953125 -47.0746875 6.43390625 -46.5859375 5.22265625 C-44.62268567 2.1599834 -43.45319345 1.90355493 -40.0234375 0.78515625 C-37.7247033 -0.46496038 -35.46646029 -1.77411813 -33.20703125 -3.09375 C-22.96321055 -8.35309981 -9.46695038 -5.68382542 0 0 Z M-33.8984375 16.34765625 C-36.76475227 21.34509467 -37.04316518 26.17257508 -36.0234375 31.78515625 C-33.89693237 37.06236081 -31.18196308 40.2806547 -26.0234375 42.78515625 C-20.57057935 43.59978243 -15.60588452 43.46334783 -10.5234375 41.28515625 C-5.9034836 36.66520235 -3.81350422 32.2299086 -3.5859375 25.66015625 C-3.88151553 19.61928026 -5.83492846 15.72924231 -10.0234375 11.41015625 C-13.95658287 8.23691795 -17.50104476 8.02895917 -22.44140625 8.33984375 C-27.82976032 9.26915141 -30.758583 12.10013086 -33.8984375 16.34765625 Z " fill="#23456B" transform="translate(292.0234375,204.21484375)"/>
<path d="M0 0 C8.34274358 5.53146026 12.99602691 13.21823036 15 23 C16.09298868 32.04851288 13.01897771 40.5209815 8 48 C1.51123779 54.36887745 -7.51228752 58.42644694 -16.578125 59.1015625 C-27.23888474 58.65449838 -36.11919159 54.58108252 -43.42578125 46.9296875 C-49.60713185 39.35254806 -50.92257401 30.54607828 -50 21 C-47.6777117 12.30403999 -43.7403665 5.46458335 -36.0625 0.6875 C-24.81304382 -5.81971316 -11.51429662 -6.26278383 0 0 Z M-31.3125 16.5 C-34.37212795 21.03278215 -34.5560429 25.60132897 -34 31 C-32.33394351 36.17354385 -30.34894458 39.69102043 -26 43 C-20.33466194 45.41383081 -15.63999605 45.29684513 -9.9453125 43.0546875 C-5.8733127 40.84697677 -3.74590719 37.15481711 -2 33 C-1.34489397 27.59918402 -1.05713629 21.9324382 -3.625 17 C-6.85892898 12.91503707 -9.30021762 10.39028151 -14.62109375 9.62109375 C-22.1541835 9.3042338 -26.13325457 10.90081575 -31.3125 16.5 Z " fill="#5EBDC9" transform="translate(543,203)"/>
<path d="M0 0 C3 2.5 3 2.5 5 5 C5.70125 5.78375 6.4025 6.5675 7.125 7.375 C12.37247313 14.72146239 13.17233386 22.05891394 13 31 C11.58072138 39.09340702 7.16599453 45.65613808 1 51 C-8.61650601 57.11802802 -17.66373144 58.67794124 -29.046875 56.38671875 C-36.943721 53.85482038 -43.28428641 49.46338574 -47.6328125 42.31640625 C-52.16573736 32.97858103 -53.03359154 25.00528587 -50 15 C-46.0604317 6.28025487 -40.76923796 0.35453157 -31.9375 -3.375 C-20.74109331 -7.00999779 -10.18174756 -5.81586519 0 0 Z M-32.28125 14.54296875 C-35.4180384 19.43859922 -36.59228855 24.60003592 -35.59375 30.33203125 C-34.01457062 36.00015726 -31.836524 38.70704749 -27 42 C-22.75814405 44.12092798 -17.59501971 43.61110237 -13 43 C-8.6056525 40.85641586 -6.45958256 37.80056316 -4.0625 33.625 C-2.32760615 27.70595039 -2.14388525 23.32320467 -4.6875 17.75 C-6.95175262 13.64856021 -9.80096361 11.09951819 -14 9 C-21.22706703 8.19405651 -27.34946382 8.60377503 -32.28125 14.54296875 Z " fill="#5EBEC9" transform="translate(616,204)"/>
<path d="M0 0 C12.58973227 10.54107196 20.6973086 24.2625126 22.96875 40.66015625 C23.08378871 43.66956887 23.01441101 46.64652975 22.96875 49.66015625 C17.68875 49.33015625 12.40875 49.00015625 6.96875 48.66015625 C6.576875 46.22640625 6.185 43.79265625 5.78125 41.28515625 C3.67246857 29.63687335 -0.87887722 20.49941959 -10.03125 12.66015625 C-22.13970789 5.08712073 -33.97878764 1.71301319 -48.03125 4.84765625 C-57.49325605 7.42055243 -66.49269172 12.35231882 -72.03125 20.66015625 C-74.89453125 21.0234375 -74.89453125 21.0234375 -78.34375 20.97265625 C-79.47425781 20.96878906 -80.60476563 20.96492188 -81.76953125 20.9609375 C-84.92574382 20.66988556 -87.1813954 20.00220786 -90.03125 18.66015625 C-82.94612965 3.59982506 -70.28903059 -4.68661426 -55.07421875 -10.39453125 C-36.30168382 -16.22630718 -15.39159073 -11.88087996 0 0 Z " fill="#52BEC9" transform="translate(412.03125,23.33984375)"/>
<path d="M0 0 C2.47923801 -0.02685095 4.9581884 -0.04676547 7.4375 -0.0625 C8.14455078 -0.07087891 8.85160156 -0.07925781 9.58007812 -0.08789062 C11.38693559 -0.09653588 13.19387603 -0.05220011 15 0 C16.85328975 1.85328975 16.78877019 4.94632271 17.25 7.4375 C19.48861928 17.99864169 23.61739748 26.91611054 32 34 C44.55204941 41.83942061 57.71135327 45.08505463 72.32421875 41.8125 C79.62977628 39.59417012 85.90390734 36.66067396 90.6875 30.625 C93.38978321 27.58131484 95.31003387 26.76244296 99.26953125 26.4921875 C103.53382972 26.416776 107.75094868 26.65235035 112 27 C112 33.95494982 106.2764726 38.77074364 101.6875 43.6875 C90.73325712 54.25139124 75.66804576 59.63795385 60.6875 60.3125 C43.55358303 59.75580234 28.18201533 53.06618 16 41 C5.69039467 29.07671732 -0.58692846 15.84706834 0 0 Z " fill="#56BEC9" transform="translate(446,72)"/>
<path d="M0 0 C1.68111128 2.1723066 1.66389504 3.35507644 1.6081543 6.07836914 C1.59365234 7.33617187 1.59365234 7.33617187 1.57885742 8.61938477 C1.5537207 9.49143555 1.52858398 10.36348633 1.50268555 11.26196289 C1.48238281 12.57583984 1.48238281 12.57583984 1.46166992 13.91625977 C1.4354806 15.5362564 1.40314515 17.15617317 1.36279297 18.77587891 C1.3304318 20.08343611 1.31518555 21.39150529 1.31518555 22.69946289 C1.31518555 27.03279622 1.31518555 31.36612956 1.31518555 35.69946289 C-4.37204734 39.65579881 -8.78990992 40.72961875 -15.68481445 39.69946289 C-19.19621199 38.70521359 -22.55224151 37.59166352 -25.68481445 35.69946289 C-26.01481445 34.70946289 -26.34481445 33.71946289 -26.68481445 32.69946289 C-26.78793945 33.79258789 -26.89106445 34.88571289 -26.99731445 36.01196289 C-27.68481445 39.69946289 -27.68481445 39.69946289 -28.87231445 41.51196289 C-33.9898621 44.86483893 -39.72373518 45.55247928 -45.68481445 44.69946289 C-48.87376474 43.51300159 -52.24516001 42.13911733 -54.68481445 39.69946289 C-55.02220364 35.43682813 -55.00987613 31.16122963 -55.05981445 26.88696289 C-55.11588867 25.08388672 -55.11588867 25.08388672 -55.1730957 23.24438477 C-55.18469727 22.08874023 -55.19629883 20.9330957 -55.20825195 19.74243164 C-55.22807129 18.68048584 -55.24789063 17.61854004 -55.26831055 16.52441406 C-54.68481445 13.69946289 -54.68481445 13.69946289 -52.33959961 11.38427734 C-45.191674 6.84796737 -35.71983807 8.36029229 -27.68481445 9.69946289 C-27.35481445 10.02946289 -27.02481445 10.35946289 -26.68481445 10.69946289 C-26.68223633 10.09618164 -26.6796582 9.49290039 -26.67700195 8.87133789 C-26.55556686 6.36167938 -26.33424518 4.12959078 -25.68481445 1.69946289 C-18.89192778 -4.33865859 -7.60212253 -5.86820848 0 0 Z M-14.68481445 10.69946289 C-14.68481445 11.02946289 -14.68481445 11.35946289 -14.68481445 11.69946289 C-12.04481445 11.69946289 -9.40481445 11.69946289 -6.68481445 11.69946289 C-6.68481445 11.36946289 -6.68481445 11.03946289 -6.68481445 10.69946289 C-9.32481445 10.69946289 -11.96481445 10.69946289 -14.68481445 10.69946289 Z M-14.68481445 17.69946289 C-14.68481445 18.02946289 -14.68481445 18.35946289 -14.68481445 18.69946289 C-12.04481445 18.69946289 -9.40481445 18.69946289 -6.68481445 18.69946289 C-6.68481445 18.36946289 -6.68481445 18.03946289 -6.68481445 17.69946289 C-9.32481445 17.69946289 -11.96481445 17.69946289 -14.68481445 17.69946289 Z M-46.68481445 22.69946289 C-46.68481445 23.02946289 -46.68481445 23.35946289 -46.68481445 23.69946289 C-43.38481445 23.69946289 -40.08481445 23.69946289 -36.68481445 23.69946289 C-36.68481445 23.36946289 -36.68481445 23.03946289 -36.68481445 22.69946289 C-39.98481445 22.69946289 -43.28481445 22.69946289 -46.68481445 22.69946289 Z M-16.68481445 24.69946289 C-16.68481445 25.02946289 -16.68481445 25.35946289 -16.68481445 25.69946289 C-13.05481445 25.69946289 -9.42481445 25.69946289 -5.68481445 25.69946289 C-5.68481445 25.36946289 -5.68481445 25.03946289 -5.68481445 24.69946289 C-9.31481445 24.69946289 -12.94481445 24.69946289 -16.68481445 24.69946289 Z M-18.68481445 31.69946289 C-14.68481445 32.69946289 -14.68481445 32.69946289 -14.68481445 32.69946289 Z " fill="#C09D33" transform="translate(401.684814453125,52.300537109375)"/>
<path d="M0 0 C-0.71428571 8.57142857 -0.71428571 8.57142857 -4 12 C-7.30401716 10.92619442 -10.44994129 9.79830218 -13.625 8.375 C-18.93695398 6.31842638 -24.39407481 6.74773337 -30 7 C-30.41746608 9.87364791 -30.41746608 9.87364791 -30 13 C-25.64676167 16.80141938 -19.14502732 17.96971306 -13.68164062 19.57421875 C-7.71719594 21.44091525 -3.32970965 23.66321124 0.35546875 28.94140625 C1.20815086 31.66482122 1.30171031 34.0854245 1.3125 36.9375 C1.32925781 37.95714844 1.34601563 38.97679687 1.36328125 40.02734375 C0.76577247 44.91663604 -1.64264989 48.04070899 -5.3125 51.1875 C-6.14201172 51.92033203 -6.14201172 51.92033203 -6.98828125 52.66796875 C-13.88229386 57.23274215 -22.0814549 56.64268753 -30 56 C-37.34837788 54.4374139 -43.20215559 51.74369088 -49 47 C-47.34832443 43.4213696 -45.21713508 40.25179812 -43 37 C-40.03 37.33 -37.06 37.66 -34 38 C-33.67 38.99 -33.34 39.98 -33 41 C-28.05512574 44.03072939 -21.21695983 43.71306555 -15.69140625 42.48828125 C-15.13324219 42.32714844 -14.57507813 42.16601562 -14 42 C-14.495 38.535 -14.495 38.535 -15 35 C-15.66644531 34.75765625 -16.33289063 34.5153125 -17.01953125 34.265625 C-18.96368829 33.5586588 -20.90628627 32.84739656 -22.84765625 32.1328125 C-24.86500644 31.40786633 -26.89325584 30.7121599 -28.93359375 30.0546875 C-35.6607463 27.83407404 -41.79171506 25.28495026 -45.1796875 18.7109375 C-46.76343227 13.4770381 -46.23394061 8.27410098 -45 3 C-42.19044048 -1.31178064 -37.32225965 -3.96159426 -32.484375 -5.52734375 C-21.30662444 -7.65392837 -9.57687003 -6.38458002 0 0 Z " fill="#224569" transform="translate(359,205)"/>
<path d="M0 0 C4.95 0 9.9 0 15 0 C15 5.61 15 11.22 15 17 C20.28 17 25.56 17 31 17 C31 21.29 31 25.58 31 30 C25.72 30 20.44 30 15 30 C15.09685328 34.37878784 15.19952425 38.75660977 15.31738281 43.13476562 C15.35569998 44.62458889 15.39054808 46.11450554 15.421875 47.60449219 C15.46746729 49.74448048 15.52546874 51.88382436 15.5859375 54.0234375 C15.63306885 55.95582275 15.63306885 55.95582275 15.68115234 57.92724609 C15.68458268 61.10481505 15.68458268 61.10481505 18 63 C21.13545766 63.02135378 21.13545766 63.02135378 24.625 62.625 C25.81351562 62.51414063 27.00203125 62.40328125 28.2265625 62.2890625 C29.14179688 62.19367188 30.05703125 62.09828125 31 62 C31.495 67.94 31.495 67.94 32 74 C23.54429826 77.42509437 16.47415854 80.13138656 7.6875 76.5 C3.31139691 73.91068954 1.61681206 70.74620392 0 66 C-0.61126877 62.2692615 -0.74312422 58.58834698 -0.8125 54.8125 C-0.84400146 53.80179443 -0.87550293 52.79108887 -0.90795898 51.74975586 C-1.09124499 44.44232447 -0.90594228 37.26147585 0 30 C-1.299375 30.020625 -2.59875 30.04125 -3.9375 30.0625 C-5.29165633 30.08399454 -6.64756083 30.07148199 -8 30 C-9 29 -9 29 -9.09765625 26.27734375 C-9.08605469 25.17519531 -9.07445312 24.07304687 -9.0625 22.9375 C-9.05347656 21.83277344 -9.04445313 20.72804687 -9.03515625 19.58984375 C-9.02355469 18.73519531 -9.01195312 17.88054687 -9 17 C-6.03 17 -3.06 17 0 17 C0 11.39 0 5.78 0 0 Z " fill="#23466A" transform="translate(375,183)"/>
<path d="M0 0 C1.19937786 6.37259801 1.06475363 10.23826317 -2 16 C-2.598125 15.67 -3.19625 15.34 -3.8125 15 C-6.05386471 13.79212012 -6.05386471 13.79212012 -9 14 C-10.9920602 15.72041563 -12.8010203 17.42914596 -14.625 19.3125 C-15.12773438 19.81201172 -15.63046875 20.31152344 -16.1484375 20.82617188 C-18.4825865 23.19483114 -19.93493759 24.80481278 -21 28 C-20.01 28.33 -19.02 28.66 -18 29 C-18.33 36.59 -18.66 44.18 -19 52 C-28.27734375 52.87890625 -28.27734375 52.87890625 -31 53 C-32.69625307 51.30374693 -32.1301121 49.14661482 -32.1328125 46.828125 C-32.13410156 45.77109375 -32.13539063 44.7140625 -32.13671875 43.625 C-32.13285156 42.51125 -32.12898438 41.3975 -32.125 40.25 C-32.13080078 38.60257813 -32.13080078 38.60257813 -32.13671875 36.921875 C-32.13542969 35.8596875 -32.13414062 34.7975 -32.1328125 33.703125 C-32.13168457 32.73020508 -32.13055664 31.75728516 -32.12939453 30.75488281 C-32.00333815 28.07107116 -31.59983478 25.61496991 -31 23 C-32.32 22.34 -33.64 21.68 -35 21 C-36.67551353 22.42717849 -38.34019309 23.86708482 -40 25.3125 C-40.928125 26.11300781 -41.85625 26.91351563 -42.8125 27.73828125 C-45.3476073 29.83498271 -45.3476073 29.83498271 -45 33 C-47.86724686 32.42655063 -48.8614515 32.1385485 -51 30 C-50.88702987 25.71654922 -47.63447139 23.22783067 -44.75 20.4375 C-44.27175781 19.95603516 -43.79351562 19.47457031 -43.30078125 18.97851562 C-40.43297061 16.15345013 -37.65462225 13.72306854 -34 12 C-31 13 -31 13 -29.75 14.5625 C-27.95654982 16.25739938 -27.95654982 16.25739938 -24.875 16.6875 C-19.11597205 15.66573698 -16.01098525 12.07465168 -12 8 C-12.474375 7.5875 -12.94875 7.175 -13.4375 6.75 C-15.16266518 4.817815 -15.56584875 3.51807725 -16 1 C-13.70839646 0.83246763 -11.41671509 0.66599948 -9.125 0.5 C-7.21074219 0.36078125 -7.21074219 0.36078125 -5.2578125 0.21875 C-3.50763316 0.10123196 -1.75412035 0 0 0 Z M-24 29 C-20 30 -20 30 -20 30 Z " fill="#679637" transform="translate(531,42)"/>
<path d="M0 0 C4.29 0 8.58 0 13 0 C13 10.89 13 21.78 13 33 C10.37670316 34.31164842 8.36301375 34.13262846 5.4375 34.125 C4.44621094 34.12757812 3.45492187 34.13015625 2.43359375 34.1328125 C0 34 0 34 -1 33 C-1.1007812 30.63601532 -1.13973215 28.30188689 -1.1328125 25.9375 C-1.13376923 25.23101318 -1.13472595 24.52452637 -1.13571167 23.79663086 C-1.13639333 22.30029207 -1.13454005 20.80395033 -1.13037109 19.30761719 C-1.12502257 17.00969843 -1.13031651 14.71197514 -1.13671875 12.4140625 C-1.13605797 10.96354123 -1.1347768 9.51302009 -1.1328125 8.0625 C-1.13483673 7.3708374 -1.13686096 6.6791748 -1.13894653 5.96655273 C-1.11495224 1.11495224 -1.11495224 1.11495224 0 0 Z " fill="#66913B" transform="translate(518,61)"/>
<path d="M0 0 C1.97909398 -0.02686553 3.95828971 -0.04633375 5.9375 -0.0625 C7.03964844 -0.07410156 8.14179688 -0.08570312 9.27734375 -0.09765625 C12 0 12 0 13 1 C13.08631874 2.34267413 13.10706473 3.68974322 13.09765625 5.03515625 C13.09443359 5.84404297 13.09121094 6.65292969 13.08789062 7.48632812 C13.07951172 8.33646484 13.07113281 9.18660156 13.0625 10.0625 C13.05798828 10.91650391 13.05347656 11.77050781 13.04882812 12.65039062 C13.03700373 14.76695663 13.01906769 16.88348685 13 19 C8.71 19 4.42 19 0 19 C-1.27603607 15.17189179 -0.86283987 11.76524893 -0.5625 7.8125 C-0.51029297 7.06291016 -0.45808594 6.31332031 -0.40429688 5.54101562 C-0.27486216 3.69362918 -0.13813482 1.84675629 0 0 Z " fill="#5F8E34" transform="translate(481,76)"/>
<path d="M0 0 C2 2.3125 2 2.3125 3 5 C2.5 7.6875 2.5 7.6875 1 10 C-3.27909582 12.72306098 -8.1082315 12.19183406 -13 12 C-13.33 12.66 -13.66 13.32 -14 14 C-15.81772642 9.79650765 -16.48844712 7.46534136 -15 3 C-13.02 3 -11.04 3 -9 3 C-10.32 2.67 -11.64 2.34 -13 2 C-13 1.34 -13 0.68 -13 0 C-14.98 0.33 -16.96 0.66 -19 1 C-14.12493806 -3.87506194 -5.81576769 -2.77570731 0 0 Z " fill="#BC9B2D" transform="translate(399,51)"/>
<path d="M0 0 C0.66 0 1.32 0 2 0 C2 0.66 2 1.32 2 2 C2.66 2 3.32 2 4 2 C4 2.99 4 3.98 4 5 C4.66 5 5.32 5 6 5 C9.14688995 10.17821573 9.46123246 14.25161132 9.375 20.125 C9.38660156 20.92292969 9.39820313 21.72085938 9.41015625 22.54296875 C9.39236826 26.0946384 9.32884437 28.39926196 7.6015625 31.5546875 C6 33 6 33 4 33 C4 33.66 4 34.32 4 35 C-1.05211564 38.20747396 -4.7811995 39.558378 -10.74609375 38.5625 C-14.31335436 37.67223045 -17.60811387 36.41842511 -21 35 C-21 34.01 -21 33.02 -21 32 C-21.99 31.67 -22.98 31.34 -24 31 C-25.55608229 27.88783541 -25.14322832 24.5992342 -25.125 21.1875 C-25.12886719 20.47529297 -25.13273438 19.76308594 -25.13671875 19.02929688 C-25.12968433 15.22719071 -24.914708 11.69512993 -24 8 C-23.01 8 -22.02 8 -21 8 C-21.33 8.763125 -21.66 9.52625 -22 10.3125 C-23.54287333 16.0018454 -24.2853947 21.83004255 -22.01953125 27.41796875 C-19.8393989 31.1007154 -18.10933754 33.48641838 -14 35 C-8.47906142 35.66128234 -3.56099495 35.68464691 1.5625 33.4375 C5.98488414 29.01511586 7.15556348 25.01772022 7.375 18.9375 C7.19168385 13.44634794 5.80796507 9.75630893 1.8125 5.875 C0 4 0 4 0 0 Z " fill="#223D5A" transform="translate(280,211)"/>
<path d="M0 0 C0.66 0.33 1.32 0.66 2 1 C1.50371094 1.41507813 1.00742187 1.83015625 0.49609375 2.2578125 C-8.80609548 10.69509229 -13.4128768 21.07626712 -14.7109375 33.453125 C-15 36 -15 36 -16 38 C-20.95 37.67 -25.9 37.34 -31 37 C-31.521727 26.04373293 -29.04569317 18.04133754 -25 8 C-24.67 8 -24.34 8 -24 8 C-24.45310052 12.16852479 -25.23221026 15.9362319 -26.5 19.9375 C-27.87465762 24.31628745 -28.57730885 28.43493555 -29 33 C-27.68 32.34 -26.36 31.68 -25 31 C-25 32.65 -25 34.3 -25 36 C-22.36 36 -19.72 36 -17 36 C-17.19851563 35.31679687 -17.39703125 34.63359375 -17.6015625 33.9296875 C-18.46091691 27.61090506 -15.83984952 20.09759976 -12.6171875 14.671875 C-11.42461073 13.10448839 -10.21382067 11.55099308 -9 10 C-9 8.68 -9 7.36 -9 6 C-8.01 6 -7.02 6 -6 6 C-5.67 5.34 -5.34 4.68 -5 4 C-4.34 4 -3.68 4 -3 4 C-2.67 3.01 -2.34 2.02 -2 1 C-1.34 0.67 -0.68 0.34 0 0 Z " fill="#668E47" transform="translate(477,35)"/>
<path d="M0 0 C1.19937786 6.37259801 1.06475363 10.23826317 -2 16 C-5.16115776 14.63016497 -5.9927092 14.0109362 -8 11 C-9.98 11.99 -9.98 11.99 -12 13 C-11.67 12.01 -11.34 11.02 -11 10 C-11 9.34 -11 8.68 -11 8 C-11.9590625 7.319375 -11.9590625 7.319375 -12.9375 6.625 C-15.32031322 4.74763201 -15.4381285 3.87441633 -16 1 C-13.70839646 0.83246763 -11.41671509 0.66599948 -9.125 0.5 C-7.84882812 0.4071875 -6.57265625 0.314375 -5.2578125 0.21875 C-3.50763316 0.10123196 -1.75412035 0 0 0 Z " fill="#5C9529" transform="translate(531,42)"/>
<path d="M0 0 C0.66 0 1.32 0 2 0 C2 6.66666667 2 13.33333333 2 20 C1.34 20.33 0.68 20.66 0 21 C-0.495 16.05 -0.495 16.05 -1 11 C-6.28 10.34 -11.56 9.68 -17 9 C-16.67 8.34 -16.34 7.68 -16 7 C-13.93359375 6.5859375 -13.93359375 6.5859375 -11.4375 6.375 C-10.61121094 6.30023438 -9.78492188 6.22546875 -8.93359375 6.1484375 C-7.97646484 6.07496094 -7.97646484 6.07496094 -7 6 C-8.11375 6.020625 -9.2275 6.04125 -10.375 6.0625 C-14 6 -14 6 -16 5 C-15.67 4.01 -15.34 3.02 -15 2 C-14.11248047 2.01740234 -14.11248047 2.01740234 -13.20703125 2.03515625 C-8.99768215 2.08322386 -5.1077667 2.06006883 -1 1 C-0.67 2.32 -0.34 3.64 0 5 C0 3.35 0 1.7 0 0 Z " fill="#BEA14C" transform="translate(401,68)"/>
<path d="M0 0 C5.43167463 8.14751195 6.14449755 17.46316146 6 27 C0.72 26.67 -4.56 26.34 -10 26 C-10.433125 23.545625 -10.86625 21.09125 -11.3125 18.5625 C-12.41707905 12.49470373 -13.82871341 6.79009758 -16 1 C-10.4935234 5.95582894 -9.19395107 11.89980164 -8 19 C-8 20.32 -8 21.64 -8 23 C-4.04 23.33 -0.08 23.66 4 24 C3.71729594 21.58197805 3.42420736 19.1659878 3.125 16.75 C3.04636719 16.06808594 2.96773438 15.38617188 2.88671875 14.68359375 C2.42800047 11.04913352 1.77565961 8.1961873 0 5 C-0.125 2.25 -0.125 2.25 0 0 Z " fill="#5EB1BB" transform="translate(429,46)"/>
<path d="M0 0 C1.24523437 0.01804688 2.49046875 0.03609375 3.7734375 0.0546875 C5.18496094 0.08949219 5.18496094 0.08949219 6.625 0.125 C6.625 0.455 6.625 0.785 6.625 1.125 C-1.295 1.62 -1.295 1.62 -9.375 2.125 C-9.705 3.775 -10.035 5.425 -10.375 7.125 C-12.3125 8.5 -12.3125 8.5 -14.375 9.125 C-15.035 8.795 -15.695 8.465 -16.375 8.125 C-16.375 7.465 -16.375 6.805 -16.375 6.125 C-17.035 6.125 -17.695 6.125 -18.375 6.125 C-18.375 6.785 -18.375 7.445 -18.375 8.125 C-20.00053283 9.83180947 -21.66615995 11.50160195 -23.375 13.125 C-23.045 13.785 -22.715 14.445 -22.375 15.125 C-23.5196875 15.8984375 -23.5196875 15.8984375 -24.6875 16.6875 C-27.99075607 19.68347644 -28.86125726 21.98212514 -30.375 26.125 C-31.035 25.795 -31.695 25.465 -32.375 25.125 C-28.31796756 13.86050211 -24.39971162 7.47985993 -13.375 2.125 C-8.76693739 0.25277757 -4.96023204 -0.09358928 0 0 Z " fill="#64B7C0" transform="translate(525.375,198.875)"/>
<path d="M0 0 C2 2 2 2 3.6875 5.25 C6.65541543 10.51530181 10.47905784 14.04367244 16.140625 16.19140625 C20.75249714 17.15765881 24.77155757 17.00098247 29.4375 16.625 C30.26443359 16.56828125 31.09136719 16.5115625 31.94335938 16.453125 C33.96302888 16.31303232 35.98165637 16.15805019 38 16 C35.28753507 18.97079493 33.29421712 19.88927455 29.21484375 20.23828125 C21.20477494 20.41967733 13.57405122 19.89902604 7.2265625 14.48828125 C6 13 6 13 6 11 C5.01 10.67 4.02 10.34 3 10 C-1.09302326 4.88372093 -1.09302326 4.88372093 -0.75 1.625 C-0.5025 1.08875 -0.255 0.5525 0 0 Z " fill="#203D5A" transform="translate(178,229)"/>
<path d="M0 0 C0.99 0.66 1.98 1.32 3 2 C2.67 2.99 2.34 3.98 2 5 C0.02 4.34 -1.96 3.68 -4 3 C-4 2.34 -4 1.68 -4 1 C-5.299375 0.87625 -6.59875 0.7525 -7.9375 0.625 C-10.15234375 0.4140625 -10.15234375 0.4140625 -12 0 C-12.33 -0.66 -12.66 -1.32 -13 -2 C-19.77750164 -2.48219379 -23.41006983 -2.19244763 -29 2 C-31.75804489 2.6364719 -34.18055489 3 -37 3 C-37 3.66 -37 4.32 -37 5 C-38.32 4.67 -39.64 4.34 -41 4 C-39.46306333 3.03409909 -37.92019122 2.07764001 -36.375 1.125 C-35.51648438 0.59132812 -34.65796875 0.05765625 -33.7734375 -0.4921875 C-22.97561437 -6.36255331 -10.82835739 -5.2512742 0 0 Z " fill="#26405D" transform="translate(290,203)"/>
<path d="M0 0 C-0.33 0.66 -0.66 1.32 -1 2 C-1.69867187 1.98839844 -2.39734375 1.97679687 -3.1171875 1.96484375 C-4.02726563 1.95582031 -4.93734375 1.94679687 -5.875 1.9375 C-6.77992188 1.92589844 -7.68484375 1.91429687 -8.6171875 1.90234375 C-11.0168585 1.83750743 -11.0168585 1.83750743 -13 3 C-15.73957593 3.1045405 -18.44766638 3.14015514 -21.1875 3.125 C-22.03795898 3.12306641 -22.88841797 3.12113281 -23.76464844 3.11914062 C-37.18032706 3.0347358 -50.59406278 2.48673546 -64 2 C-64 1.67 -64 1.34 -64 1 C-57.61781531 0.85490661 -51.23556766 0.71285658 -44.85327148 0.57275391 C-42.68984505 0.52492387 -40.52643295 0.47644044 -38.36303711 0.42724609 C-25.57309891 0.13690235 -12.79342333 -0.07876242 0 0 Z " fill="#DDE5ED" transform="translate(520,137)"/>
<path d="M0 0 C0.56203125 0.24621094 1.1240625 0.49242187 1.703125 0.74609375 C1.043125 0.74609375 0.383125 0.74609375 -0.296875 0.74609375 C-0.626875 1.73609375 -0.956875 2.72609375 -1.296875 3.74609375 C-0.636875 3.74609375 0.023125 3.74609375 0.703125 3.74609375 C1.033125 3.08609375 1.363125 2.42609375 1.703125 1.74609375 C2.033125 2.73609375 2.363125 3.72609375 2.703125 4.74609375 C0.80367955 6.40810852 -1.09637659 8.06933006 -3 9.7265625 C-4.5026577 11.04777684 -5.99289958 12.38328172 -7.46875 13.734375 C-8.15453125 14.35699219 -8.8403125 14.97960937 -9.546875 15.62109375 C-10.17078125 16.19601563 -10.7946875 16.7709375 -11.4375 17.36328125 C-13.41086578 18.83086841 -14.89330556 19.33131849 -17.296875 19.74609375 C-16.01625015 18.03859395 -14.67919943 16.37235779 -13.296875 14.74609375 C-12.636875 14.74609375 -11.976875 14.74609375 -11.296875 14.74609375 C-11.296875 14.08609375 -11.296875 13.42609375 -11.296875 12.74609375 C-9.6514372 11.05846524 -7.98398923 9.39205885 -6.296875 7.74609375 C-5.966875 7.08609375 -5.636875 6.42609375 -5.296875 5.74609375 C-6.616875 6.73609375 -7.936875 7.72609375 -9.296875 8.74609375 C-9.956875 8.41609375 -10.616875 8.08609375 -11.296875 7.74609375 C-9.89472566 6.37690091 -8.47459027 5.02610666 -7.046875 3.68359375 C-5.86351562 2.55244141 -5.86351562 2.55244141 -4.65625 1.3984375 C-2.296875 -0.25390625 -2.296875 -0.25390625 0 0 Z " fill="#709F42" transform="translate(521.296875,50.25390625)"/>
<path d="M0 0 C0.99 0 1.98 0 3 0 C3 5.94 3 11.88 3 18 C3.66 18 4.32 18 5 18 C5.18175781 18.63808594 5.36351562 19.27617187 5.55078125 19.93359375 C5.80214844 20.75988281 6.05351562 21.58617187 6.3125 22.4375 C6.55613281 23.26121094 6.79976562 24.08492187 7.05078125 24.93359375 C7.36402344 25.61550781 7.67726562 26.29742187 8 27 C8.99 27.33 9.98 27.66 11 28 C12.75 30.9375 12.75 30.9375 14 34 C13.67 34.66 13.34 35.32 13 36 C2.55624142 24.96951341 -0.41105031 15.18602541 0 0 Z " fill="#233D5B" transform="translate(161,215)"/>
<path d="M0 0 C1.2684375 0.433125 1.2684375 0.433125 2.5625 0.875 C3.92375 1.24625 3.92375 1.24625 5.3125 1.625 C6.42625 2.24375 6.42625 2.24375 7.5625 2.875 C7.8925 4.525 8.2225 6.175 8.5625 7.875 C3.9425 7.875 -0.6775 7.875 -5.4375 7.875 C-5.7675 6.555 -6.0975 5.235 -6.4375 3.875 C-4.46594025 1.06931881 -3.5227721 -0.18065498 0 0 Z " fill="#53C0CE" transform="translate(475.4375,251.125)"/>
<path d="M0 0 C6.83447318 0.24408833 11.12704509 2.11560623 16 7 C18.15912713 10.27013429 18.29784254 13.06304501 18.3125 16.9375 C18.32925781 17.95714844 18.34601563 18.97679687 18.36328125 20.02734375 C17.95494192 23.36870105 16.91007169 25.26340652 15 28 C14.34 27.67 13.68 27.34 13 27 C13.49519015 23.61620066 14.13089113 20.62041572 15.25 17.375 C16.38869663 14.07905694 16.38869663 14.07905694 14.6875 11.8125 C14.130625 11.214375 13.57375 10.61625 13 10 C12.3125 7.75 12.3125 7.75 12 6 C11.34 6 10.68 6 10 6 C9.67 5.34 9.34 4.68 9 4 C8.2575 4.0825 7.515 4.165 6.75 4.25 C3.21842973 3.92894816 2.23369636 2.64734383 0 0 Z " fill="#1D3A56" transform="translate(342,225)"/>
<path d="M0 0 C4 1 4 1 6 2 C6 2.66 6 3.32 6 4 C5.34 4.66 4.68 5.32 4 6 C2.98758315 7.32392972 1.98560611 8.65599167 1 10 C1.99 11.485 1.99 11.485 3 13 C-0.375 12.75 -0.375 12.75 -4 12 C-4.66 10.68 -5.32 9.36 -6 8 C-4.02 5.36 -2.04 2.72 0 0 Z " fill="#1B3F5F" transform="translate(316,242)"/>
<path d="M0 0 C4.01297627 0.53412644 6.25905505 1.60483112 9.3125 4.25 C10.00988281 4.83265625 10.70726562 5.4153125 11.42578125 6.015625 C13.39455938 8.49736021 13.31431892 9.91008519 13 13 C12.01 13 11.02 13 10 13 C9.67 13.66 9.34 14.32 9 15 C9.226875 14.401875 9.45375 13.80375 9.6875 13.1875 C9.790625 12.465625 9.89375 11.74375 10 11 C8.60411246 9.35405861 8.60411246 9.35405861 7 8 C7 7.34 7 6.68 7 6 C2.65815798 6.18464366 2.65815798 6.18464366 -1 8 C-2.66617115 8.04063832 -4.33388095 8.042721 -6 8 C-3.74259377 5.66475218 -1.7194239 3.81294927 1 2 C0.67 1.34 0.34 0.68 0 0 Z " fill="#1A3C5B" transform="translate(221,236)"/>
<path d="M0 0 C2.8842454 0.34485543 3.8207818 0.78255407 5.703125 3.06640625 C6.21359375 3.89011719 6.7240625 4.71382812 7.25 5.5625 C7.77078125 6.38878906 8.2915625 7.21507812 8.828125 8.06640625 C9.21484375 8.70449219 9.6015625 9.34257813 10 10 C9.01 10 8.02 10 7 10 C5 7 5 7 4 5 C2.68 5 1.36 5 0 5 C-0.0825 5.7425 -0.165 6.485 -0.25 7.25 C-1.17533795 10.6429058 -2.24375111 11.83969682 -5 14 C-8.25 15.25 -8.25 15.25 -11 16 C-7.43120211 10.59161557 -3.79801861 5.25020219 0 0 Z " fill="#193A5E" transform="translate(321,55)"/>
<path d="M0 0 C4.75 1.875 4.75 1.875 7 3 C8.99551782 3.35919321 10.99548879 3.69496569 13 4 C13.33 3.01 13.66 2.02 14 1 C14.66 1.33 15.32 1.66 16 2 C15.01 3.485 15.01 3.485 14 5 C10.375 5.6875 10.375 5.6875 7 6 C7 6.66 7 7.32 7 8 C8.32 8 9.64 8 11 8 C11 8.66 11 9.32 11 10 C6.545 10.495 6.545 10.495 2 11 C1.40267181 8.23735711 1 5.83967231 1 3 C0.67 2.01 0.34 1.02 0 0 Z " fill="#C6A22B" transform="translate(348,79)"/>
<path d="M0 0 C1.97909398 -0.02686553 3.95828971 -0.04633375 5.9375 -0.0625 C7.03964844 -0.07410156 8.14179688 -0.08570312 9.27734375 -0.09765625 C12 0 12 0 13 1 C13.08631874 2.34267413 13.10706473 3.68974322 13.09765625 5.03515625 C13.09443359 5.84404297 13.09121094 6.65292969 13.08789062 7.48632812 C13.07951172 8.33646484 13.07113281 9.18660156 13.0625 10.0625 C13.05798828 10.91650391 13.05347656 11.77050781 13.04882812 12.65039062 C13.03700373 14.76695663 13.01906769 16.88348685 13 19 C10.09770859 14.64656288 9.82793023 11.89747805 10.4375 6.75 C10.53933594 5.85796875 10.64117187 4.9659375 10.74609375 4.046875 C10.82988281 3.37140625 10.91367187 2.6959375 11 2 C6.545 2.495 6.545 2.495 2 3 C2.33 3.99 2.66 4.98 3 6 C2.5625 8.6875 2.5625 8.6875 2 11 C1.34 11 0.68 11 0 11 C0 7.37 0 3.74 0 0 Z " fill="#699041" transform="translate(481,76)"/>
<path d="M0 0 C5.75 0.875 5.75 0.875 8 2 C8 2.66 8 3.32 8 4 C6.68 4 5.36 4 4 4 C4 4.99 4 5.98 4 7 C5.98 7.99 7.96 8.98 10 10 C10 10.99 10 11.98 10 13 C9.01 13.33 8.02 13.66 7 14 C6.34 13.01 5.68 12.02 5 11 C3.33985384 10.63557767 1.67293936 10.30027117 0 10 C-0.33 9.34 -0.66 8.68 -1 8 C-1.99 7.67 -2.98 7.34 -4 7 C-4 6.67 -4 6.34 -4 6 C-2.35 6 -0.7 6 1 6 C0.67 4.02 0.34 2.04 0 0 Z " fill="#C9A734" transform="translate(375,67)"/>
<path d="M0 0 C0.66 0 1.32 0 2 0 C2.3125 3.3125 2.3125 3.3125 2 7 C-0.1875 9.0625 -0.1875 9.0625 -3 10 C-5.75 9.4375 -5.75 9.4375 -8 8 C-8.8125 5.875 -8.8125 5.875 -9 4 C-7.88625 3.71125 -6.7725 3.4225 -5.625 3.125 C-1.99708908 2.30758671 -1.99708908 2.30758671 0 0 Z " fill="#C3A130" transform="translate(399,82)"/>
<path d="M0 0 C0.66 0 1.32 0 2 0 C2.03738281 0.97839844 2.07476562 1.95679688 2.11328125 2.96484375 C2.4858443 10.39418922 2.91788769 17.12451868 6 24 C6.99 24.33 7.98 24.66 9 25 C9 25.66 9 26.32 9 27 C5.2468239 26.16596087 4.02758259 25.03652829 1.6875 21.9375 C-1.40722141 15.26334177 -0.29329987 7.16955235 0 0 Z " fill="#25415D" transform="translate(375,232)"/>
<path d="M0 0 C3.95807715 -0.11761144 7.91569621 -0.18771882 11.875 -0.25 C13.53789062 -0.30027344 13.53789062 -0.30027344 15.234375 -0.3515625 C22.6837101 -0.43920174 28.32732108 0.65139112 35 4 C32 5 32 5 28.83984375 4.0625 C23.8915477 2.69328685 19.48863905 2.89407641 14.40429688 3.078125 C9.2471451 3.19054248 4.96271584 2.43230581 0 1 C0 0.67 0 0.34 0 0 Z " fill="#6A8942" transform="translate(495,11)"/>
<path d="M0 0 C5.28 0 10.56 0 16 0 C16 4.29 16 8.58 16 13 C10.72 13 5.44 13 0 13 C0 12.34 0 11.68 0 11 C4.62 11 9.24 11 14 11 C14 8.03 14 5.06 14 2 C7.07 1.505 7.07 1.505 0 1 C0 0.67 0 0.34 0 0 Z " fill="#314A61" transform="translate(390,200)"/>
<path d="M0 0 C4.95 0 9.9 0 15 0 C15 3.96 15 7.92 15 12 C12.21362367 7.8204355 13.20437488 5.85331323 14 1 C10.37 1.33 6.74 1.66 3 2 C2.95101563 2.91523438 2.90203125 3.83046875 2.8515625 4.7734375 C2.77679688 5.96195313 2.70203125 7.15046875 2.625 8.375 C2.52058594 10.15003906 2.52058594 10.15003906 2.4140625 11.9609375 C2 15 2 15 0 17 C0 11.39 0 5.78 0 0 Z " fill="#283E56" transform="translate(375,183)"/>
<path d="M0 0 C1.89492188 0.01353516 1.89492188 0.01353516 3.828125 0.02734375 C4.79234375 0.03894531 5.7565625 0.05054688 6.75 0.0625 C6.75 0.3925 6.75 0.7225 6.75 1.0625 C2.79 1.0625 -1.17 1.0625 -5.25 1.0625 C-5.25 1.7225 -5.25 2.3825 -5.25 3.0625 C-5.85328125 3.25585938 -6.4565625 3.44921875 -7.078125 3.6484375 C-7.87734375 3.90882813 -8.6765625 4.16921875 -9.5 4.4375 C-10.28890625 4.69273437 -11.0778125 4.94796875 -11.890625 5.2109375 C-14.11627958 6.01423667 -16.15931672 6.95961662 -18.25 8.0625 C-19.24 7.4025 -20.23 6.7425 -21.25 6.0625 C-19.66925436 5.24497697 -18.08528777 4.43368003 -16.5 3.625 C-15.61828125 3.17253906 -14.7365625 2.72007812 -13.828125 2.25390625 C-9.08338595 0.06126169 -5.24108026 -0.04852852 0 0 Z " fill="#69B7BB" transform="translate(597.25,198.9375)"/>
<path d="M0 0 C5.75 1.875 5.75 1.875 8 3 C7.28571429 11.57142857 7.28571429 11.57142857 4 15 C2.68 14.34 1.36 13.68 0 13 C0.495 12.566875 0.99 12.13375 1.5 11.6875 C3.33218192 10.00259517 3.33218192 10.00259517 3 7 C3.66 6.67 4.32 6.34 5 6 C3.74458443 3.48916886 2.49936512 3.12874554 0 2 C0 1.34 0 0.68 0 0 Z " fill="#193253" transform="translate(351,202)"/>
<path d="M0 0 C0.66 0.33 1.32 0.66 2 1 C2 2.32 2 3.64 2 5 C0.35360035 6.35827971 -1.31295807 7.69254251 -3 9 C-3 9.99 -3 10.98 -3 12 C-5.86724686 11.42655063 -6.8614515 11.1385485 -9 9 C-9 8.01 -9 7.02 -9 6 C-8.071875 5.7525 -7.14375 5.505 -6.1875 5.25 C-2.83541675 3.93545755 -1.8122197 3.02036616 0 0 Z " fill="#68A133" transform="translate(489,63)"/>
<path d="M0 0 C7.82947542 4.78467942 15.89765958 10.00477176 19 19 C17.02 18.34 15.04 17.68 13 17 C13.66 16.67 14.32 16.34 15 16 C12.34345343 12.26115668 10.41889613 10.35021826 6 9 C6 8.01 6 7.02 6 6 C5.38125 5.7525 4.7625 5.505 4.125 5.25 C1.62519797 3.77952822 1.16683978 2.58596924 0 0 Z " fill="#5EBAC5" transform="translate(405,19)"/>
<path d="M0 0 C0.7734375 0.8971875 0.7734375 0.8971875 1.5625 1.8125 C7.61017617 7.23990169 14.18599089 7.59022375 22 8 C22 8.33 22 8.66 22 9 C14.15808901 9.32276158 8.22275483 9.07635854 1 6 C0.01 6.33 -0.98 6.66 -2 7 C-2.33 5.68 -2.66 4.36 -3 3 C-2.34 3 -1.68 3 -1 3 C-0.67 2.01 -0.34 1.02 0 0 Z " fill="#63B4C1" transform="translate(580,239)"/>
<path d="M0 0 C0.33 0 0.66 0 1 0 C1.12375 0.804375 1.2475 1.60875 1.375 2.4375 C1.58125 3.283125 1.7875 4.12875 2 5 C2.66 5.33 3.32 5.66 4 6 C4.30859375 7.75 4.30859375 7.75 4.4375 10 C4.86904149 14.9787102 6.24876842 19.34106315 8 24 C3.73726932 20.49847123 1.51214186 16.22949058 0 11 C-0.30489348 7.30316656 -0.24886968 3.69847998 0 0 Z " fill="#244059" transform="translate(240,227)"/>
<path d="M0 0 C3.13732013 2.56689829 3.95250293 5.13509701 5 9 C5.1953125 12.6484375 5.1953125 12.6484375 5.125 16.375 C5.10695313 17.62023437 5.08890625 18.86546875 5.0703125 20.1484375 C5.04710937 21.08945313 5.02390625 22.03046875 5 23 C4.01 23 3.02 23 2 23 C2.01160156 22.02417969 2.02320313 21.04835937 2.03515625 20.04296875 C2.04417969 18.77066406 2.05320312 17.49835938 2.0625 16.1875 C2.07410156 14.92292969 2.08570313 13.65835938 2.09765625 12.35546875 C2.16159116 9.00394763 2.16159116 9.00394763 1 6 C1.33 5.34 1.66 4.68 2 4 C1.34 4 0.68 4 0 4 C0 2.68 0 1.36 0 0 Z " fill="#213D54" transform="translate(299,214)"/>
<path d="M0 0 C4.6875 3.61328125 4.6875 3.61328125 6 5 C6 8 6 8 4.390625 9.82421875 C3.68421875 10.43910156 2.9778125 11.05398437 2.25 11.6875 C1.55390625 12.31011719 0.8578125 12.93273437 0.140625 13.57421875 C-2 15 -2 15 -6 15 C-5.56042969 14.58105469 -5.12085938 14.16210938 -4.66796875 13.73046875 C-3.01421418 12.0147468 -1.67512985 10.26437519 -0.3125 8.3125 C0.12449219 7.68988281 0.56148437 7.06726563 1.01171875 6.42578125 C1.33785156 5.95527344 1.66398438 5.48476562 2 5 C1.34 4.34 0.68 3.68 0 3 C0 2.01 0 1.02 0 0 Z " fill="#243B56" transform="translate(228,188)"/>
<path d="M0 0 C13.27520849 -0.23199393 13.27520849 -0.23199393 16.75 2.25 C18.31760089 4.44464124 18.64212875 6.35175278 19 9 C18.01 9.495 18.01 9.495 17 10 C16.608125 9.05125 16.21625 8.1025 15.8125 7.125 C14.28429778 3.95328186 14.28429778 3.95328186 11.8125 2.5625 C7.18016233 1.63603247 2.985913 2.28710815 -1.4375 3.875 C-3.3262405 5.00352866 -3.3262405 5.00352866 -4 8 C-4.33 7.01 -4.66 6.02 -5 5 C-4.360625 4.731875 -3.72125 4.46375 -3.0625 4.1875 C-0.66868314 3.11332248 -0.66868314 3.11332248 0 0 Z " fill="#6CB8C0" transform="translate(661,212)"/>
<path d="M0 0 C0 2.64 0 5.28 0 8 C-0.66 7.67 -1.32 7.34 -2 7 C-2 6.01 -2 5.02 -2 4 C-5.63 3.67 -9.26 3.34 -13 3 C-12.34 4.32 -11.68 5.64 -11 7 C-12.9375 6.25 -12.9375 6.25 -15 5 C-15.62890625 2.921875 -15.62890625 2.921875 -16 1 C-13.70839646 0.83246763 -11.41671509 0.66599948 -9.125 0.5 C-7.84882812 0.4071875 -6.57265625 0.314375 -5.2578125 0.21875 C-3.50763316 0.10123196 -1.75412035 0 0 0 Z " fill="#63983D" transform="translate(531,42)"/>
<path d="M0 0 C0.66 0.99 1.32 1.98 2 3 C-1.04108941 7.60507824 -3.12668966 10.30685481 -8 13 C-9.78344178 15.06954847 -9.78344178 15.06954847 -11 17 C-12.32 16.67 -13.64 16.34 -15 16 C-14.25234375 15.34773438 -13.5046875 14.69546875 -12.734375 14.0234375 C-11.74953125 13.14945313 -10.7646875 12.27546875 -9.75 11.375 C-8.77546875 10.51648438 -7.8009375 9.65796875 -6.796875 8.7734375 C-3.96572305 5.96601029 -2.07666609 3.37211017 0 0 Z " fill="#1B3756" transform="translate(413,93)"/>
<path d="M0 0 C1.32 0.33 2.64 0.66 4 1 C4 2.32 4 3.64 4 5 C6.31 5.33 8.62 5.66 11 6 C11 6.33 11 6.66 11 7 C3.67372525 7.47266289 -1.37384327 6.09866202 -8 3 C-8 2.67 -8 2.34 -8 2 C-5.33333333 2 -2.66666667 2 0 2 C0 1.34 0 0.68 0 0 Z " fill="#BC9F45" transform="translate(384,85)"/>
<path d="M0 0 C-0.66 0 -1.32 0 -2 0 C-2.33 0.99 -2.66 1.98 -3 3 C-3.99 3 -4.98 3 -6 3 C-6 4.32 -6 5.64 -6 7 C-5.01 7.33 -4.02 7.66 -3 8 C-3 8.66 -3 9.32 -3 10 C-3.99 10.495 -3.99 10.495 -5 11 C-5 12.65 -5 14.3 -5 16 C-5.99 15.67 -6.98 15.34 -8 15 C-8.7817819 3.95081582 -8.7817819 3.95081582 -5.6875 0.1875 C-3 -1 -3 -1 0 0 Z " fill="#BB9D4E" transform="translate(355,63)"/>
<path d="M0 0 C1.88525391 -0.00773438 1.88525391 -0.00773438 3.80859375 -0.015625 C7.74188665 0.26269333 10.83282288 1.03725338 14.5625 2.25 C13.9025 2.91 13.2425 3.57 12.5625 4.25 C10.70096385 3.77615443 8.84095449 3.2948846 6.9921875 2.7734375 C2.59092652 1.82525588 -1.96772821 1.75897499 -6.4375 2.25 C-7.4275 2.91 -8.4175 3.57 -9.4375 4.25 C-12.125 4.375 -12.125 4.375 -14.4375 4.25 C-13.4375 2.25 -13.4375 2.25 -10.83984375 1.140625 C-7.09575796 0.16054284 -3.86700168 -0.01583215 0 0 Z " fill="#273E58" transform="translate(336.4375,198.75)"/>
<path d="M0 0 C0.66 1.98 1.32 3.96 2 6 C-4.4 9.07692308 -4.4 9.07692308 -7.4375 8.6875 C-7.953125 8.460625 -8.46875 8.23375 -9 8 C-7.02 6.68 -5.04 5.36 -3 4 C-3.66 3.67 -4.32 3.34 -5 3 C-5 2.34 -5 1.68 -5 1 C-2 0 -2 0 0 0 Z " fill="#194063" transform="translate(399,120)"/>
<path d="M0 0 C1.18916016 0.02707031 1.18916016 0.02707031 2.40234375 0.0546875 C4.35208348 0.10166918 6.30119878 0.17340956 8.25 0.25 C8.25 1.57 8.25 2.89 8.25 4.25 C7.59 4.91 6.93 5.57 6.25 6.25 C6.25 4.93 6.25 3.61 6.25 2.25 C3.97975032 2.16902676 1.70867925 2.11082296 -0.5625 2.0625 C-1.82707031 2.02769531 -3.09164062 1.99289063 -4.39453125 1.95703125 C-7.71596445 1.94172579 -7.71596445 1.94172579 -9.69921875 3.76171875 C-10.04597656 4.25285156 -10.39273438 4.74398437 -10.75 5.25 C-11.41 4.92 -12.07 4.59 -12.75 4.25 C-9.14448484 -0.67366049 -5.60574573 -0.24170711 0 0 Z " fill="#71B8BF" transform="translate(549.75,98.75)"/>
<path d="M0 0 C0.33 0 0.66 0 1 0 C1.57682368 8.895903 1.67271494 16.66541928 -4 24 C-4.99 24.33 -5.98 24.66 -7 25 C-7 24.01 -7 23.02 -7 22 C-6.34 21.67 -5.68 21.34 -5 21 C-0.68444109 14.19972535 -0.24241177 7.95110599 0 0 Z " fill="#6AB2BB" transform="translate(483,200)"/>
<path d="M0 0 C2.97 0 5.94 0 9 0 C9 0.33 9 0.66 9 1 C6.69 1.33 4.38 1.66 2 2 C1.67 4.31 1.34 6.62 1 9 C2.65 9.33 4.3 9.66 6 10 C6 10.66 6 11.32 6 12 C6.66 12.33 7.32 12.66 8 13 C5.66705225 13.04241723 3.33297433 13.04092937 1 13 C0 12 0 12 -0.09765625 9.27734375 C-0.08605469 8.17519531 -0.07445312 7.07304687 -0.0625 5.9375 C-0.05347656 4.83277344 -0.04445313 3.72804687 -0.03515625 2.58984375 C-0.02355469 1.73519531 -0.01195312 0.88054687 0 0 Z " fill="#28425C" transform="translate(366,200)"/>
<path d="M0 0 C0 0.99 0 1.98 0 3 C-3.82989106 4.80230168 -6.78121808 5.19622241 -11 5 C-10.25 3.0625 -10.25 3.0625 -9 1 C-6.05528957 -0.21850087 -3.15451555 -0.08762543 0 0 Z " fill="#C19E2A" transform="translate(369,90)"/>
<path d="M0 0 C-0.5625 1.8125 -0.5625 1.8125 -2 4 C-5.5 5.8125 -5.5 5.8125 -9 7 C-9.66 6.67 -10.32 6.34 -11 6 C-11 5.01 -11 4.02 -11 3 C-9.73160474 2.49384702 -8.46016898 1.99530901 -7.1875 1.5 C-6.12595703 1.08234375 -6.12595703 1.08234375 -5.04296875 0.65625 C-3 0 -3 0 0 0 Z " fill="#1E3C58" transform="translate(396,111)"/>
<path d="M0 0 C2.015625 1.8359375 2.015625 1.8359375 4 4 C3.75 6.625 3.75 6.625 3 9 C2.77390663 11.12364481 2.77390663 11.12364481 4.5 12.625 C4.995 13.07875 5.49 13.5325 6 14 C5.01 14.495 5.01 14.495 4 15 C2.015625 13.88671875 2.015625 13.88671875 0 12 C-0.390625 9.08203125 -0.390625 9.08203125 -0.25 5.8125 C-0.21390625 4.72582031 -0.1778125 3.63914062 -0.140625 2.51953125 C-0.09421875 1.68808594 -0.0478125 0.85664062 0 0 Z " fill="#B99B44" transform="translate(347,80)"/>
<path d="M0 0 C0.99 0.99 1.98 1.98 3 3 C-0.75 6 -0.75 6 -3 6 C-3 6.99 -3 7.98 -3 9 C-2.34 9.33 -1.68 9.66 -1 10 C-1.99 10.33 -2.98 10.66 -4 11 C-4.66 10.67 -5.32 10.34 -6 10 C-6.33 10.99 -6.66 11.98 -7 13 C-7.66 12.67 -8.32 12.34 -9 12 C-8.27683594 11.07767578 -8.27683594 11.07767578 -7.5390625 10.13671875 C-6.90742188 9.32847656 -6.27578125 8.52023438 -5.625 7.6875 C-4.99851562 6.88699219 -4.37203125 6.08648437 -3.7265625 5.26171875 C-2.42243282 3.55336788 -1.19218183 1.78827274 0 0 Z " fill="#668B3D" transform="translate(463,28)"/>
<path d="M0 0 C1.8253125 0.680625 1.8253125 0.680625 3.6875 1.375 C9.65752708 3.38726152 15.77257489 4.18186842 22 5 C22 5.33 22 5.66 22 6 C9.09304902 7.76177966 9.09304902 7.76177966 5.375 5.125 C4.59125 4.42375 3.8075 3.7225 3 3 C2.01 2.67 1.02 2.34 0 2 C0 1.34 0 0.68 0 0 Z " fill="#223E56" transform="translate(351,110)"/>
<path d="M0 0 C0.0825 0.61875 0.165 1.2375 0.25 1.875 C0.81258459 4.18437567 0.81258459 4.18437567 3.0625 5.25 C3.701875 5.4975 4.34125 5.745 5 6 C5 6.66 5 7.32 5 8 C5.61875 8.309375 6.2375 8.61875 6.875 8.9375 C8.25 9.625 9.625 10.3125 11 11 C11 11.66 11 12.32 11 13 C6.35236542 11.36704731 6.35236542 11.36704731 4.5 9.4375 C2.49293911 7.51406665 0.70332474 7.36531415 -2 7 C-2.33 5.35 -2.66 3.7 -3 2 C-2.01 1.34 -1.02 0.68 0 0 Z " fill="#689539" transform="translate(495,55)"/>
<path d="M0 0 C1.98 0 3.96 0 6 0 C5.236875 0.495 4.47375 0.99 3.6875 1.5 C0.17518641 4.76726846 -0.56324356 7.4628744 -2 12 C-2.99 11.34 -3.98 10.68 -5 10 C-4.67 8.35 -4.34 6.7 -4 5 C-3.34 5 -2.68 5 -2 5 C-2 4.34 -2 3.68 -2 3 C-1.34 3 -0.68 3 0 3 C0 2.01 0 1.02 0 0 Z " fill="#68B9C0" transform="translate(697,213)"/>
<path d="M0 0 C1 3 1 3 0.0625 5.1875 C-0.4634375 6.0846875 -0.4634375 6.0846875 -1 7 C1.31 7 3.62 7 6 7 C6 7.66 6 8.32 6 9 C-1.75 9.125 -1.75 9.125 -4 8 C-3.50168276 4.31245243 -2.89932357 2.39509338 0 0 Z " fill="#1E3D58" transform="translate(309,72)"/>
<path d="M0 0 C0 0.33 0 0.66 0 1 C-1.3921875 1.2165625 -1.3921875 1.2165625 -2.8125 1.4375 C-6.00725111 1.92100111 -6.00725111 1.92100111 -9 3 C-9.99 3 -10.98 3 -12 3 C-12 2.34 -12 1.68 -12 1 C-13.98 1.33 -15.96 1.66 -18 2 C-13.3424105 -2.6575895 -5.96854858 -1.44692087 0 0 Z " fill="#B89E44" transform="translate(398,50)"/>
<path d="M0 0 C1.65 0.33 3.3 0.66 5 1 C5 1.99 5 2.98 5 4 C5.66 4.66 6.32 5.32 7 6 C6.01 6 5.02 6 4 6 C3.67 7.32 3.34 8.64 3 10 C2.67 9.01 2.34 8.02 2 7 C1.34 6.67 0.68 6.34 0 6 C-0.33 5.34 -0.66 4.68 -1 4 C-0.34 4 0.32 4 1 4 C0.67 2.68 0.34 1.36 0 0 Z " fill="#5A9424" transform="translate(525,45)"/>
<path d="M0 0 C0.66 0.66 1.32 1.32 2 2 C1.41992188 2.02578125 0.83984375 2.0515625 0.2421875 2.078125 C-5.4281273 2.48983103 -8.48574403 3.58678207 -13 7 C-13.66 7 -14.32 7 -15 7 C-15 5.68 -15 4.36 -15 3 C-14.13375 2.814375 -14.13375 2.814375 -13.25 2.625 C-10.99837444 2.10310693 -10.99837444 2.10310693 -9.1875 0.9375 C-6.04365831 -0.40986072 -3.37636462 -0.25010108 0 0 Z " fill="#263F56" transform="translate(274,211)"/>
<path d="M0 0 C0.66 0 1.32 0 2 0 C3.34331654 1.99330842 4.67594012 3.99384866 6 6 C6.99 6.66 7.98 7.32 9 8 C10.1875 11.625 10.1875 11.625 11 15 C8.12735154 12.2118412 5.35581408 9.36021599 2.6875 6.375 C2.17574219 5.80523437 1.66398438 5.23546875 1.13671875 4.6484375 C0 3 0 3 0 0 Z " fill="#698744" transform="translate(540,63)"/>
<path d="M0 0 C3.96 0 7.92 0 12 0 C7.13805073 3.24129951 2.98341492 3.13294839 -2.75 3.0625 C-3.44738281 3.05798828 -4.14476562 3.05347656 -4.86328125 3.04882812 C-6.57555803 3.0371002 -8.28779033 3.01916653 -10 3 C-10 2.67 -10 2.34 -10 2 C-6.7 2 -3.4 2 0 2 C0 1.34 0 0.68 0 0 Z " fill="#2A435B" transform="translate(274,258)"/>
<path d="M0 0 C1.98 0 3.96 0 6 0 C6 0.66 6 1.32 6 2 C7.65 2.33 9.3 2.66 11 3 C11 3.66 11 4.32 11 5 C12.32 5.33 13.64 5.66 15 6 C11.82271902 6.99612052 10.4220264 7.18606127 7.32421875 5.8203125 C6.45410156 5.26085937 5.58398438 4.70140625 4.6875 4.125 C3.80449219 3.57070312 2.92148438 3.01640625 2.01171875 2.4453125 C1.34785156 1.96835938 0.68398437 1.49140625 0 1 C0 0.67 0 0.34 0 0 Z " fill="#2A4160" transform="translate(211,195)"/>
<path d="M0 0 C7.18019215 0.97337112 12.52553848 6.00865716 17.0625 11.4375 C17.701875 12.283125 18.34125 13.12875 19 14 C16.17199209 12.70280507 14.0352968 11.28975118 11.75 9.1875 C8.54859517 6.35415256 5.18655311 4.13974367 1.50390625 1.98046875 C1.00761719 1.65691406 0.51132812 1.33335938 0 1 C0 0.67 0 0.34 0 0 Z " fill="#64823E" transform="translate(533,18)"/>
<path d="M0 0 C2.62697064 -0.22137393 5.00893964 -0.28162025 7.625 -0.1875 C8.33140625 -0.17396484 9.0378125 -0.16042969 9.765625 -0.14648438 C11.51074128 -0.1111104 13.25546608 -0.05730221 15 0 C14.67 0.66 14.34 1.32 14 2 C11.28553021 2.31241455 8.66090639 2.51336592 5.9375 2.625 C5.17888672 2.66367188 4.42027344 2.70234375 3.63867188 2.7421875 C1.75952805 2.83673562 -0.12020336 2.91946756 -2 3 C-1.34 2.01 -0.68 1.02 0 0 Z " fill="#30516A" transform="translate(372,129)"/>
<path d="M0 0 C1.80411967 2.75924185 2.0127245 3.88972103 1.625 7.25 C1.41875 8.1575 1.2125 9.065 1 10 C-4.57142857 4.85714286 -4.57142857 4.85714286 -5 1 C-1.125 1.875 -1.125 1.875 0 3 C0 2.01 0 1.02 0 0 Z " fill="#518A2B" transform="translate(546,60)"/>
<path d="M0 0 C3 1 3 1 4.25 3.3125 C5 6 5 6 4 10 C2.02 7.69 0.04 5.38 -2 3 C-1 1 -1 1 0 0 Z " fill="#59B6C2" transform="translate(459,104)"/>
<path d="M0 0 C0.66 0.33 1.32 0.66 2 1 C2.8515625 3.72265625 2.8515625 3.72265625 3.625 7.0625 C3.88539063 8.16722656 4.14578125 9.27195312 4.4140625 10.41015625 C4.60742188 11.26480469 4.80078125 12.11945313 5 13 C4.01 12.67 3.02 12.34 2 12 C1.67 10.35 1.34 8.7 1 7 C0.34 7 -0.32 7 -1 7 C-1.04254356 5.00045254 -1.04080783 2.99958364 -1 1 C-0.67 0.67 -0.34 0.34 0 0 Z " fill="#1E3C55" transform="translate(330,80)"/>
<path d="M0 0 C1.32 0.66 2.64 1.32 4 2 C4 2.66 4 3.32 4 4 C5.98 3.34 7.96 2.68 10 2 C10 2.66 10 3.32 10 4 C10.66 4.33 11.32 4.66 12 5 C7.37078475 6.0161692 3.65537393 5.83796731 -1 5 C-0.67 3.35 -0.34 1.7 0 0 Z " fill="#50AC36" transform="translate(500,66)"/>
<path d="M0 0 C0 2.31 0 4.62 0 7 C-0.99 7.495 -0.99 7.495 -2 8 C-2.33 7.34 -2.66 6.68 -3 6 C-3.66 6.66 -4.32 7.32 -5 8 C-5.1875 5.125 -5.1875 5.125 -5 2 C-2 0 -2 0 0 0 Z " fill="#67B9C0" transform="translate(695,231)"/>
<path d="M0 0 C1.76462683 3.08809695 2 4.23312136 2 8 C1.01 8.495 1.01 8.495 0 9 C-0.99 8.34 -1.98 7.68 -3 7 C-3.375 4.5 -3.375 4.5 -3 2 C-2.01 1.34 -1.02 0.68 0 0 Z " fill="#1B3E62" transform="translate(317,217)"/>
<path d="M0 0 C0.99 0.33 1.98 0.66 3 1 C2.34 1 1.68 1 1 1 C0.82057837 4.94727588 0.90649311 7.5980513 3 11 C0.5625 9.8125 0.5625 9.8125 -2 8 C-2.8125 5.3125 -2.8125 5.3125 -3 3 C-2.34 3 -1.68 3 -1 3 C-0.67 2.01 -0.34 1.02 0 0 Z " fill="#1F405B" transform="translate(328,211)"/>
<path d="M0 0 C3.63 0 7.26 0 11 0 C11.33 1.32 11.66 2.64 12 4 C8.37 3.67 4.74 3.34 1 3 C0.67 2.01 0.34 1.02 0 0 Z " fill="#6ABCC1" transform="translate(592,210)"/>
<path d="M0 0 C1.93742341 -0.02703381 3.87495479 -0.04641125 5.8125 -0.0625 C6.89144531 -0.07410156 7.97039062 -0.08570312 9.08203125 -0.09765625 C12 0 12 0 15 1 C14.67 2.32 14.34 3.64 14 5 C12.68 4.34 11.36 3.68 10 3 C10 2.67 10 2.34 10 2 C6.7 1.67 3.4 1.34 0 1 C0 0.67 0 0.34 0 0 Z " fill="#B49439" transform="translate(355,74)"/>
<path d="M0 0 C5.75 0.875 5.75 0.875 8 2 C7.67 2.99 7.34 3.98 7 5 C5.02 5 3.04 5 1 5 C0.67 3.35 0.34 1.7 0 0 Z " fill="#5D8E27" transform="translate(517,13)"/>
<path d="M0 0 C1.33895632 1.66215268 2.67130142 3.32963607 4 5 C4.5775 5.721875 5.155 6.44375 5.75 7.1875 C7 9 7 9 7 11 C5.35 10.67 3.7 10.34 2 10 C1.34 6.7 0.68 3.4 0 0 Z " fill="#5AB8BD" transform="translate(465,90)"/>
<path d="M0 0 C0.66 0.33 1.32 0.66 2 1 C0.73046875 2.46484375 -0.5390625 3.9296875 -1.80859375 5.39453125 C-3.20871231 7.10712971 -3.20871231 7.10712971 -4 10 C-4.66 10 -5.32 10 -6 10 C-6.33 7.69 -6.66 5.38 -7 3 C-6.34 2.67 -5.68 2.34 -5 2 C-5 2.66 -5 3.32 -5 4 C-3.35 2.68 -1.7 1.36 0 0 Z " fill="#62B6BB" transform="translate(514,215)"/>
<path d="M0 0 C7.26 0 14.52 0 22 0 C22 0.99 22 1.98 22 3 C21.34 2.67 20.68 2.34 20 2 C18.4804236 1.84876169 16.95527498 1.75118307 15.4296875 1.68359375 C14.53378906 1.64169922 13.63789063 1.59980469 12.71484375 1.55664062 C11.77769531 1.51732422 10.84054687 1.47800781 9.875 1.4375 C8.93011719 1.39431641 7.98523438 1.35113281 7.01171875 1.30664062 C4.67462908 1.20040928 2.3374317 1.09836824 0 1 C0 0.67 0 0.34 0 0 Z " fill="#66B8BF" transform="translate(436,220)"/>
<path d="M0 0 C0.66 0.66 1.32 1.32 2 2 C-0.31 3.65 -2.62 5.3 -5 7 C-5.33 6.34 -5.66 5.68 -6 5 C-6.99 5 -7.98 5 -9 5 C-6.14693203 2.67527795 -3.45925163 1.2491742 0 0 Z " fill="#142E47" transform="translate(181,185)"/>
<path d="M0 0 C-1.50223584 4.20626034 -4.28550034 5.73900021 -8 8 C-8.66 7.67 -9.32 7.34 -10 7 C-8.71034824 5.62437146 -7.37310707 4.29233607 -6 3 C-5.34 3 -4.68 3 -4 3 C-4 2.34 -4 1.68 -4 1 C-2 0 -2 0 0 0 Z " fill="#6F9548" transform="translate(514,62)"/>
<path d="M0 0 C0.33 0.66 0.66 1.32 1 2 C2.32 1.67 3.64 1.34 5 1 C4.40138258 3.35171131 3.73075648 5.6859378 3 8 C2.01 8.495 2.01 8.495 1 9 C0.63877119 7.68942607 0.28619689 6.37646376 -0.0625 5.0625 C-0.35833984 3.96615234 -0.35833984 3.96615234 -0.66015625 2.84765625 C-0.77230469 2.23792969 -0.88445312 1.62820312 -1 1 C-0.67 0.67 -0.34 0.34 0 0 Z " fill="#22405E" transform="translate(298,237)"/>
<path d="M0 0 C0.66 0.66 1.32 1.32 2 2 C1.01 2.33 0.02 2.66 -1 3 C-1.80212628 4.87387216 -1.80212628 4.87387216 -2.1875 7.0625 C-2.34605469 7.79597656 -2.50460938 8.52945313 -2.66796875 9.28515625 C-2.77753906 9.85105469 -2.88710937 10.41695312 -3 11 C-3.99 11 -4.98 11 -6 11 C-4.74194623 6.49197399 -3.09592835 3.5087188 0 0 Z " fill="#203D55" transform="translate(170,195)"/>
<path d="M0 0 C1.65 0 3.3 0 5 0 C5.33 1.65 5.66 3.3 6 5 C3.36 5 0.72 5 -2 5 C-0.68 4.34 0.64 3.68 2 3 C2 2.34 2 1.68 2 1 C1.34 0.67 0.68 0.34 0 0 Z " fill="#577622" transform="translate(487,90)"/>
<path d="M0 0 C0.33 0 0.66 0 1 0 C1.37851209 5.93002267 0.10575375 10.47239641 -2 16 C-2.33 16 -2.66 16 -3 16 C-3.45496035 10.23716896 -1.79099852 5.39431697 0 0 Z " fill="#214359" transform="translate(433,78)"/>
<path d="M0 0 C0.99 0.66 1.98 1.32 3 2 C3 2.99 3 3.98 3 5 C2.22914063 5.06058594 1.45828125 5.12117188 0.6640625 5.18359375 C-0.33882813 5.26738281 -1.34171875 5.35117188 -2.375 5.4375 C-3.87160156 5.55931641 -3.87160156 5.55931641 -5.3984375 5.68359375 C-7.97927613 5.84965626 -7.97927613 5.84965626 -10 7 C-9.67 6.01 -9.34 5.02 -9 4 C-6.36 3.67 -3.72 3.34 -1 3 C-0.67 2.01 -0.34 1.02 0 0 Z " fill="#2A495F" transform="translate(338,75)"/>
<path d="M0 0 C4.95 0 9.9 0 15 0 C15 0.33 15 0.66 15 1 C9.06 1.495 9.06 1.495 3 2 C2.34 3.98 1.68 5.96 1 8 C0.67 8 0.34 8 0 8 C0 5.36 0 2.72 0 0 Z " fill="#61B7AE" transform="translate(446,72)"/>
<path d="M0 0 C0.66 0 1.32 0 2 0 C2.93423645 3.01031744 3.04449911 3.86650268 2 7 C-0.31 7 -2.62 7 -5 7 C-4 5 -4 5 -1 3 C-0.67 2.01 -0.34 1.02 0 0 Z " fill="#BA983B" transform="translate(392,56)"/>
<path d="M0 0 C0.99 0.33 1.98 0.66 3 1 C2.44271087 4.34373475 1.64826111 7.03312999 0 10 C-0.66 10 -1.32 10 -2 10 C-1.34 6.7 -0.68 3.4 0 0 Z " fill="#68B7BA" transform="translate(541,230)"/>
<path d="M0 0 C1.44096586 0.42594588 2.87768712 0.86626633 4.3125 1.3125 C5.11300781 1.55613281 5.91351563 1.79976562 6.73828125 2.05078125 C9 3 9 3 12 6 C6.06 4.515 6.06 4.515 0 3 C0 2.01 0 1.02 0 0 Z " fill="#2F435B" transform="translate(214,181)"/>
<path d="M0 0 C1.45947705 0.06006078 2.91779272 0.1488689 4.375 0.25 C5.59316406 0.31960937 5.59316406 0.31960937 6.8359375 0.390625 C9 1 9 1 10.2890625 3.046875 C10.64097656 4.01367188 10.64097656 4.01367188 11 5 C9.35153231 4.55123384 7.70626545 4.09069512 6.0625 3.625 C5.14597656 3.36976563 4.22945313 3.11453125 3.28515625 2.8515625 C1 2 1 2 0 0 Z " fill="#223A60" transform="translate(349,125)"/>
<path d="M0 0 C1.984375 1.11328125 1.984375 1.11328125 4 3 C4.390625 5.91796875 4.390625 5.91796875 4.25 9.1875 C4.21390625 10.27417969 4.1778125 11.36085938 4.140625 12.48046875 C4.09421875 13.31191406 4.0478125 14.14335938 4 15 C2.47265625 13.18359375 2.47265625 13.18359375 1 11 C1.29868656 8.99453311 1.63371323 6.99422795 2 5 C1.16513613 2.19932935 1.16513613 2.19932935 0 0 Z " fill="#B5A056" transform="translate(399,51)"/>
<path d="M0 0 C4.29 0 8.58 0 13 0 C13 0.33 13 0.66 13 1 C8.545 1.495 8.545 1.495 4 2 C4.33 3.32 4.66 4.64 5 6 C3.0625 5.25 3.0625 5.25 1 4 C0.67 2.68 0.34 1.36 0 0 Z " fill="#63863B" transform="translate(515,43)"/>
<path d="M0 0 C0.33 1.32 0.66 2.64 1 4 C-0.65 5.32 -2.3 6.64 -4 8 C-4.66 7.67 -5.32 7.34 -6 7 C-4.77065985 3.31197956 -3.06140622 2.27643027 0 0 Z " fill="#58852E" transform="translate(471,21)"/>
<path d="M0 0 C2.475 0.99 2.475 0.99 5 2 C5 5 5 5 3.5 6.6875 C3.005 7.120625 2.51 7.55375 2 8 C0.69951159 5.39902318 0.43528578 2.86044938 0 0 Z " fill="#234160" transform="translate(344,239)"/>
<path d="M0 0 C2.00993705 2.00993705 2.89940919 3.59211232 4.125 6.125 C4.47820312 6.84945312 4.83140625 7.57390625 5.1953125 8.3203125 C5.46085938 8.87460938 5.72640625 9.42890625 6 10 C5.01 10 4.02 10 3 10 C0.75 7.25 0.75 7.25 -1 4 C-0.75 1.625 -0.75 1.625 0 0 Z " fill="#1A3654" transform="translate(178,229)"/>
<path d="M0 0 C1.32 0.33 2.64 0.66 4 1 C4 1.66 4 2.32 4 3 C2.04072937 4.7143618 0.04119788 6.38405168 -2 8 C-2.66 7.67 -3.32 7.34 -4 7 C-3.525625 6.21625 -3.05125 5.4325 -2.5625 4.625 C-1.66101977 3.11051322 -0.78820515 1.5764103 0 0 Z " fill="#223E62" transform="translate(185,196)"/>
<path d="M0 0 C0.66 0.33 1.32 0.66 2 1 C1.01 4.96 0.02 8.92 -1 13 C-3 9 -3 9 -2.5390625 6.640625 C-2.23742187 5.85171875 -1.93578125 5.0628125 -1.625 4.25 C-1.32851563 3.45078125 -1.03203125 2.6515625 -0.7265625 1.828125 C-0.48679687 1.22484375 -0.24703125 0.6215625 0 0 Z " fill="#6D9642" transform="translate(462,57)"/>
<path d="M0 0 C3.09902323 3.09902323 2.9898579 5.39147385 3.0625 9.75 C3.041875 10.8225 3.02125 11.895 3 13 C2.01 13 1.02 13 0 13 C0.185625 12.154375 0.37125 11.30875 0.5625 10.4375 C1.03529632 6.7226718 0.66064631 3.67025727 0 0 Z " fill="#71B5B8" transform="translate(730,211)"/>
<path d="M0 0 C0.66 0.33 1.32 0.66 2 1 C0.87970983 2.48273699 -0.24638618 3.96108886 -1.375 5.4375 C-2.00148438 6.26121094 -2.62796875 7.08492188 -3.2734375 7.93359375 C-5 10 -5 10 -7 11 C-7.33 10.01 -7.66 9.02 -8 8 C-7.13375 7.690625 -7.13375 7.690625 -6.25 7.375 C-3.18589456 5.50249112 -1.84460032 3.03041481 0 0 Z " fill="#1B3B55" transform="translate(425,101)"/>
<path d="M0 0 C1.32 0.66 2.64 1.32 4 2 C2.25 4.0625 2.25 4.0625 0 6 C-2.25 5.75 -2.25 5.75 -4 5 C-3.34 3.68 -2.68 2.36 -2 1 C-1.34 1.33 -0.68 1.66 0 2 C0 1.34 0 0.68 0 0 Z " fill="#57832B" transform="translate(558,80)"/>
<path d="M0 0 C0.66 0.99 1.32 1.98 2 3 C1.67 3.66 1.34 4.32 1 5 C1.66 5 2.32 5 3 5 C4.10844919 8.32534757 3.84454356 10.62182575 3 14 C2.67 14 2.34 14 2 14 C2 11.36 2 8.72 2 6 C1.01 5.67 0.02 5.34 -1 5 C-0.67 3.35 -0.34 1.7 0 0 Z " fill="#52BDC2" transform="translate(467,196)"/>
<path d="M0 0 C0.66 0 1.32 0 2 0 C2 4.29 2 8.58 2 13 C0.68 13.33 -0.64 13.66 -2 14 C-1.67257812 13.44828125 -1.34515625 12.8965625 -1.0078125 12.328125 C0.16787715 9.61219077 0.20248638 7.69448241 0.125 4.75 C0.10695313 3.85796875 0.08890625 2.9659375 0.0703125 2.046875 C0.04710937 1.37140625 0.02390625 0.6959375 0 0 Z " fill="#66B6BD" transform="translate(467,202)"/>
<path d="M0 0 C0.99 0.33 1.98 0.66 3 1 C1.68 2.65 0.36 4.3 -1 6 C-2.9375 5.6875 -2.9375 5.6875 -5 5 C-5.33 4.01 -5.66 3.02 -6 2 C-4.68 2.33 -3.36 2.66 -2 3 C-1.34 2.01 -0.68 1.02 0 0 Z " fill="#657F43" transform="translate(561,82)"/>
<path d="M0 0 C4.75 0.75 4.75 0.75 7 3 C1.375 5 1.375 5 -2 5 C-1.01 4.01 -0.02 3.02 1 2 C0.67 1.34 0.34 0.68 0 0 Z " fill="#142F45" transform="translate(221,236)"/>
<path d="M0 0 C0.66 0 1.32 0 2 0 C2.33 4.29 2.66 8.58 3 13 C2.01 13 1.02 13 0 13 C0 8.71 0 4.42 0 0 Z " fill="#193C5E" transform="translate(301,224)"/>
<path d="M0 0 C2.97 0.495 2.97 0.495 6 1 C1.25 5 1.25 5 -1 5 C-0.67 3.35 -0.34 1.7 0 0 Z " fill="#65B6C3" transform="translate(468,226)"/>
<path d="M0 0 C4.75 0.875 4.75 0.875 7 2 C6.67 2.99 6.34 3.98 6 5 C4.02 4.34 2.04 3.68 0 3 C0 2.01 0 1.02 0 0 Z " fill="#1B365D" transform="translate(286,203)"/>
<path d="M0 0 C1.65 0 3.3 0 5 0 C4.34 0.66 3.68 1.32 3 2 C2.83312552 4.58354218 2.83312552 4.58354218 3 7 C2.01 7.33 1.02 7.66 0 8 C0 5.36 0 2.72 0 0 Z " fill="#6A8E42" transform="translate(499,72)"/>
<path d="M0 0 C2.64 0.33 5.28 0.66 8 1 C7.625 3.4375 7.625 3.4375 7 6 C6.01 6.495 6.01 6.495 5 7 C5.33 5.68 5.66 4.36 6 3 C3.03 2.505 3.03 2.505 0 2 C0 1.34 0 0.68 0 0 Z " fill="#6E8E45" transform="translate(568,62)"/>
<path d="M0 0 C2.64 0.33 5.28 0.66 8 1 C8.33 2.32 8.66 3.64 9 5 C5.7 4.01 2.4 3.02 -1 2 C-0.67 1.34 -0.34 0.68 0 0 Z " fill="#6D9341" transform="translate(519,26)"/>
<path d="M0 0 C4.455 0.99 4.455 0.99 9 2 C9 2.66 9 3.32 9 4 C5.625 3.6875 5.625 3.6875 2 3 C1.34 2.01 0.68 1.02 0 0 Z " fill="#213B5B" transform="translate(332,221)"/>
<path d="M0 0 C0.99 0.66 1.98 1.32 3 2 C-2.41538462 5.07692308 -2.41538462 5.07692308 -5.375 4.6875 C-5.91125 4.460625 -6.4475 4.23375 -7 4 C-4.625 2.4375 -4.625 2.4375 -2 1 C-1.34 1.33 -0.68 1.66 0 2 C0 1.34 0 0.68 0 0 Z " fill="#233A55" transform="translate(397,124)"/>
<path d="M0 0 C1.98 0.66 3.96 1.32 6 2 C6 2.99 6 3.98 6 5 C5.01 5.33 4.02 5.66 3 6 C0 2.25 0 2.25 0 0 Z " fill="#D4B92E" transform="translate(379,75)"/>
<path d="M0 0 C0.66 0 1.32 0 2 0 C1.67 1.98 1.34 3.96 1 6 C-0.32 6 -1.64 6 -3 6 C-3.33 5.34 -3.66 4.68 -4 4 C-3.01 3.67 -2.02 3.34 -1 3 C-0.67 2.01 -0.34 1.02 0 0 Z " fill="#689746" transform="translate(529,51)"/>
<path d="M0 0 C2.00720923 0.28674418 4.0085944 0.61866701 6 1 C6 1.99 6 2.98 6 4 C5.4225 3.62875 4.845 3.2575 4.25 2.875 C2 1.70833333 2 1.70833333 -0.25 2.875 C-1.11625 3.431875 -1.11625 3.431875 -2 4 C-1 1 -1 1 0 0 Z " fill="#659D33" transform="translate(521,51)"/>
<path d="M0 0 C3.99996286 1.33332095 4.83782337 3.4957827 7 7 C6.67 7.66 6.34 8.32 6 9 C1.125 3.375 1.125 3.375 0 0 Z " fill="#69B9BD" transform="translate(496,243)"/>
<path d="M0 0 C0.33 0 0.66 0 1 0 C1 1.98 1 3.96 1 6 C0.34 6 -0.32 6 -1 6 C-1.33 7.65 -1.66 9.3 -2 11 C-2.95465783 8.83032311 -3.14401212 7.43671207 -2.3984375 5.17578125 C-1.64129615 3.4315257 -0.82390802 1.71372869 0 0 Z " fill="#6AB9BB" transform="translate(568,215)"/>
<path d="M0 0 C0.86625 0.3403125 0.86625 0.3403125 1.75 0.6875 C0.76 1.3475 -0.23 2.0075 -1.25 2.6875 C-1.58 3.6775 -1.91 4.6675 -2.25 5.6875 C-3.57 4.6975 -4.89 3.7075 -6.25 2.6875 C-2.80384615 -0.38942308 -2.80384615 -0.38942308 0 0 Z " fill="#54BFCC" transform="translate(584.25,214.3125)"/>
<path d="M0 0 C0 3.17370278 -0.30933342 4.3794668 -2 7 C-4.125 8.25 -4.125 8.25 -6 9 C-4.68775452 5.06326356 -3.08089673 2.77280706 0 0 Z " fill="#61B3B9" transform="translate(575,206)"/>
<path d="M0 0 C-2.67478244 1.6627026 -4.9995144 2.99983813 -8 4 C-8.66 3.67 -9.32 3.34 -10 3 C-9 1 -9 1 -6.125 -0.1875 C-3 -1 -3 -1 0 0 Z " fill="#173A62" transform="translate(395,114)"/>
<path d="M0 0 C1.32 0.99 2.64 1.98 4 3 C2.68 4.65 1.36 6.3 0 8 C-0.79953138 4.71303767 -1.09658936 3.28976808 0 0 Z " fill="#C8A72E" transform="translate(386,63)"/>
<path d="M0 0 C0.99 0.33 1.98 0.66 3 1 C2.1875 3.9375 2.1875 3.9375 1 7 C0.01 7.33 -0.98 7.66 -2 8 C-1.47731534 5.23723823 -0.89130413 2.6739124 0 0 Z " fill="#1C3550" transform="translate(245,210)"/>
<path d="M0 0 C-0.33 0.99 -0.66 1.98 -1 3 C-1.66 3 -2.32 3 -3 3 C-3 3.66 -3 4.32 -3 5 C-4.32 4.67 -5.64 4.34 -7 4 C-2.25 0 -2.25 0 0 0 Z " fill="#60B7BA" transform="translate(701,201)"/>
<path d="M0 0 C0.33 1.65 0.66 3.3 1 5 C0.01 5 -0.98 5 -2 5 C-2 4.34 -2 3.68 -2 3 C-3.32 2.34 -4.64 1.68 -6 1 C-4 0 -4 0 0 0 Z " fill="#204261" transform="translate(228,187)"/>
<path d="M0 0 C2.64 1.98 5.28 3.96 8 6 C7.01 6.495 7.01 6.495 6 7 C3.4375 5.8125 3.4375 5.8125 1 4 C0.67 2.68 0.34 1.36 0 0 Z " fill="#1B3451" transform="translate(343,103)"/>
<path d="M0 0 C0.33 0.99 0.66 1.98 1 3 C-1.97 5.475 -1.97 5.475 -5 8 C-5.66 7.67 -6.32 7.34 -7 7 C-4.69 4.69 -2.38 2.38 0 0 Z " fill="#5FB9BA" transform="translate(335,25)"/>
<path d="M0 0 C3.875 1.75 3.875 1.75 5 4 C1.125 2.25 1.125 2.25 0 0 Z " fill="#151F3F" transform="translate(230,239)"/>
<path d="M0 0 C0.33 0.99 0.66 1.98 1 3 C0.01 2.67 -0.98 2.34 -2 2 C-1.34 1.34 -0.68 0.68 0 0 Z " fill="#38C638" transform="translate(515,63)"/>
<path d="M0 0 C0.99 0.33 1.98 0.66 3 1 C2.01 1 1.02 1 0 1 C0 0.67 0 0.34 0 0 Z " fill="#000000" transform="translate(230,188)"/>
<path d="M0 0 C0.33 0.66 0.66 1.32 1 2 C0.34 1.67 -0.32 1.34 -1 1 C-0.67 0.67 -0.34 0.34 0 0 Z " fill="#004747" transform="translate(220,237)"/>
<path d="M0 0 C0.66 0 1.32 0 2 0 C1.67 0.66 1.34 1.32 1 2 C0.67 1.34 0.34 0.68 0 0 Z " fill="#000080" transform="translate(294,205)"/>
<path d="" fill="#7FA8B9" transform="translate(0,0)"/>
<path d="M0 0 C0.66 0.66 1.32 1.32 2 2 C1.34 2 0.68 2 0 2 C0 1.34 0 0.68 0 0 Z " fill="#005500" transform="translate(536,39)"/>
<path d="" fill="#000080" transform="translate(0,0)"/>
<path d="M0 0 C2 1 2 1 2 1 Z " fill="#000000" transform="translate(345,223)"/>
<path d="" fill="#000040" transform="translate(0,0)"/>
<path d="" fill="#000000" transform="translate(0,0)"/>
<path d="" fill="#000000" transform="translate(0,0)"/>
<path d="" fill="#000000" transform="translate(0,0)"/>
<path d="" fill="#000000" transform="translate(0,0)"/>
<path d="" fill="#000000" transform="translate(0,0)"/>
<path d="" fill="#000000" transform="translate(0,0)"/>
<path d="" fill="#000000" transform="translate(0,0)"/>
<path d="" fill="#000080" transform="translate(0,0)"/>
<path d="" fill="#000080" transform="translate(0,0)"/>
<path d="" fill="#000000" transform="translate(0,0)"/>
<path d="" fill="#000000" transform="translate(0,0)"/>
<path d="" fill="#000000" transform="translate(0,0)"/>
<path d="" fill="#005555" transform="translate(0,0)"/>
<path d="" fill="#000000" transform="translate(0,0)"/>
<path d="" fill="#000000" transform="translate(0,0)"/>
<path d="" fill="#000000" transform="translate(0,0)"/>
<path d="" fill="#000080" transform="translate(0,0)"/>
<path d="" fill="#000000" transform="translate(0,0)"/>
<path d="" fill="#000000" transform="translate(0,0)"/>
<path d="" fill="#000000" transform="translate(0,0)"/>
<path d="" fill="#000000" transform="translate(0,0)"/>
<path d="" fill="#000000" transform="translate(0,0)"/>
<path d="" fill="#000000" transform="translate(0,0)"/>
<path d="" fill="#000000" transform="translate(0,0)"/>
<path d="" fill="#808040" transform="translate(0,0)"/>
<path d="" fill="#000000" transform="translate(0,0)"/>
<path d="" fill="#000080" transform="translate(0,0)"/>
<path d="" fill="#000000" transform="translate(0,0)"/>
<path d="" fill="#000000" transform="translate(0,0)"/>
</svg>
